M48
; DRILL file {KiCad 9.0.7} date 2026-03-05T14:09:38-0600
; FORMAT={-:-/ absolute / metric / decimal}
; #@! TF.CreationDate,2026-03-05T14:09:38-06:00
; #@! TF.GenerationSoftware,Kicad,Pcbnew,9.0.7
; #@! TF.FileFunction,Plated,1,2,PTH
FMAT,2
METRIC
; #@! TA.AperFunction,Plated,PTH,ViaDrill
T1C0.300
; #@! TA.AperFunction,Plated,PTH,ComponentDrill
T2C0.600
; #@! TA.AperFunction,Plated,PTH,ComponentDrill
T3C1.190
%
G90
G05
T1
X65.5Y-155.0
X66.5Y-173.5
X67.0Y-172.0
X67.0Y-181.0
X67.5Y-165.5
X69.5Y-181.0
X70.0Y-149.0
X72.0Y-157.5
X73.0Y-172.5
X73.5Y-159.5
X75.0Y-159.5
X75.0Y-165.5
X75.5Y-172.0
X76.0Y-173.0
X76.5Y-185.0
X79.5Y-163.0
X80.0Y-167.5
X81.0Y-156.0
X81.0Y-184.5
X82.0Y-151.0
X82.5Y-154.0
X83.0Y-158.0
X83.5Y-174.0
X84.0Y-146.5
X85.0Y-152.0
X85.0Y-154.5
X86.0Y-166.0
X88.0Y-160.0
X88.5Y-178.0
X89.0Y-148.5
X90.0Y-166.5
X92.5Y-169.5
X94.5Y-174.0
X95.0Y-161.0
X95.0Y-169.5
X97.5Y-160.5
X104.0Y-160.5
X104.0Y-174.0
T3
X62.505Y-177.35
X65.045Y-177.35
X67.16Y-146.2
X67.585Y-177.35
X69.7Y-146.2
X70.125Y-177.35
X70.55Y-184.3
X73.09Y-184.3
X73.74Y-143.6
X76.28Y-143.6
X78.475Y-179.4
X78.475Y-181.94
X78.82Y-143.6
X81.36Y-143.6
X83.785Y-181.0
X83.9Y-143.6
X86.325Y-181.0
X86.44Y-143.6
X87.11Y-174.15
X89.65Y-174.15
T2
X99.085Y-162.93G85X100.185Y-162.93
G05
X99.085Y-171.57G85X100.185Y-171.57
G05
X103.415Y-162.93G85X104.215Y-162.93
G05
X103.415Y-171.57G85X104.215Y-171.57
G05
M30
