%TF.GenerationSoftware,KiCad,Pcbnew,9.0.7*%
%TF.CreationDate,2026-03-05T14:08:13-06:00*%
%TF.ProjectId,ece445_mirror,65636534-3435-45f6-9d69-72726f722e6b,rev?*%
%TF.SameCoordinates,Original*%
%TF.FileFunction,Legend,Top*%
%TF.FilePolarity,Positive*%
%FSLAX46Y46*%
G04 Gerber Fmt 4.6, Leading zero omitted, Abs format (unit mm)*
G04 Created by KiCad (PCBNEW 9.0.7) date 2026-03-05 14:08:13*
%MOMM*%
%LPD*%
G01*
G04 APERTURE LIST*
%ADD10C,0.150000*%
%ADD11C,0.120000*%
%ADD12C,0.200000*%
G04 APERTURE END LIST*
D10*
X94684819Y-172384166D02*
X94208628Y-172717499D01*
X94684819Y-172955594D02*
X93684819Y-172955594D01*
X93684819Y-172955594D02*
X93684819Y-172574642D01*
X93684819Y-172574642D02*
X93732438Y-172479404D01*
X93732438Y-172479404D02*
X93780057Y-172431785D01*
X93780057Y-172431785D02*
X93875295Y-172384166D01*
X93875295Y-172384166D02*
X94018152Y-172384166D01*
X94018152Y-172384166D02*
X94113390Y-172431785D01*
X94113390Y-172431785D02*
X94161009Y-172479404D01*
X94161009Y-172479404D02*
X94208628Y-172574642D01*
X94208628Y-172574642D02*
X94208628Y-172955594D01*
X93684819Y-172050832D02*
X93684819Y-171431785D01*
X93684819Y-171431785D02*
X94065771Y-171765118D01*
X94065771Y-171765118D02*
X94065771Y-171622261D01*
X94065771Y-171622261D02*
X94113390Y-171527023D01*
X94113390Y-171527023D02*
X94161009Y-171479404D01*
X94161009Y-171479404D02*
X94256247Y-171431785D01*
X94256247Y-171431785D02*
X94494342Y-171431785D01*
X94494342Y-171431785D02*
X94589580Y-171479404D01*
X94589580Y-171479404D02*
X94637200Y-171527023D01*
X94637200Y-171527023D02*
X94684819Y-171622261D01*
X94684819Y-171622261D02*
X94684819Y-171907975D01*
X94684819Y-171907975D02*
X94637200Y-172003213D01*
X94637200Y-172003213D02*
X94589580Y-172050832D01*
X94987142Y-173604819D02*
X94653809Y-173128628D01*
X94415714Y-173604819D02*
X94415714Y-172604819D01*
X94415714Y-172604819D02*
X94796666Y-172604819D01*
X94796666Y-172604819D02*
X94891904Y-172652438D01*
X94891904Y-172652438D02*
X94939523Y-172700057D01*
X94939523Y-172700057D02*
X94987142Y-172795295D01*
X94987142Y-172795295D02*
X94987142Y-172938152D01*
X94987142Y-172938152D02*
X94939523Y-173033390D01*
X94939523Y-173033390D02*
X94891904Y-173081009D01*
X94891904Y-173081009D02*
X94796666Y-173128628D01*
X94796666Y-173128628D02*
X94415714Y-173128628D01*
X95939523Y-173604819D02*
X95368095Y-173604819D01*
X95653809Y-173604819D02*
X95653809Y-172604819D01*
X95653809Y-172604819D02*
X95558571Y-172747676D01*
X95558571Y-172747676D02*
X95463333Y-172842914D01*
X95463333Y-172842914D02*
X95368095Y-172890533D01*
X96891904Y-173604819D02*
X96320476Y-173604819D01*
X96606190Y-173604819D02*
X96606190Y-172604819D01*
X96606190Y-172604819D02*
X96510952Y-172747676D01*
X96510952Y-172747676D02*
X96415714Y-172842914D01*
X96415714Y-172842914D02*
X96320476Y-172890533D01*
X83229580Y-158092857D02*
X83277200Y-158140476D01*
X83277200Y-158140476D02*
X83324819Y-158283333D01*
X83324819Y-158283333D02*
X83324819Y-158378571D01*
X83324819Y-158378571D02*
X83277200Y-158521428D01*
X83277200Y-158521428D02*
X83181961Y-158616666D01*
X83181961Y-158616666D02*
X83086723Y-158664285D01*
X83086723Y-158664285D02*
X82896247Y-158711904D01*
X82896247Y-158711904D02*
X82753390Y-158711904D01*
X82753390Y-158711904D02*
X82562914Y-158664285D01*
X82562914Y-158664285D02*
X82467676Y-158616666D01*
X82467676Y-158616666D02*
X82372438Y-158521428D01*
X82372438Y-158521428D02*
X82324819Y-158378571D01*
X82324819Y-158378571D02*
X82324819Y-158283333D01*
X82324819Y-158283333D02*
X82372438Y-158140476D01*
X82372438Y-158140476D02*
X82420057Y-158092857D01*
X82420057Y-157711904D02*
X82372438Y-157664285D01*
X82372438Y-157664285D02*
X82324819Y-157569047D01*
X82324819Y-157569047D02*
X82324819Y-157330952D01*
X82324819Y-157330952D02*
X82372438Y-157235714D01*
X82372438Y-157235714D02*
X82420057Y-157188095D01*
X82420057Y-157188095D02*
X82515295Y-157140476D01*
X82515295Y-157140476D02*
X82610533Y-157140476D01*
X82610533Y-157140476D02*
X82753390Y-157188095D01*
X82753390Y-157188095D02*
X83324819Y-157759523D01*
X83324819Y-157759523D02*
X83324819Y-157140476D01*
X83324819Y-156188095D02*
X83324819Y-156759523D01*
X83324819Y-156473809D02*
X82324819Y-156473809D01*
X82324819Y-156473809D02*
X82467676Y-156569047D01*
X82467676Y-156569047D02*
X82562914Y-156664285D01*
X82562914Y-156664285D02*
X82610533Y-156759523D01*
X88036819Y-160631904D02*
X88036819Y-160060476D01*
X89036819Y-160346190D02*
X88036819Y-160346190D01*
X89036819Y-159727142D02*
X88036819Y-159727142D01*
X88036819Y-159727142D02*
X88036819Y-159346190D01*
X88036819Y-159346190D02*
X88084438Y-159250952D01*
X88084438Y-159250952D02*
X88132057Y-159203333D01*
X88132057Y-159203333D02*
X88227295Y-159155714D01*
X88227295Y-159155714D02*
X88370152Y-159155714D01*
X88370152Y-159155714D02*
X88465390Y-159203333D01*
X88465390Y-159203333D02*
X88513009Y-159250952D01*
X88513009Y-159250952D02*
X88560628Y-159346190D01*
X88560628Y-159346190D02*
X88560628Y-159727142D01*
X88036819Y-158250952D02*
X88036819Y-158727142D01*
X88036819Y-158727142D02*
X88513009Y-158774761D01*
X88513009Y-158774761D02*
X88465390Y-158727142D01*
X88465390Y-158727142D02*
X88417771Y-158631904D01*
X88417771Y-158631904D02*
X88417771Y-158393809D01*
X88417771Y-158393809D02*
X88465390Y-158298571D01*
X88465390Y-158298571D02*
X88513009Y-158250952D01*
X88513009Y-158250952D02*
X88608247Y-158203333D01*
X88608247Y-158203333D02*
X88846342Y-158203333D01*
X88846342Y-158203333D02*
X88941580Y-158250952D01*
X88941580Y-158250952D02*
X88989200Y-158298571D01*
X88989200Y-158298571D02*
X89036819Y-158393809D01*
X89036819Y-158393809D02*
X89036819Y-158631904D01*
X89036819Y-158631904D02*
X88989200Y-158727142D01*
X88989200Y-158727142D02*
X88941580Y-158774761D01*
X76838095Y-146356819D02*
X77409523Y-146356819D01*
X77123809Y-147356819D02*
X77123809Y-146356819D01*
X77742857Y-147356819D02*
X77742857Y-146356819D01*
X77742857Y-146356819D02*
X78123809Y-146356819D01*
X78123809Y-146356819D02*
X78219047Y-146404438D01*
X78219047Y-146404438D02*
X78266666Y-146452057D01*
X78266666Y-146452057D02*
X78314285Y-146547295D01*
X78314285Y-146547295D02*
X78314285Y-146690152D01*
X78314285Y-146690152D02*
X78266666Y-146785390D01*
X78266666Y-146785390D02*
X78219047Y-146833009D01*
X78219047Y-146833009D02*
X78123809Y-146880628D01*
X78123809Y-146880628D02*
X77742857Y-146880628D01*
X78885714Y-146785390D02*
X78790476Y-146737771D01*
X78790476Y-146737771D02*
X78742857Y-146690152D01*
X78742857Y-146690152D02*
X78695238Y-146594914D01*
X78695238Y-146594914D02*
X78695238Y-146547295D01*
X78695238Y-146547295D02*
X78742857Y-146452057D01*
X78742857Y-146452057D02*
X78790476Y-146404438D01*
X78790476Y-146404438D02*
X78885714Y-146356819D01*
X78885714Y-146356819D02*
X79076190Y-146356819D01*
X79076190Y-146356819D02*
X79171428Y-146404438D01*
X79171428Y-146404438D02*
X79219047Y-146452057D01*
X79219047Y-146452057D02*
X79266666Y-146547295D01*
X79266666Y-146547295D02*
X79266666Y-146594914D01*
X79266666Y-146594914D02*
X79219047Y-146690152D01*
X79219047Y-146690152D02*
X79171428Y-146737771D01*
X79171428Y-146737771D02*
X79076190Y-146785390D01*
X79076190Y-146785390D02*
X78885714Y-146785390D01*
X78885714Y-146785390D02*
X78790476Y-146833009D01*
X78790476Y-146833009D02*
X78742857Y-146880628D01*
X78742857Y-146880628D02*
X78695238Y-146975866D01*
X78695238Y-146975866D02*
X78695238Y-147166342D01*
X78695238Y-147166342D02*
X78742857Y-147261580D01*
X78742857Y-147261580D02*
X78790476Y-147309200D01*
X78790476Y-147309200D02*
X78885714Y-147356819D01*
X78885714Y-147356819D02*
X79076190Y-147356819D01*
X79076190Y-147356819D02*
X79171428Y-147309200D01*
X79171428Y-147309200D02*
X79219047Y-147261580D01*
X79219047Y-147261580D02*
X79266666Y-147166342D01*
X79266666Y-147166342D02*
X79266666Y-146975866D01*
X79266666Y-146975866D02*
X79219047Y-146880628D01*
X79219047Y-146880628D02*
X79171428Y-146833009D01*
X79171428Y-146833009D02*
X79076190Y-146785390D01*
X88046666Y-169484819D02*
X88046666Y-170199104D01*
X88046666Y-170199104D02*
X87999047Y-170341961D01*
X87999047Y-170341961D02*
X87903809Y-170437200D01*
X87903809Y-170437200D02*
X87760952Y-170484819D01*
X87760952Y-170484819D02*
X87665714Y-170484819D01*
X88570476Y-170484819D02*
X88760952Y-170484819D01*
X88760952Y-170484819D02*
X88856190Y-170437200D01*
X88856190Y-170437200D02*
X88903809Y-170389580D01*
X88903809Y-170389580D02*
X88999047Y-170246723D01*
X88999047Y-170246723D02*
X89046666Y-170056247D01*
X89046666Y-170056247D02*
X89046666Y-169675295D01*
X89046666Y-169675295D02*
X88999047Y-169580057D01*
X88999047Y-169580057D02*
X88951428Y-169532438D01*
X88951428Y-169532438D02*
X88856190Y-169484819D01*
X88856190Y-169484819D02*
X88665714Y-169484819D01*
X88665714Y-169484819D02*
X88570476Y-169532438D01*
X88570476Y-169532438D02*
X88522857Y-169580057D01*
X88522857Y-169580057D02*
X88475238Y-169675295D01*
X88475238Y-169675295D02*
X88475238Y-169913390D01*
X88475238Y-169913390D02*
X88522857Y-170008628D01*
X88522857Y-170008628D02*
X88570476Y-170056247D01*
X88570476Y-170056247D02*
X88665714Y-170103866D01*
X88665714Y-170103866D02*
X88856190Y-170103866D01*
X88856190Y-170103866D02*
X88951428Y-170056247D01*
X88951428Y-170056247D02*
X88999047Y-170008628D01*
X88999047Y-170008628D02*
X89046666Y-169913390D01*
X68839580Y-169042857D02*
X68887200Y-169090476D01*
X68887200Y-169090476D02*
X68934819Y-169233333D01*
X68934819Y-169233333D02*
X68934819Y-169328571D01*
X68934819Y-169328571D02*
X68887200Y-169471428D01*
X68887200Y-169471428D02*
X68791961Y-169566666D01*
X68791961Y-169566666D02*
X68696723Y-169614285D01*
X68696723Y-169614285D02*
X68506247Y-169661904D01*
X68506247Y-169661904D02*
X68363390Y-169661904D01*
X68363390Y-169661904D02*
X68172914Y-169614285D01*
X68172914Y-169614285D02*
X68077676Y-169566666D01*
X68077676Y-169566666D02*
X67982438Y-169471428D01*
X67982438Y-169471428D02*
X67934819Y-169328571D01*
X67934819Y-169328571D02*
X67934819Y-169233333D01*
X67934819Y-169233333D02*
X67982438Y-169090476D01*
X67982438Y-169090476D02*
X68030057Y-169042857D01*
X68934819Y-168090476D02*
X68934819Y-168661904D01*
X68934819Y-168376190D02*
X67934819Y-168376190D01*
X67934819Y-168376190D02*
X68077676Y-168471428D01*
X68077676Y-168471428D02*
X68172914Y-168566666D01*
X68172914Y-168566666D02*
X68220533Y-168661904D01*
X68934819Y-167614285D02*
X68934819Y-167423809D01*
X68934819Y-167423809D02*
X68887200Y-167328571D01*
X68887200Y-167328571D02*
X68839580Y-167280952D01*
X68839580Y-167280952D02*
X68696723Y-167185714D01*
X68696723Y-167185714D02*
X68506247Y-167138095D01*
X68506247Y-167138095D02*
X68125295Y-167138095D01*
X68125295Y-167138095D02*
X68030057Y-167185714D01*
X68030057Y-167185714D02*
X67982438Y-167233333D01*
X67982438Y-167233333D02*
X67934819Y-167328571D01*
X67934819Y-167328571D02*
X67934819Y-167519047D01*
X67934819Y-167519047D02*
X67982438Y-167614285D01*
X67982438Y-167614285D02*
X68030057Y-167661904D01*
X68030057Y-167661904D02*
X68125295Y-167709523D01*
X68125295Y-167709523D02*
X68363390Y-167709523D01*
X68363390Y-167709523D02*
X68458628Y-167661904D01*
X68458628Y-167661904D02*
X68506247Y-167614285D01*
X68506247Y-167614285D02*
X68553866Y-167519047D01*
X68553866Y-167519047D02*
X68553866Y-167328571D01*
X68553866Y-167328571D02*
X68506247Y-167233333D01*
X68506247Y-167233333D02*
X68458628Y-167185714D01*
X68458628Y-167185714D02*
X68363390Y-167138095D01*
X67739580Y-161042857D02*
X67787200Y-161090476D01*
X67787200Y-161090476D02*
X67834819Y-161233333D01*
X67834819Y-161233333D02*
X67834819Y-161328571D01*
X67834819Y-161328571D02*
X67787200Y-161471428D01*
X67787200Y-161471428D02*
X67691961Y-161566666D01*
X67691961Y-161566666D02*
X67596723Y-161614285D01*
X67596723Y-161614285D02*
X67406247Y-161661904D01*
X67406247Y-161661904D02*
X67263390Y-161661904D01*
X67263390Y-161661904D02*
X67072914Y-161614285D01*
X67072914Y-161614285D02*
X66977676Y-161566666D01*
X66977676Y-161566666D02*
X66882438Y-161471428D01*
X66882438Y-161471428D02*
X66834819Y-161328571D01*
X66834819Y-161328571D02*
X66834819Y-161233333D01*
X66834819Y-161233333D02*
X66882438Y-161090476D01*
X66882438Y-161090476D02*
X66930057Y-161042857D01*
X67834819Y-160090476D02*
X67834819Y-160661904D01*
X67834819Y-160376190D02*
X66834819Y-160376190D01*
X66834819Y-160376190D02*
X66977676Y-160471428D01*
X66977676Y-160471428D02*
X67072914Y-160566666D01*
X67072914Y-160566666D02*
X67120533Y-160661904D01*
X66834819Y-159233333D02*
X66834819Y-159423809D01*
X66834819Y-159423809D02*
X66882438Y-159519047D01*
X66882438Y-159519047D02*
X66930057Y-159566666D01*
X66930057Y-159566666D02*
X67072914Y-159661904D01*
X67072914Y-159661904D02*
X67263390Y-159709523D01*
X67263390Y-159709523D02*
X67644342Y-159709523D01*
X67644342Y-159709523D02*
X67739580Y-159661904D01*
X67739580Y-159661904D02*
X67787200Y-159614285D01*
X67787200Y-159614285D02*
X67834819Y-159519047D01*
X67834819Y-159519047D02*
X67834819Y-159328571D01*
X67834819Y-159328571D02*
X67787200Y-159233333D01*
X67787200Y-159233333D02*
X67739580Y-159185714D01*
X67739580Y-159185714D02*
X67644342Y-159138095D01*
X67644342Y-159138095D02*
X67406247Y-159138095D01*
X67406247Y-159138095D02*
X67311009Y-159185714D01*
X67311009Y-159185714D02*
X67263390Y-159233333D01*
X67263390Y-159233333D02*
X67215771Y-159328571D01*
X67215771Y-159328571D02*
X67215771Y-159519047D01*
X67215771Y-159519047D02*
X67263390Y-159614285D01*
X67263390Y-159614285D02*
X67311009Y-159661904D01*
X67311009Y-159661904D02*
X67406247Y-159709523D01*
X64457142Y-165439580D02*
X64409523Y-165487200D01*
X64409523Y-165487200D02*
X64266666Y-165534819D01*
X64266666Y-165534819D02*
X64171428Y-165534819D01*
X64171428Y-165534819D02*
X64028571Y-165487200D01*
X64028571Y-165487200D02*
X63933333Y-165391961D01*
X63933333Y-165391961D02*
X63885714Y-165296723D01*
X63885714Y-165296723D02*
X63838095Y-165106247D01*
X63838095Y-165106247D02*
X63838095Y-164963390D01*
X63838095Y-164963390D02*
X63885714Y-164772914D01*
X63885714Y-164772914D02*
X63933333Y-164677676D01*
X63933333Y-164677676D02*
X64028571Y-164582438D01*
X64028571Y-164582438D02*
X64171428Y-164534819D01*
X64171428Y-164534819D02*
X64266666Y-164534819D01*
X64266666Y-164534819D02*
X64409523Y-164582438D01*
X64409523Y-164582438D02*
X64457142Y-164630057D01*
X65409523Y-165534819D02*
X64838095Y-165534819D01*
X65123809Y-165534819D02*
X65123809Y-164534819D01*
X65123809Y-164534819D02*
X65028571Y-164677676D01*
X65028571Y-164677676D02*
X64933333Y-164772914D01*
X64933333Y-164772914D02*
X64838095Y-164820533D01*
X66314285Y-164534819D02*
X65838095Y-164534819D01*
X65838095Y-164534819D02*
X65790476Y-165011009D01*
X65790476Y-165011009D02*
X65838095Y-164963390D01*
X65838095Y-164963390D02*
X65933333Y-164915771D01*
X65933333Y-164915771D02*
X66171428Y-164915771D01*
X66171428Y-164915771D02*
X66266666Y-164963390D01*
X66266666Y-164963390D02*
X66314285Y-165011009D01*
X66314285Y-165011009D02*
X66361904Y-165106247D01*
X66361904Y-165106247D02*
X66361904Y-165344342D01*
X66361904Y-165344342D02*
X66314285Y-165439580D01*
X66314285Y-165439580D02*
X66266666Y-165487200D01*
X66266666Y-165487200D02*
X66171428Y-165534819D01*
X66171428Y-165534819D02*
X65933333Y-165534819D01*
X65933333Y-165534819D02*
X65838095Y-165487200D01*
X65838095Y-165487200D02*
X65790476Y-165439580D01*
X80332142Y-175204819D02*
X79998809Y-174728628D01*
X79760714Y-175204819D02*
X79760714Y-174204819D01*
X79760714Y-174204819D02*
X80141666Y-174204819D01*
X80141666Y-174204819D02*
X80236904Y-174252438D01*
X80236904Y-174252438D02*
X80284523Y-174300057D01*
X80284523Y-174300057D02*
X80332142Y-174395295D01*
X80332142Y-174395295D02*
X80332142Y-174538152D01*
X80332142Y-174538152D02*
X80284523Y-174633390D01*
X80284523Y-174633390D02*
X80236904Y-174681009D01*
X80236904Y-174681009D02*
X80141666Y-174728628D01*
X80141666Y-174728628D02*
X79760714Y-174728628D01*
X81284523Y-175204819D02*
X80713095Y-175204819D01*
X80998809Y-175204819D02*
X80998809Y-174204819D01*
X80998809Y-174204819D02*
X80903571Y-174347676D01*
X80903571Y-174347676D02*
X80808333Y-174442914D01*
X80808333Y-174442914D02*
X80713095Y-174490533D01*
X82189285Y-174204819D02*
X81713095Y-174204819D01*
X81713095Y-174204819D02*
X81665476Y-174681009D01*
X81665476Y-174681009D02*
X81713095Y-174633390D01*
X81713095Y-174633390D02*
X81808333Y-174585771D01*
X81808333Y-174585771D02*
X82046428Y-174585771D01*
X82046428Y-174585771D02*
X82141666Y-174633390D01*
X82141666Y-174633390D02*
X82189285Y-174681009D01*
X82189285Y-174681009D02*
X82236904Y-174776247D01*
X82236904Y-174776247D02*
X82236904Y-175014342D01*
X82236904Y-175014342D02*
X82189285Y-175109580D01*
X82189285Y-175109580D02*
X82141666Y-175157200D01*
X82141666Y-175157200D02*
X82046428Y-175204819D01*
X82046428Y-175204819D02*
X81808333Y-175204819D01*
X81808333Y-175204819D02*
X81713095Y-175157200D01*
X81713095Y-175157200D02*
X81665476Y-175109580D01*
X68096666Y-141534819D02*
X68096666Y-142249104D01*
X68096666Y-142249104D02*
X68049047Y-142391961D01*
X68049047Y-142391961D02*
X67953809Y-142487200D01*
X67953809Y-142487200D02*
X67810952Y-142534819D01*
X67810952Y-142534819D02*
X67715714Y-142534819D01*
X68477619Y-141534819D02*
X69144285Y-141534819D01*
X69144285Y-141534819D02*
X68715714Y-142534819D01*
X69259580Y-154580357D02*
X69307200Y-154627976D01*
X69307200Y-154627976D02*
X69354819Y-154770833D01*
X69354819Y-154770833D02*
X69354819Y-154866071D01*
X69354819Y-154866071D02*
X69307200Y-155008928D01*
X69307200Y-155008928D02*
X69211961Y-155104166D01*
X69211961Y-155104166D02*
X69116723Y-155151785D01*
X69116723Y-155151785D02*
X68926247Y-155199404D01*
X68926247Y-155199404D02*
X68783390Y-155199404D01*
X68783390Y-155199404D02*
X68592914Y-155151785D01*
X68592914Y-155151785D02*
X68497676Y-155104166D01*
X68497676Y-155104166D02*
X68402438Y-155008928D01*
X68402438Y-155008928D02*
X68354819Y-154866071D01*
X68354819Y-154866071D02*
X68354819Y-154770833D01*
X68354819Y-154770833D02*
X68402438Y-154627976D01*
X68402438Y-154627976D02*
X68450057Y-154580357D01*
X68450057Y-154199404D02*
X68402438Y-154151785D01*
X68402438Y-154151785D02*
X68354819Y-154056547D01*
X68354819Y-154056547D02*
X68354819Y-153818452D01*
X68354819Y-153818452D02*
X68402438Y-153723214D01*
X68402438Y-153723214D02*
X68450057Y-153675595D01*
X68450057Y-153675595D02*
X68545295Y-153627976D01*
X68545295Y-153627976D02*
X68640533Y-153627976D01*
X68640533Y-153627976D02*
X68783390Y-153675595D01*
X68783390Y-153675595D02*
X69354819Y-154247023D01*
X69354819Y-154247023D02*
X69354819Y-153627976D01*
X68354819Y-153294642D02*
X68354819Y-152627976D01*
X68354819Y-152627976D02*
X69354819Y-153056547D01*
X79914580Y-175866666D02*
X79962200Y-175914285D01*
X79962200Y-175914285D02*
X80009819Y-176057142D01*
X80009819Y-176057142D02*
X80009819Y-176152380D01*
X80009819Y-176152380D02*
X79962200Y-176295237D01*
X79962200Y-176295237D02*
X79866961Y-176390475D01*
X79866961Y-176390475D02*
X79771723Y-176438094D01*
X79771723Y-176438094D02*
X79581247Y-176485713D01*
X79581247Y-176485713D02*
X79438390Y-176485713D01*
X79438390Y-176485713D02*
X79247914Y-176438094D01*
X79247914Y-176438094D02*
X79152676Y-176390475D01*
X79152676Y-176390475D02*
X79057438Y-176295237D01*
X79057438Y-176295237D02*
X79009819Y-176152380D01*
X79009819Y-176152380D02*
X79009819Y-176057142D01*
X79009819Y-176057142D02*
X79057438Y-175914285D01*
X79057438Y-175914285D02*
X79105057Y-175866666D01*
X80009819Y-174914285D02*
X80009819Y-175485713D01*
X80009819Y-175199999D02*
X79009819Y-175199999D01*
X79009819Y-175199999D02*
X79152676Y-175295237D01*
X79152676Y-175295237D02*
X79247914Y-175390475D01*
X79247914Y-175390475D02*
X79295533Y-175485713D01*
X92939819Y-153983333D02*
X93654104Y-153983333D01*
X93654104Y-153983333D02*
X93796961Y-154030952D01*
X93796961Y-154030952D02*
X93892200Y-154126190D01*
X93892200Y-154126190D02*
X93939819Y-154269047D01*
X93939819Y-154269047D02*
X93939819Y-154364285D01*
X93939819Y-152983333D02*
X93939819Y-153554761D01*
X93939819Y-153269047D02*
X92939819Y-153269047D01*
X92939819Y-153269047D02*
X93082676Y-153364285D01*
X93082676Y-153364285D02*
X93177914Y-153459523D01*
X93177914Y-153459523D02*
X93225533Y-153554761D01*
X73604819Y-154242857D02*
X73128628Y-154576190D01*
X73604819Y-154814285D02*
X72604819Y-154814285D01*
X72604819Y-154814285D02*
X72604819Y-154433333D01*
X72604819Y-154433333D02*
X72652438Y-154338095D01*
X72652438Y-154338095D02*
X72700057Y-154290476D01*
X72700057Y-154290476D02*
X72795295Y-154242857D01*
X72795295Y-154242857D02*
X72938152Y-154242857D01*
X72938152Y-154242857D02*
X73033390Y-154290476D01*
X73033390Y-154290476D02*
X73081009Y-154338095D01*
X73081009Y-154338095D02*
X73128628Y-154433333D01*
X73128628Y-154433333D02*
X73128628Y-154814285D01*
X73604819Y-153290476D02*
X73604819Y-153861904D01*
X73604819Y-153576190D02*
X72604819Y-153576190D01*
X72604819Y-153576190D02*
X72747676Y-153671428D01*
X72747676Y-153671428D02*
X72842914Y-153766666D01*
X72842914Y-153766666D02*
X72890533Y-153861904D01*
X72604819Y-152433333D02*
X72604819Y-152623809D01*
X72604819Y-152623809D02*
X72652438Y-152719047D01*
X72652438Y-152719047D02*
X72700057Y-152766666D01*
X72700057Y-152766666D02*
X72842914Y-152861904D01*
X72842914Y-152861904D02*
X73033390Y-152909523D01*
X73033390Y-152909523D02*
X73414342Y-152909523D01*
X73414342Y-152909523D02*
X73509580Y-152861904D01*
X73509580Y-152861904D02*
X73557200Y-152814285D01*
X73557200Y-152814285D02*
X73604819Y-152719047D01*
X73604819Y-152719047D02*
X73604819Y-152528571D01*
X73604819Y-152528571D02*
X73557200Y-152433333D01*
X73557200Y-152433333D02*
X73509580Y-152385714D01*
X73509580Y-152385714D02*
X73414342Y-152338095D01*
X73414342Y-152338095D02*
X73176247Y-152338095D01*
X73176247Y-152338095D02*
X73081009Y-152385714D01*
X73081009Y-152385714D02*
X73033390Y-152433333D01*
X73033390Y-152433333D02*
X72985771Y-152528571D01*
X72985771Y-152528571D02*
X72985771Y-152719047D01*
X72985771Y-152719047D02*
X73033390Y-152814285D01*
X73033390Y-152814285D02*
X73081009Y-152861904D01*
X73081009Y-152861904D02*
X73176247Y-152909523D01*
X64557142Y-164204819D02*
X64223809Y-163728628D01*
X63985714Y-164204819D02*
X63985714Y-163204819D01*
X63985714Y-163204819D02*
X64366666Y-163204819D01*
X64366666Y-163204819D02*
X64461904Y-163252438D01*
X64461904Y-163252438D02*
X64509523Y-163300057D01*
X64509523Y-163300057D02*
X64557142Y-163395295D01*
X64557142Y-163395295D02*
X64557142Y-163538152D01*
X64557142Y-163538152D02*
X64509523Y-163633390D01*
X64509523Y-163633390D02*
X64461904Y-163681009D01*
X64461904Y-163681009D02*
X64366666Y-163728628D01*
X64366666Y-163728628D02*
X63985714Y-163728628D01*
X65509523Y-164204819D02*
X64938095Y-164204819D01*
X65223809Y-164204819D02*
X65223809Y-163204819D01*
X65223809Y-163204819D02*
X65128571Y-163347676D01*
X65128571Y-163347676D02*
X65033333Y-163442914D01*
X65033333Y-163442914D02*
X64938095Y-163490533D01*
X66080952Y-163633390D02*
X65985714Y-163585771D01*
X65985714Y-163585771D02*
X65938095Y-163538152D01*
X65938095Y-163538152D02*
X65890476Y-163442914D01*
X65890476Y-163442914D02*
X65890476Y-163395295D01*
X65890476Y-163395295D02*
X65938095Y-163300057D01*
X65938095Y-163300057D02*
X65985714Y-163252438D01*
X65985714Y-163252438D02*
X66080952Y-163204819D01*
X66080952Y-163204819D02*
X66271428Y-163204819D01*
X66271428Y-163204819D02*
X66366666Y-163252438D01*
X66366666Y-163252438D02*
X66414285Y-163300057D01*
X66414285Y-163300057D02*
X66461904Y-163395295D01*
X66461904Y-163395295D02*
X66461904Y-163442914D01*
X66461904Y-163442914D02*
X66414285Y-163538152D01*
X66414285Y-163538152D02*
X66366666Y-163585771D01*
X66366666Y-163585771D02*
X66271428Y-163633390D01*
X66271428Y-163633390D02*
X66080952Y-163633390D01*
X66080952Y-163633390D02*
X65985714Y-163681009D01*
X65985714Y-163681009D02*
X65938095Y-163728628D01*
X65938095Y-163728628D02*
X65890476Y-163823866D01*
X65890476Y-163823866D02*
X65890476Y-164014342D01*
X65890476Y-164014342D02*
X65938095Y-164109580D01*
X65938095Y-164109580D02*
X65985714Y-164157200D01*
X65985714Y-164157200D02*
X66080952Y-164204819D01*
X66080952Y-164204819D02*
X66271428Y-164204819D01*
X66271428Y-164204819D02*
X66366666Y-164157200D01*
X66366666Y-164157200D02*
X66414285Y-164109580D01*
X66414285Y-164109580D02*
X66461904Y-164014342D01*
X66461904Y-164014342D02*
X66461904Y-163823866D01*
X66461904Y-163823866D02*
X66414285Y-163728628D01*
X66414285Y-163728628D02*
X66366666Y-163681009D01*
X66366666Y-163681009D02*
X66271428Y-163633390D01*
X68794642Y-159889580D02*
X68747023Y-159937200D01*
X68747023Y-159937200D02*
X68604166Y-159984819D01*
X68604166Y-159984819D02*
X68508928Y-159984819D01*
X68508928Y-159984819D02*
X68366071Y-159937200D01*
X68366071Y-159937200D02*
X68270833Y-159841961D01*
X68270833Y-159841961D02*
X68223214Y-159746723D01*
X68223214Y-159746723D02*
X68175595Y-159556247D01*
X68175595Y-159556247D02*
X68175595Y-159413390D01*
X68175595Y-159413390D02*
X68223214Y-159222914D01*
X68223214Y-159222914D02*
X68270833Y-159127676D01*
X68270833Y-159127676D02*
X68366071Y-159032438D01*
X68366071Y-159032438D02*
X68508928Y-158984819D01*
X68508928Y-158984819D02*
X68604166Y-158984819D01*
X68604166Y-158984819D02*
X68747023Y-159032438D01*
X68747023Y-159032438D02*
X68794642Y-159080057D01*
X69175595Y-159080057D02*
X69223214Y-159032438D01*
X69223214Y-159032438D02*
X69318452Y-158984819D01*
X69318452Y-158984819D02*
X69556547Y-158984819D01*
X69556547Y-158984819D02*
X69651785Y-159032438D01*
X69651785Y-159032438D02*
X69699404Y-159080057D01*
X69699404Y-159080057D02*
X69747023Y-159175295D01*
X69747023Y-159175295D02*
X69747023Y-159270533D01*
X69747023Y-159270533D02*
X69699404Y-159413390D01*
X69699404Y-159413390D02*
X69127976Y-159984819D01*
X69127976Y-159984819D02*
X69747023Y-159984819D01*
X70604166Y-158984819D02*
X70413690Y-158984819D01*
X70413690Y-158984819D02*
X70318452Y-159032438D01*
X70318452Y-159032438D02*
X70270833Y-159080057D01*
X70270833Y-159080057D02*
X70175595Y-159222914D01*
X70175595Y-159222914D02*
X70127976Y-159413390D01*
X70127976Y-159413390D02*
X70127976Y-159794342D01*
X70127976Y-159794342D02*
X70175595Y-159889580D01*
X70175595Y-159889580D02*
X70223214Y-159937200D01*
X70223214Y-159937200D02*
X70318452Y-159984819D01*
X70318452Y-159984819D02*
X70508928Y-159984819D01*
X70508928Y-159984819D02*
X70604166Y-159937200D01*
X70604166Y-159937200D02*
X70651785Y-159889580D01*
X70651785Y-159889580D02*
X70699404Y-159794342D01*
X70699404Y-159794342D02*
X70699404Y-159556247D01*
X70699404Y-159556247D02*
X70651785Y-159461009D01*
X70651785Y-159461009D02*
X70604166Y-159413390D01*
X70604166Y-159413390D02*
X70508928Y-159365771D01*
X70508928Y-159365771D02*
X70318452Y-159365771D01*
X70318452Y-159365771D02*
X70223214Y-159413390D01*
X70223214Y-159413390D02*
X70175595Y-159461009D01*
X70175595Y-159461009D02*
X70127976Y-159556247D01*
X88630595Y-164324819D02*
X88630595Y-165134342D01*
X88630595Y-165134342D02*
X88678214Y-165229580D01*
X88678214Y-165229580D02*
X88725833Y-165277200D01*
X88725833Y-165277200D02*
X88821071Y-165324819D01*
X88821071Y-165324819D02*
X89011547Y-165324819D01*
X89011547Y-165324819D02*
X89106785Y-165277200D01*
X89106785Y-165277200D02*
X89154404Y-165229580D01*
X89154404Y-165229580D02*
X89202023Y-165134342D01*
X89202023Y-165134342D02*
X89202023Y-164324819D01*
X90106785Y-164658152D02*
X90106785Y-165324819D01*
X89868690Y-164277200D02*
X89630595Y-164991485D01*
X89630595Y-164991485D02*
X90249642Y-164991485D01*
X66515047Y-163031514D02*
X66515047Y-163406467D01*
X66252579Y-162619065D02*
X66515047Y-163031514D01*
X66515047Y-163031514D02*
X66777514Y-162619065D01*
X67452430Y-163406467D02*
X67002486Y-163406467D01*
X67227458Y-163406467D02*
X67227458Y-162619065D01*
X67227458Y-162619065D02*
X67152467Y-162731551D01*
X67152467Y-162731551D02*
X67077477Y-162806542D01*
X67077477Y-162806542D02*
X67002486Y-162844037D01*
X72029819Y-175166666D02*
X71553628Y-175499999D01*
X72029819Y-175738094D02*
X71029819Y-175738094D01*
X71029819Y-175738094D02*
X71029819Y-175357142D01*
X71029819Y-175357142D02*
X71077438Y-175261904D01*
X71077438Y-175261904D02*
X71125057Y-175214285D01*
X71125057Y-175214285D02*
X71220295Y-175166666D01*
X71220295Y-175166666D02*
X71363152Y-175166666D01*
X71363152Y-175166666D02*
X71458390Y-175214285D01*
X71458390Y-175214285D02*
X71506009Y-175261904D01*
X71506009Y-175261904D02*
X71553628Y-175357142D01*
X71553628Y-175357142D02*
X71553628Y-175738094D01*
X72029819Y-174214285D02*
X72029819Y-174785713D01*
X72029819Y-174499999D02*
X71029819Y-174499999D01*
X71029819Y-174499999D02*
X71172676Y-174595237D01*
X71172676Y-174595237D02*
X71267914Y-174690475D01*
X71267914Y-174690475D02*
X71315533Y-174785713D01*
X82384580Y-173217857D02*
X82432200Y-173265476D01*
X82432200Y-173265476D02*
X82479819Y-173408333D01*
X82479819Y-173408333D02*
X82479819Y-173503571D01*
X82479819Y-173503571D02*
X82432200Y-173646428D01*
X82432200Y-173646428D02*
X82336961Y-173741666D01*
X82336961Y-173741666D02*
X82241723Y-173789285D01*
X82241723Y-173789285D02*
X82051247Y-173836904D01*
X82051247Y-173836904D02*
X81908390Y-173836904D01*
X81908390Y-173836904D02*
X81717914Y-173789285D01*
X81717914Y-173789285D02*
X81622676Y-173741666D01*
X81622676Y-173741666D02*
X81527438Y-173646428D01*
X81527438Y-173646428D02*
X81479819Y-173503571D01*
X81479819Y-173503571D02*
X81479819Y-173408333D01*
X81479819Y-173408333D02*
X81527438Y-173265476D01*
X81527438Y-173265476D02*
X81575057Y-173217857D01*
X82479819Y-172265476D02*
X82479819Y-172836904D01*
X82479819Y-172551190D02*
X81479819Y-172551190D01*
X81479819Y-172551190D02*
X81622676Y-172646428D01*
X81622676Y-172646428D02*
X81717914Y-172741666D01*
X81717914Y-172741666D02*
X81765533Y-172836904D01*
X81479819Y-171932142D02*
X81479819Y-171265476D01*
X81479819Y-171265476D02*
X82479819Y-171694047D01*
X85986819Y-167006904D02*
X85986819Y-166435476D01*
X86986819Y-166721190D02*
X85986819Y-166721190D01*
X86986819Y-166102142D02*
X85986819Y-166102142D01*
X85986819Y-166102142D02*
X85986819Y-165721190D01*
X85986819Y-165721190D02*
X86034438Y-165625952D01*
X86034438Y-165625952D02*
X86082057Y-165578333D01*
X86082057Y-165578333D02*
X86177295Y-165530714D01*
X86177295Y-165530714D02*
X86320152Y-165530714D01*
X86320152Y-165530714D02*
X86415390Y-165578333D01*
X86415390Y-165578333D02*
X86463009Y-165625952D01*
X86463009Y-165625952D02*
X86510628Y-165721190D01*
X86510628Y-165721190D02*
X86510628Y-166102142D01*
X85986819Y-164673571D02*
X85986819Y-164864047D01*
X85986819Y-164864047D02*
X86034438Y-164959285D01*
X86034438Y-164959285D02*
X86082057Y-165006904D01*
X86082057Y-165006904D02*
X86224914Y-165102142D01*
X86224914Y-165102142D02*
X86415390Y-165149761D01*
X86415390Y-165149761D02*
X86796342Y-165149761D01*
X86796342Y-165149761D02*
X86891580Y-165102142D01*
X86891580Y-165102142D02*
X86939200Y-165054523D01*
X86939200Y-165054523D02*
X86986819Y-164959285D01*
X86986819Y-164959285D02*
X86986819Y-164768809D01*
X86986819Y-164768809D02*
X86939200Y-164673571D01*
X86939200Y-164673571D02*
X86891580Y-164625952D01*
X86891580Y-164625952D02*
X86796342Y-164578333D01*
X86796342Y-164578333D02*
X86558247Y-164578333D01*
X86558247Y-164578333D02*
X86463009Y-164625952D01*
X86463009Y-164625952D02*
X86415390Y-164673571D01*
X86415390Y-164673571D02*
X86367771Y-164768809D01*
X86367771Y-164768809D02*
X86367771Y-164959285D01*
X86367771Y-164959285D02*
X86415390Y-165054523D01*
X86415390Y-165054523D02*
X86463009Y-165102142D01*
X86463009Y-165102142D02*
X86558247Y-165149761D01*
X88466666Y-142954819D02*
X88466666Y-143669104D01*
X88466666Y-143669104D02*
X88419047Y-143811961D01*
X88419047Y-143811961D02*
X88323809Y-143907200D01*
X88323809Y-143907200D02*
X88180952Y-143954819D01*
X88180952Y-143954819D02*
X88085714Y-143954819D01*
X88847619Y-142954819D02*
X89466666Y-142954819D01*
X89466666Y-142954819D02*
X89133333Y-143335771D01*
X89133333Y-143335771D02*
X89276190Y-143335771D01*
X89276190Y-143335771D02*
X89371428Y-143383390D01*
X89371428Y-143383390D02*
X89419047Y-143431009D01*
X89419047Y-143431009D02*
X89466666Y-143526247D01*
X89466666Y-143526247D02*
X89466666Y-143764342D01*
X89466666Y-143764342D02*
X89419047Y-143859580D01*
X89419047Y-143859580D02*
X89371428Y-143907200D01*
X89371428Y-143907200D02*
X89276190Y-143954819D01*
X89276190Y-143954819D02*
X88990476Y-143954819D01*
X88990476Y-143954819D02*
X88895238Y-143907200D01*
X88895238Y-143907200D02*
X88847619Y-143859580D01*
X95066905Y-162419819D02*
X95066905Y-161419819D01*
X95066905Y-161419819D02*
X95305000Y-161419819D01*
X95305000Y-161419819D02*
X95447857Y-161467438D01*
X95447857Y-161467438D02*
X95543095Y-161562676D01*
X95543095Y-161562676D02*
X95590714Y-161657914D01*
X95590714Y-161657914D02*
X95638333Y-161848390D01*
X95638333Y-161848390D02*
X95638333Y-161991247D01*
X95638333Y-161991247D02*
X95590714Y-162181723D01*
X95590714Y-162181723D02*
X95543095Y-162276961D01*
X95543095Y-162276961D02*
X95447857Y-162372200D01*
X95447857Y-162372200D02*
X95305000Y-162419819D01*
X95305000Y-162419819D02*
X95066905Y-162419819D01*
X96019286Y-161515057D02*
X96066905Y-161467438D01*
X96066905Y-161467438D02*
X96162143Y-161419819D01*
X96162143Y-161419819D02*
X96400238Y-161419819D01*
X96400238Y-161419819D02*
X96495476Y-161467438D01*
X96495476Y-161467438D02*
X96543095Y-161515057D01*
X96543095Y-161515057D02*
X96590714Y-161610295D01*
X96590714Y-161610295D02*
X96590714Y-161705533D01*
X96590714Y-161705533D02*
X96543095Y-161848390D01*
X96543095Y-161848390D02*
X95971667Y-162419819D01*
X95971667Y-162419819D02*
X96590714Y-162419819D01*
X68099819Y-172617857D02*
X67623628Y-172951190D01*
X68099819Y-173189285D02*
X67099819Y-173189285D01*
X67099819Y-173189285D02*
X67099819Y-172808333D01*
X67099819Y-172808333D02*
X67147438Y-172713095D01*
X67147438Y-172713095D02*
X67195057Y-172665476D01*
X67195057Y-172665476D02*
X67290295Y-172617857D01*
X67290295Y-172617857D02*
X67433152Y-172617857D01*
X67433152Y-172617857D02*
X67528390Y-172665476D01*
X67528390Y-172665476D02*
X67576009Y-172713095D01*
X67576009Y-172713095D02*
X67623628Y-172808333D01*
X67623628Y-172808333D02*
X67623628Y-173189285D01*
X67195057Y-172236904D02*
X67147438Y-172189285D01*
X67147438Y-172189285D02*
X67099819Y-172094047D01*
X67099819Y-172094047D02*
X67099819Y-171855952D01*
X67099819Y-171855952D02*
X67147438Y-171760714D01*
X67147438Y-171760714D02*
X67195057Y-171713095D01*
X67195057Y-171713095D02*
X67290295Y-171665476D01*
X67290295Y-171665476D02*
X67385533Y-171665476D01*
X67385533Y-171665476D02*
X67528390Y-171713095D01*
X67528390Y-171713095D02*
X68099819Y-172284523D01*
X68099819Y-172284523D02*
X68099819Y-171665476D01*
X67099819Y-171046428D02*
X67099819Y-170951190D01*
X67099819Y-170951190D02*
X67147438Y-170855952D01*
X67147438Y-170855952D02*
X67195057Y-170808333D01*
X67195057Y-170808333D02*
X67290295Y-170760714D01*
X67290295Y-170760714D02*
X67480771Y-170713095D01*
X67480771Y-170713095D02*
X67718866Y-170713095D01*
X67718866Y-170713095D02*
X67909342Y-170760714D01*
X67909342Y-170760714D02*
X68004580Y-170808333D01*
X68004580Y-170808333D02*
X68052200Y-170855952D01*
X68052200Y-170855952D02*
X68099819Y-170951190D01*
X68099819Y-170951190D02*
X68099819Y-171046428D01*
X68099819Y-171046428D02*
X68052200Y-171141666D01*
X68052200Y-171141666D02*
X68004580Y-171189285D01*
X68004580Y-171189285D02*
X67909342Y-171236904D01*
X67909342Y-171236904D02*
X67718866Y-171284523D01*
X67718866Y-171284523D02*
X67480771Y-171284523D01*
X67480771Y-171284523D02*
X67290295Y-171236904D01*
X67290295Y-171236904D02*
X67195057Y-171189285D01*
X67195057Y-171189285D02*
X67147438Y-171141666D01*
X67147438Y-171141666D02*
X67099819Y-171046428D01*
X70289580Y-164642857D02*
X70337200Y-164690476D01*
X70337200Y-164690476D02*
X70384819Y-164833333D01*
X70384819Y-164833333D02*
X70384819Y-164928571D01*
X70384819Y-164928571D02*
X70337200Y-165071428D01*
X70337200Y-165071428D02*
X70241961Y-165166666D01*
X70241961Y-165166666D02*
X70146723Y-165214285D01*
X70146723Y-165214285D02*
X69956247Y-165261904D01*
X69956247Y-165261904D02*
X69813390Y-165261904D01*
X69813390Y-165261904D02*
X69622914Y-165214285D01*
X69622914Y-165214285D02*
X69527676Y-165166666D01*
X69527676Y-165166666D02*
X69432438Y-165071428D01*
X69432438Y-165071428D02*
X69384819Y-164928571D01*
X69384819Y-164928571D02*
X69384819Y-164833333D01*
X69384819Y-164833333D02*
X69432438Y-164690476D01*
X69432438Y-164690476D02*
X69480057Y-164642857D01*
X69480057Y-164261904D02*
X69432438Y-164214285D01*
X69432438Y-164214285D02*
X69384819Y-164119047D01*
X69384819Y-164119047D02*
X69384819Y-163880952D01*
X69384819Y-163880952D02*
X69432438Y-163785714D01*
X69432438Y-163785714D02*
X69480057Y-163738095D01*
X69480057Y-163738095D02*
X69575295Y-163690476D01*
X69575295Y-163690476D02*
X69670533Y-163690476D01*
X69670533Y-163690476D02*
X69813390Y-163738095D01*
X69813390Y-163738095D02*
X70384819Y-164309523D01*
X70384819Y-164309523D02*
X70384819Y-163690476D01*
X69384819Y-163357142D02*
X69384819Y-162738095D01*
X69384819Y-162738095D02*
X69765771Y-163071428D01*
X69765771Y-163071428D02*
X69765771Y-162928571D01*
X69765771Y-162928571D02*
X69813390Y-162833333D01*
X69813390Y-162833333D02*
X69861009Y-162785714D01*
X69861009Y-162785714D02*
X69956247Y-162738095D01*
X69956247Y-162738095D02*
X70194342Y-162738095D01*
X70194342Y-162738095D02*
X70289580Y-162785714D01*
X70289580Y-162785714D02*
X70337200Y-162833333D01*
X70337200Y-162833333D02*
X70384819Y-162928571D01*
X70384819Y-162928571D02*
X70384819Y-163214285D01*
X70384819Y-163214285D02*
X70337200Y-163309523D01*
X70337200Y-163309523D02*
X70289580Y-163357142D01*
X74304819Y-175166666D02*
X73828628Y-175499999D01*
X74304819Y-175738094D02*
X73304819Y-175738094D01*
X73304819Y-175738094D02*
X73304819Y-175357142D01*
X73304819Y-175357142D02*
X73352438Y-175261904D01*
X73352438Y-175261904D02*
X73400057Y-175214285D01*
X73400057Y-175214285D02*
X73495295Y-175166666D01*
X73495295Y-175166666D02*
X73638152Y-175166666D01*
X73638152Y-175166666D02*
X73733390Y-175214285D01*
X73733390Y-175214285D02*
X73781009Y-175261904D01*
X73781009Y-175261904D02*
X73828628Y-175357142D01*
X73828628Y-175357142D02*
X73828628Y-175738094D01*
X73400057Y-174785713D02*
X73352438Y-174738094D01*
X73352438Y-174738094D02*
X73304819Y-174642856D01*
X73304819Y-174642856D02*
X73304819Y-174404761D01*
X73304819Y-174404761D02*
X73352438Y-174309523D01*
X73352438Y-174309523D02*
X73400057Y-174261904D01*
X73400057Y-174261904D02*
X73495295Y-174214285D01*
X73495295Y-174214285D02*
X73590533Y-174214285D01*
X73590533Y-174214285D02*
X73733390Y-174261904D01*
X73733390Y-174261904D02*
X74304819Y-174833332D01*
X74304819Y-174833332D02*
X74304819Y-174214285D01*
X69999819Y-172642857D02*
X69523628Y-172976190D01*
X69999819Y-173214285D02*
X68999819Y-173214285D01*
X68999819Y-173214285D02*
X68999819Y-172833333D01*
X68999819Y-172833333D02*
X69047438Y-172738095D01*
X69047438Y-172738095D02*
X69095057Y-172690476D01*
X69095057Y-172690476D02*
X69190295Y-172642857D01*
X69190295Y-172642857D02*
X69333152Y-172642857D01*
X69333152Y-172642857D02*
X69428390Y-172690476D01*
X69428390Y-172690476D02*
X69476009Y-172738095D01*
X69476009Y-172738095D02*
X69523628Y-172833333D01*
X69523628Y-172833333D02*
X69523628Y-173214285D01*
X69095057Y-172261904D02*
X69047438Y-172214285D01*
X69047438Y-172214285D02*
X68999819Y-172119047D01*
X68999819Y-172119047D02*
X68999819Y-171880952D01*
X68999819Y-171880952D02*
X69047438Y-171785714D01*
X69047438Y-171785714D02*
X69095057Y-171738095D01*
X69095057Y-171738095D02*
X69190295Y-171690476D01*
X69190295Y-171690476D02*
X69285533Y-171690476D01*
X69285533Y-171690476D02*
X69428390Y-171738095D01*
X69428390Y-171738095D02*
X69999819Y-172309523D01*
X69999819Y-172309523D02*
X69999819Y-171690476D01*
X69999819Y-170738095D02*
X69999819Y-171309523D01*
X69999819Y-171023809D02*
X68999819Y-171023809D01*
X68999819Y-171023809D02*
X69142676Y-171119047D01*
X69142676Y-171119047D02*
X69237914Y-171214285D01*
X69237914Y-171214285D02*
X69285533Y-171309523D01*
X77854819Y-154042857D02*
X77378628Y-154376190D01*
X77854819Y-154614285D02*
X76854819Y-154614285D01*
X76854819Y-154614285D02*
X76854819Y-154233333D01*
X76854819Y-154233333D02*
X76902438Y-154138095D01*
X76902438Y-154138095D02*
X76950057Y-154090476D01*
X76950057Y-154090476D02*
X77045295Y-154042857D01*
X77045295Y-154042857D02*
X77188152Y-154042857D01*
X77188152Y-154042857D02*
X77283390Y-154090476D01*
X77283390Y-154090476D02*
X77331009Y-154138095D01*
X77331009Y-154138095D02*
X77378628Y-154233333D01*
X77378628Y-154233333D02*
X77378628Y-154614285D01*
X77854819Y-153090476D02*
X77854819Y-153661904D01*
X77854819Y-153376190D02*
X76854819Y-153376190D01*
X76854819Y-153376190D02*
X76997676Y-153471428D01*
X76997676Y-153471428D02*
X77092914Y-153566666D01*
X77092914Y-153566666D02*
X77140533Y-153661904D01*
X77188152Y-152233333D02*
X77854819Y-152233333D01*
X76807200Y-152471428D02*
X77521485Y-152709523D01*
X77521485Y-152709523D02*
X77521485Y-152090476D01*
X96694819Y-167583333D02*
X97409104Y-167583333D01*
X97409104Y-167583333D02*
X97551961Y-167630952D01*
X97551961Y-167630952D02*
X97647200Y-167726190D01*
X97647200Y-167726190D02*
X97694819Y-167869047D01*
X97694819Y-167869047D02*
X97694819Y-167964285D01*
X97028152Y-166678571D02*
X97694819Y-166678571D01*
X96647200Y-166916666D02*
X97361485Y-167154761D01*
X97361485Y-167154761D02*
X97361485Y-166535714D01*
X93363095Y-149931819D02*
X93934523Y-149931819D01*
X93648809Y-150931819D02*
X93648809Y-149931819D01*
X94267857Y-150931819D02*
X94267857Y-149931819D01*
X94267857Y-149931819D02*
X94648809Y-149931819D01*
X94648809Y-149931819D02*
X94744047Y-149979438D01*
X94744047Y-149979438D02*
X94791666Y-150027057D01*
X94791666Y-150027057D02*
X94839285Y-150122295D01*
X94839285Y-150122295D02*
X94839285Y-150265152D01*
X94839285Y-150265152D02*
X94791666Y-150360390D01*
X94791666Y-150360390D02*
X94744047Y-150408009D01*
X94744047Y-150408009D02*
X94648809Y-150455628D01*
X94648809Y-150455628D02*
X94267857Y-150455628D01*
X95791666Y-150931819D02*
X95220238Y-150931819D01*
X95505952Y-150931819D02*
X95505952Y-149931819D01*
X95505952Y-149931819D02*
X95410714Y-150074676D01*
X95410714Y-150074676D02*
X95315476Y-150169914D01*
X95315476Y-150169914D02*
X95220238Y-150217533D01*
X93363095Y-153056819D02*
X93934523Y-153056819D01*
X93648809Y-154056819D02*
X93648809Y-153056819D01*
X94267857Y-154056819D02*
X94267857Y-153056819D01*
X94267857Y-153056819D02*
X94648809Y-153056819D01*
X94648809Y-153056819D02*
X94744047Y-153104438D01*
X94744047Y-153104438D02*
X94791666Y-153152057D01*
X94791666Y-153152057D02*
X94839285Y-153247295D01*
X94839285Y-153247295D02*
X94839285Y-153390152D01*
X94839285Y-153390152D02*
X94791666Y-153485390D01*
X94791666Y-153485390D02*
X94744047Y-153533009D01*
X94744047Y-153533009D02*
X94648809Y-153580628D01*
X94648809Y-153580628D02*
X94267857Y-153580628D01*
X95220238Y-153152057D02*
X95267857Y-153104438D01*
X95267857Y-153104438D02*
X95363095Y-153056819D01*
X95363095Y-153056819D02*
X95601190Y-153056819D01*
X95601190Y-153056819D02*
X95696428Y-153104438D01*
X95696428Y-153104438D02*
X95744047Y-153152057D01*
X95744047Y-153152057D02*
X95791666Y-153247295D01*
X95791666Y-153247295D02*
X95791666Y-153342533D01*
X95791666Y-153342533D02*
X95744047Y-153485390D01*
X95744047Y-153485390D02*
X95172619Y-154056819D01*
X95172619Y-154056819D02*
X95791666Y-154056819D01*
X73809819Y-181003333D02*
X74524104Y-181003333D01*
X74524104Y-181003333D02*
X74666961Y-181050952D01*
X74666961Y-181050952D02*
X74762200Y-181146190D01*
X74762200Y-181146190D02*
X74809819Y-181289047D01*
X74809819Y-181289047D02*
X74809819Y-181384285D01*
X74238390Y-180384285D02*
X74190771Y-180479523D01*
X74190771Y-180479523D02*
X74143152Y-180527142D01*
X74143152Y-180527142D02*
X74047914Y-180574761D01*
X74047914Y-180574761D02*
X74000295Y-180574761D01*
X74000295Y-180574761D02*
X73905057Y-180527142D01*
X73905057Y-180527142D02*
X73857438Y-180479523D01*
X73857438Y-180479523D02*
X73809819Y-180384285D01*
X73809819Y-180384285D02*
X73809819Y-180193809D01*
X73809819Y-180193809D02*
X73857438Y-180098571D01*
X73857438Y-180098571D02*
X73905057Y-180050952D01*
X73905057Y-180050952D02*
X74000295Y-180003333D01*
X74000295Y-180003333D02*
X74047914Y-180003333D01*
X74047914Y-180003333D02*
X74143152Y-180050952D01*
X74143152Y-180050952D02*
X74190771Y-180098571D01*
X74190771Y-180098571D02*
X74238390Y-180193809D01*
X74238390Y-180193809D02*
X74238390Y-180384285D01*
X74238390Y-180384285D02*
X74286009Y-180479523D01*
X74286009Y-180479523D02*
X74333628Y-180527142D01*
X74333628Y-180527142D02*
X74428866Y-180574761D01*
X74428866Y-180574761D02*
X74619342Y-180574761D01*
X74619342Y-180574761D02*
X74714580Y-180527142D01*
X74714580Y-180527142D02*
X74762200Y-180479523D01*
X74762200Y-180479523D02*
X74809819Y-180384285D01*
X74809819Y-180384285D02*
X74809819Y-180193809D01*
X74809819Y-180193809D02*
X74762200Y-180098571D01*
X74762200Y-180098571D02*
X74714580Y-180050952D01*
X74714580Y-180050952D02*
X74619342Y-180003333D01*
X74619342Y-180003333D02*
X74428866Y-180003333D01*
X74428866Y-180003333D02*
X74333628Y-180050952D01*
X74333628Y-180050952D02*
X74286009Y-180098571D01*
X74286009Y-180098571D02*
X74238390Y-180193809D01*
X71929580Y-151342857D02*
X71977200Y-151390476D01*
X71977200Y-151390476D02*
X72024819Y-151533333D01*
X72024819Y-151533333D02*
X72024819Y-151628571D01*
X72024819Y-151628571D02*
X71977200Y-151771428D01*
X71977200Y-151771428D02*
X71881961Y-151866666D01*
X71881961Y-151866666D02*
X71786723Y-151914285D01*
X71786723Y-151914285D02*
X71596247Y-151961904D01*
X71596247Y-151961904D02*
X71453390Y-151961904D01*
X71453390Y-151961904D02*
X71262914Y-151914285D01*
X71262914Y-151914285D02*
X71167676Y-151866666D01*
X71167676Y-151866666D02*
X71072438Y-151771428D01*
X71072438Y-151771428D02*
X71024819Y-151628571D01*
X71024819Y-151628571D02*
X71024819Y-151533333D01*
X71024819Y-151533333D02*
X71072438Y-151390476D01*
X71072438Y-151390476D02*
X71120057Y-151342857D01*
X71120057Y-150961904D02*
X71072438Y-150914285D01*
X71072438Y-150914285D02*
X71024819Y-150819047D01*
X71024819Y-150819047D02*
X71024819Y-150580952D01*
X71024819Y-150580952D02*
X71072438Y-150485714D01*
X71072438Y-150485714D02*
X71120057Y-150438095D01*
X71120057Y-150438095D02*
X71215295Y-150390476D01*
X71215295Y-150390476D02*
X71310533Y-150390476D01*
X71310533Y-150390476D02*
X71453390Y-150438095D01*
X71453390Y-150438095D02*
X72024819Y-151009523D01*
X72024819Y-151009523D02*
X72024819Y-150390476D01*
X71358152Y-149533333D02*
X72024819Y-149533333D01*
X70977200Y-149771428D02*
X71691485Y-150009523D01*
X71691485Y-150009523D02*
X71691485Y-149390476D01*
X75988095Y-155379819D02*
X75988095Y-156189342D01*
X75988095Y-156189342D02*
X76035714Y-156284580D01*
X76035714Y-156284580D02*
X76083333Y-156332200D01*
X76083333Y-156332200D02*
X76178571Y-156379819D01*
X76178571Y-156379819D02*
X76369047Y-156379819D01*
X76369047Y-156379819D02*
X76464285Y-156332200D01*
X76464285Y-156332200D02*
X76511904Y-156284580D01*
X76511904Y-156284580D02*
X76559523Y-156189342D01*
X76559523Y-156189342D02*
X76559523Y-155379819D01*
X76988095Y-155475057D02*
X77035714Y-155427438D01*
X77035714Y-155427438D02*
X77130952Y-155379819D01*
X77130952Y-155379819D02*
X77369047Y-155379819D01*
X77369047Y-155379819D02*
X77464285Y-155427438D01*
X77464285Y-155427438D02*
X77511904Y-155475057D01*
X77511904Y-155475057D02*
X77559523Y-155570295D01*
X77559523Y-155570295D02*
X77559523Y-155665533D01*
X77559523Y-155665533D02*
X77511904Y-155808390D01*
X77511904Y-155808390D02*
X76940476Y-156379819D01*
X76940476Y-156379819D02*
X77559523Y-156379819D01*
X76024819Y-153730357D02*
X75548628Y-154063690D01*
X76024819Y-154301785D02*
X75024819Y-154301785D01*
X75024819Y-154301785D02*
X75024819Y-153920833D01*
X75024819Y-153920833D02*
X75072438Y-153825595D01*
X75072438Y-153825595D02*
X75120057Y-153777976D01*
X75120057Y-153777976D02*
X75215295Y-153730357D01*
X75215295Y-153730357D02*
X75358152Y-153730357D01*
X75358152Y-153730357D02*
X75453390Y-153777976D01*
X75453390Y-153777976D02*
X75501009Y-153825595D01*
X75501009Y-153825595D02*
X75548628Y-153920833D01*
X75548628Y-153920833D02*
X75548628Y-154301785D01*
X76024819Y-152777976D02*
X76024819Y-153349404D01*
X76024819Y-153063690D02*
X75024819Y-153063690D01*
X75024819Y-153063690D02*
X75167676Y-153158928D01*
X75167676Y-153158928D02*
X75262914Y-153254166D01*
X75262914Y-153254166D02*
X75310533Y-153349404D01*
X75024819Y-152444642D02*
X75024819Y-151777976D01*
X75024819Y-151777976D02*
X76024819Y-152206547D01*
X70939580Y-168642857D02*
X70987200Y-168690476D01*
X70987200Y-168690476D02*
X71034819Y-168833333D01*
X71034819Y-168833333D02*
X71034819Y-168928571D01*
X71034819Y-168928571D02*
X70987200Y-169071428D01*
X70987200Y-169071428D02*
X70891961Y-169166666D01*
X70891961Y-169166666D02*
X70796723Y-169214285D01*
X70796723Y-169214285D02*
X70606247Y-169261904D01*
X70606247Y-169261904D02*
X70463390Y-169261904D01*
X70463390Y-169261904D02*
X70272914Y-169214285D01*
X70272914Y-169214285D02*
X70177676Y-169166666D01*
X70177676Y-169166666D02*
X70082438Y-169071428D01*
X70082438Y-169071428D02*
X70034819Y-168928571D01*
X70034819Y-168928571D02*
X70034819Y-168833333D01*
X70034819Y-168833333D02*
X70082438Y-168690476D01*
X70082438Y-168690476D02*
X70130057Y-168642857D01*
X71034819Y-167690476D02*
X71034819Y-168261904D01*
X71034819Y-167976190D02*
X70034819Y-167976190D01*
X70034819Y-167976190D02*
X70177676Y-168071428D01*
X70177676Y-168071428D02*
X70272914Y-168166666D01*
X70272914Y-168166666D02*
X70320533Y-168261904D01*
X70463390Y-167119047D02*
X70415771Y-167214285D01*
X70415771Y-167214285D02*
X70368152Y-167261904D01*
X70368152Y-167261904D02*
X70272914Y-167309523D01*
X70272914Y-167309523D02*
X70225295Y-167309523D01*
X70225295Y-167309523D02*
X70130057Y-167261904D01*
X70130057Y-167261904D02*
X70082438Y-167214285D01*
X70082438Y-167214285D02*
X70034819Y-167119047D01*
X70034819Y-167119047D02*
X70034819Y-166928571D01*
X70034819Y-166928571D02*
X70082438Y-166833333D01*
X70082438Y-166833333D02*
X70130057Y-166785714D01*
X70130057Y-166785714D02*
X70225295Y-166738095D01*
X70225295Y-166738095D02*
X70272914Y-166738095D01*
X70272914Y-166738095D02*
X70368152Y-166785714D01*
X70368152Y-166785714D02*
X70415771Y-166833333D01*
X70415771Y-166833333D02*
X70463390Y-166928571D01*
X70463390Y-166928571D02*
X70463390Y-167119047D01*
X70463390Y-167119047D02*
X70511009Y-167214285D01*
X70511009Y-167214285D02*
X70558628Y-167261904D01*
X70558628Y-167261904D02*
X70653866Y-167309523D01*
X70653866Y-167309523D02*
X70844342Y-167309523D01*
X70844342Y-167309523D02*
X70939580Y-167261904D01*
X70939580Y-167261904D02*
X70987200Y-167214285D01*
X70987200Y-167214285D02*
X71034819Y-167119047D01*
X71034819Y-167119047D02*
X71034819Y-166928571D01*
X71034819Y-166928571D02*
X70987200Y-166833333D01*
X70987200Y-166833333D02*
X70939580Y-166785714D01*
X70939580Y-166785714D02*
X70844342Y-166738095D01*
X70844342Y-166738095D02*
X70653866Y-166738095D01*
X70653866Y-166738095D02*
X70558628Y-166785714D01*
X70558628Y-166785714D02*
X70511009Y-166833333D01*
X70511009Y-166833333D02*
X70463390Y-166928571D01*
X83964580Y-170967857D02*
X84012200Y-171015476D01*
X84012200Y-171015476D02*
X84059819Y-171158333D01*
X84059819Y-171158333D02*
X84059819Y-171253571D01*
X84059819Y-171253571D02*
X84012200Y-171396428D01*
X84012200Y-171396428D02*
X83916961Y-171491666D01*
X83916961Y-171491666D02*
X83821723Y-171539285D01*
X83821723Y-171539285D02*
X83631247Y-171586904D01*
X83631247Y-171586904D02*
X83488390Y-171586904D01*
X83488390Y-171586904D02*
X83297914Y-171539285D01*
X83297914Y-171539285D02*
X83202676Y-171491666D01*
X83202676Y-171491666D02*
X83107438Y-171396428D01*
X83107438Y-171396428D02*
X83059819Y-171253571D01*
X83059819Y-171253571D02*
X83059819Y-171158333D01*
X83059819Y-171158333D02*
X83107438Y-171015476D01*
X83107438Y-171015476D02*
X83155057Y-170967857D01*
X83155057Y-170586904D02*
X83107438Y-170539285D01*
X83107438Y-170539285D02*
X83059819Y-170444047D01*
X83059819Y-170444047D02*
X83059819Y-170205952D01*
X83059819Y-170205952D02*
X83107438Y-170110714D01*
X83107438Y-170110714D02*
X83155057Y-170063095D01*
X83155057Y-170063095D02*
X83250295Y-170015476D01*
X83250295Y-170015476D02*
X83345533Y-170015476D01*
X83345533Y-170015476D02*
X83488390Y-170063095D01*
X83488390Y-170063095D02*
X84059819Y-170634523D01*
X84059819Y-170634523D02*
X84059819Y-170015476D01*
X83155057Y-169634523D02*
X83107438Y-169586904D01*
X83107438Y-169586904D02*
X83059819Y-169491666D01*
X83059819Y-169491666D02*
X83059819Y-169253571D01*
X83059819Y-169253571D02*
X83107438Y-169158333D01*
X83107438Y-169158333D02*
X83155057Y-169110714D01*
X83155057Y-169110714D02*
X83250295Y-169063095D01*
X83250295Y-169063095D02*
X83345533Y-169063095D01*
X83345533Y-169063095D02*
X83488390Y-169110714D01*
X83488390Y-169110714D02*
X84059819Y-169682142D01*
X84059819Y-169682142D02*
X84059819Y-169063095D01*
X91257080Y-162026666D02*
X91304700Y-162074285D01*
X91304700Y-162074285D02*
X91352319Y-162217142D01*
X91352319Y-162217142D02*
X91352319Y-162312380D01*
X91352319Y-162312380D02*
X91304700Y-162455237D01*
X91304700Y-162455237D02*
X91209461Y-162550475D01*
X91209461Y-162550475D02*
X91114223Y-162598094D01*
X91114223Y-162598094D02*
X90923747Y-162645713D01*
X90923747Y-162645713D02*
X90780890Y-162645713D01*
X90780890Y-162645713D02*
X90590414Y-162598094D01*
X90590414Y-162598094D02*
X90495176Y-162550475D01*
X90495176Y-162550475D02*
X90399938Y-162455237D01*
X90399938Y-162455237D02*
X90352319Y-162312380D01*
X90352319Y-162312380D02*
X90352319Y-162217142D01*
X90352319Y-162217142D02*
X90399938Y-162074285D01*
X90399938Y-162074285D02*
X90447557Y-162026666D01*
X90352319Y-161121904D02*
X90352319Y-161598094D01*
X90352319Y-161598094D02*
X90828509Y-161645713D01*
X90828509Y-161645713D02*
X90780890Y-161598094D01*
X90780890Y-161598094D02*
X90733271Y-161502856D01*
X90733271Y-161502856D02*
X90733271Y-161264761D01*
X90733271Y-161264761D02*
X90780890Y-161169523D01*
X90780890Y-161169523D02*
X90828509Y-161121904D01*
X90828509Y-161121904D02*
X90923747Y-161074285D01*
X90923747Y-161074285D02*
X91161842Y-161074285D01*
X91161842Y-161074285D02*
X91257080Y-161121904D01*
X91257080Y-161121904D02*
X91304700Y-161169523D01*
X91304700Y-161169523D02*
X91352319Y-161264761D01*
X91352319Y-161264761D02*
X91352319Y-161502856D01*
X91352319Y-161502856D02*
X91304700Y-161598094D01*
X91304700Y-161598094D02*
X91257080Y-161645713D01*
X86638095Y-170692319D02*
X86638095Y-171501842D01*
X86638095Y-171501842D02*
X86685714Y-171597080D01*
X86685714Y-171597080D02*
X86733333Y-171644700D01*
X86733333Y-171644700D02*
X86828571Y-171692319D01*
X86828571Y-171692319D02*
X87019047Y-171692319D01*
X87019047Y-171692319D02*
X87114285Y-171644700D01*
X87114285Y-171644700D02*
X87161904Y-171597080D01*
X87161904Y-171597080D02*
X87209523Y-171501842D01*
X87209523Y-171501842D02*
X87209523Y-170692319D01*
X87590476Y-170692319D02*
X88209523Y-170692319D01*
X88209523Y-170692319D02*
X87876190Y-171073271D01*
X87876190Y-171073271D02*
X88019047Y-171073271D01*
X88019047Y-171073271D02*
X88114285Y-171120890D01*
X88114285Y-171120890D02*
X88161904Y-171168509D01*
X88161904Y-171168509D02*
X88209523Y-171263747D01*
X88209523Y-171263747D02*
X88209523Y-171501842D01*
X88209523Y-171501842D02*
X88161904Y-171597080D01*
X88161904Y-171597080D02*
X88114285Y-171644700D01*
X88114285Y-171644700D02*
X88019047Y-171692319D01*
X88019047Y-171692319D02*
X87733333Y-171692319D01*
X87733333Y-171692319D02*
X87638095Y-171644700D01*
X87638095Y-171644700D02*
X87590476Y-171597080D01*
X84507080Y-162076666D02*
X84554700Y-162124285D01*
X84554700Y-162124285D02*
X84602319Y-162267142D01*
X84602319Y-162267142D02*
X84602319Y-162362380D01*
X84602319Y-162362380D02*
X84554700Y-162505237D01*
X84554700Y-162505237D02*
X84459461Y-162600475D01*
X84459461Y-162600475D02*
X84364223Y-162648094D01*
X84364223Y-162648094D02*
X84173747Y-162695713D01*
X84173747Y-162695713D02*
X84030890Y-162695713D01*
X84030890Y-162695713D02*
X83840414Y-162648094D01*
X83840414Y-162648094D02*
X83745176Y-162600475D01*
X83745176Y-162600475D02*
X83649938Y-162505237D01*
X83649938Y-162505237D02*
X83602319Y-162362380D01*
X83602319Y-162362380D02*
X83602319Y-162267142D01*
X83602319Y-162267142D02*
X83649938Y-162124285D01*
X83649938Y-162124285D02*
X83697557Y-162076666D01*
X84602319Y-161600475D02*
X84602319Y-161409999D01*
X84602319Y-161409999D02*
X84554700Y-161314761D01*
X84554700Y-161314761D02*
X84507080Y-161267142D01*
X84507080Y-161267142D02*
X84364223Y-161171904D01*
X84364223Y-161171904D02*
X84173747Y-161124285D01*
X84173747Y-161124285D02*
X83792795Y-161124285D01*
X83792795Y-161124285D02*
X83697557Y-161171904D01*
X83697557Y-161171904D02*
X83649938Y-161219523D01*
X83649938Y-161219523D02*
X83602319Y-161314761D01*
X83602319Y-161314761D02*
X83602319Y-161505237D01*
X83602319Y-161505237D02*
X83649938Y-161600475D01*
X83649938Y-161600475D02*
X83697557Y-161648094D01*
X83697557Y-161648094D02*
X83792795Y-161695713D01*
X83792795Y-161695713D02*
X84030890Y-161695713D01*
X84030890Y-161695713D02*
X84126128Y-161648094D01*
X84126128Y-161648094D02*
X84173747Y-161600475D01*
X84173747Y-161600475D02*
X84221366Y-161505237D01*
X84221366Y-161505237D02*
X84221366Y-161314761D01*
X84221366Y-161314761D02*
X84173747Y-161219523D01*
X84173747Y-161219523D02*
X84126128Y-161171904D01*
X84126128Y-161171904D02*
X84030890Y-161124285D01*
X80138095Y-146356819D02*
X80709523Y-146356819D01*
X80423809Y-147356819D02*
X80423809Y-146356819D01*
X81042857Y-147356819D02*
X81042857Y-146356819D01*
X81042857Y-146356819D02*
X81423809Y-146356819D01*
X81423809Y-146356819D02*
X81519047Y-146404438D01*
X81519047Y-146404438D02*
X81566666Y-146452057D01*
X81566666Y-146452057D02*
X81614285Y-146547295D01*
X81614285Y-146547295D02*
X81614285Y-146690152D01*
X81614285Y-146690152D02*
X81566666Y-146785390D01*
X81566666Y-146785390D02*
X81519047Y-146833009D01*
X81519047Y-146833009D02*
X81423809Y-146880628D01*
X81423809Y-146880628D02*
X81042857Y-146880628D01*
X81947619Y-146356819D02*
X82614285Y-146356819D01*
X82614285Y-146356819D02*
X82185714Y-147356819D01*
X65981666Y-172684819D02*
X65981666Y-173399104D01*
X65981666Y-173399104D02*
X65934047Y-173541961D01*
X65934047Y-173541961D02*
X65838809Y-173637200D01*
X65838809Y-173637200D02*
X65695952Y-173684819D01*
X65695952Y-173684819D02*
X65600714Y-173684819D01*
X66934047Y-172684819D02*
X66457857Y-172684819D01*
X66457857Y-172684819D02*
X66410238Y-173161009D01*
X66410238Y-173161009D02*
X66457857Y-173113390D01*
X66457857Y-173113390D02*
X66553095Y-173065771D01*
X66553095Y-173065771D02*
X66791190Y-173065771D01*
X66791190Y-173065771D02*
X66886428Y-173113390D01*
X66886428Y-173113390D02*
X66934047Y-173161009D01*
X66934047Y-173161009D02*
X66981666Y-173256247D01*
X66981666Y-173256247D02*
X66981666Y-173494342D01*
X66981666Y-173494342D02*
X66934047Y-173589580D01*
X66934047Y-173589580D02*
X66886428Y-173637200D01*
X66886428Y-173637200D02*
X66791190Y-173684819D01*
X66791190Y-173684819D02*
X66553095Y-173684819D01*
X66553095Y-173684819D02*
X66457857Y-173637200D01*
X66457857Y-173637200D02*
X66410238Y-173589580D01*
X94987142Y-167574819D02*
X94653809Y-167098628D01*
X94415714Y-167574819D02*
X94415714Y-166574819D01*
X94415714Y-166574819D02*
X94796666Y-166574819D01*
X94796666Y-166574819D02*
X94891904Y-166622438D01*
X94891904Y-166622438D02*
X94939523Y-166670057D01*
X94939523Y-166670057D02*
X94987142Y-166765295D01*
X94987142Y-166765295D02*
X94987142Y-166908152D01*
X94987142Y-166908152D02*
X94939523Y-167003390D01*
X94939523Y-167003390D02*
X94891904Y-167051009D01*
X94891904Y-167051009D02*
X94796666Y-167098628D01*
X94796666Y-167098628D02*
X94415714Y-167098628D01*
X95939523Y-167574819D02*
X95368095Y-167574819D01*
X95653809Y-167574819D02*
X95653809Y-166574819D01*
X95653809Y-166574819D02*
X95558571Y-166717676D01*
X95558571Y-166717676D02*
X95463333Y-166812914D01*
X95463333Y-166812914D02*
X95368095Y-166860533D01*
X96558571Y-166574819D02*
X96653809Y-166574819D01*
X96653809Y-166574819D02*
X96749047Y-166622438D01*
X96749047Y-166622438D02*
X96796666Y-166670057D01*
X96796666Y-166670057D02*
X96844285Y-166765295D01*
X96844285Y-166765295D02*
X96891904Y-166955771D01*
X96891904Y-166955771D02*
X96891904Y-167193866D01*
X96891904Y-167193866D02*
X96844285Y-167384342D01*
X96844285Y-167384342D02*
X96796666Y-167479580D01*
X96796666Y-167479580D02*
X96749047Y-167527200D01*
X96749047Y-167527200D02*
X96653809Y-167574819D01*
X96653809Y-167574819D02*
X96558571Y-167574819D01*
X96558571Y-167574819D02*
X96463333Y-167527200D01*
X96463333Y-167527200D02*
X96415714Y-167479580D01*
X96415714Y-167479580D02*
X96368095Y-167384342D01*
X96368095Y-167384342D02*
X96320476Y-167193866D01*
X96320476Y-167193866D02*
X96320476Y-166955771D01*
X96320476Y-166955771D02*
X96368095Y-166765295D01*
X96368095Y-166765295D02*
X96415714Y-166670057D01*
X96415714Y-166670057D02*
X96463333Y-166622438D01*
X96463333Y-166622438D02*
X96558571Y-166574819D01*
X71929580Y-155280357D02*
X71977200Y-155327976D01*
X71977200Y-155327976D02*
X72024819Y-155470833D01*
X72024819Y-155470833D02*
X72024819Y-155566071D01*
X72024819Y-155566071D02*
X71977200Y-155708928D01*
X71977200Y-155708928D02*
X71881961Y-155804166D01*
X71881961Y-155804166D02*
X71786723Y-155851785D01*
X71786723Y-155851785D02*
X71596247Y-155899404D01*
X71596247Y-155899404D02*
X71453390Y-155899404D01*
X71453390Y-155899404D02*
X71262914Y-155851785D01*
X71262914Y-155851785D02*
X71167676Y-155804166D01*
X71167676Y-155804166D02*
X71072438Y-155708928D01*
X71072438Y-155708928D02*
X71024819Y-155566071D01*
X71024819Y-155566071D02*
X71024819Y-155470833D01*
X71024819Y-155470833D02*
X71072438Y-155327976D01*
X71072438Y-155327976D02*
X71120057Y-155280357D01*
X71120057Y-154899404D02*
X71072438Y-154851785D01*
X71072438Y-154851785D02*
X71024819Y-154756547D01*
X71024819Y-154756547D02*
X71024819Y-154518452D01*
X71024819Y-154518452D02*
X71072438Y-154423214D01*
X71072438Y-154423214D02*
X71120057Y-154375595D01*
X71120057Y-154375595D02*
X71215295Y-154327976D01*
X71215295Y-154327976D02*
X71310533Y-154327976D01*
X71310533Y-154327976D02*
X71453390Y-154375595D01*
X71453390Y-154375595D02*
X72024819Y-154947023D01*
X72024819Y-154947023D02*
X72024819Y-154327976D01*
X71024819Y-153708928D02*
X71024819Y-153613690D01*
X71024819Y-153613690D02*
X71072438Y-153518452D01*
X71072438Y-153518452D02*
X71120057Y-153470833D01*
X71120057Y-153470833D02*
X71215295Y-153423214D01*
X71215295Y-153423214D02*
X71405771Y-153375595D01*
X71405771Y-153375595D02*
X71643866Y-153375595D01*
X71643866Y-153375595D02*
X71834342Y-153423214D01*
X71834342Y-153423214D02*
X71929580Y-153470833D01*
X71929580Y-153470833D02*
X71977200Y-153518452D01*
X71977200Y-153518452D02*
X72024819Y-153613690D01*
X72024819Y-153613690D02*
X72024819Y-153708928D01*
X72024819Y-153708928D02*
X71977200Y-153804166D01*
X71977200Y-153804166D02*
X71929580Y-153851785D01*
X71929580Y-153851785D02*
X71834342Y-153899404D01*
X71834342Y-153899404D02*
X71643866Y-153947023D01*
X71643866Y-153947023D02*
X71405771Y-153947023D01*
X71405771Y-153947023D02*
X71215295Y-153899404D01*
X71215295Y-153899404D02*
X71120057Y-153851785D01*
X71120057Y-153851785D02*
X71072438Y-153804166D01*
X71072438Y-153804166D02*
X71024819Y-153708928D01*
X84721666Y-184574819D02*
X84721666Y-185289104D01*
X84721666Y-185289104D02*
X84674047Y-185431961D01*
X84674047Y-185431961D02*
X84578809Y-185527200D01*
X84578809Y-185527200D02*
X84435952Y-185574819D01*
X84435952Y-185574819D02*
X84340714Y-185574819D01*
X85626428Y-184574819D02*
X85435952Y-184574819D01*
X85435952Y-184574819D02*
X85340714Y-184622438D01*
X85340714Y-184622438D02*
X85293095Y-184670057D01*
X85293095Y-184670057D02*
X85197857Y-184812914D01*
X85197857Y-184812914D02*
X85150238Y-185003390D01*
X85150238Y-185003390D02*
X85150238Y-185384342D01*
X85150238Y-185384342D02*
X85197857Y-185479580D01*
X85197857Y-185479580D02*
X85245476Y-185527200D01*
X85245476Y-185527200D02*
X85340714Y-185574819D01*
X85340714Y-185574819D02*
X85531190Y-185574819D01*
X85531190Y-185574819D02*
X85626428Y-185527200D01*
X85626428Y-185527200D02*
X85674047Y-185479580D01*
X85674047Y-185479580D02*
X85721666Y-185384342D01*
X85721666Y-185384342D02*
X85721666Y-185146247D01*
X85721666Y-185146247D02*
X85674047Y-185051009D01*
X85674047Y-185051009D02*
X85626428Y-185003390D01*
X85626428Y-185003390D02*
X85531190Y-184955771D01*
X85531190Y-184955771D02*
X85340714Y-184955771D01*
X85340714Y-184955771D02*
X85245476Y-185003390D01*
X85245476Y-185003390D02*
X85197857Y-185051009D01*
X85197857Y-185051009D02*
X85150238Y-185146247D01*
X72882142Y-172764580D02*
X72834523Y-172812200D01*
X72834523Y-172812200D02*
X72691666Y-172859819D01*
X72691666Y-172859819D02*
X72596428Y-172859819D01*
X72596428Y-172859819D02*
X72453571Y-172812200D01*
X72453571Y-172812200D02*
X72358333Y-172716961D01*
X72358333Y-172716961D02*
X72310714Y-172621723D01*
X72310714Y-172621723D02*
X72263095Y-172431247D01*
X72263095Y-172431247D02*
X72263095Y-172288390D01*
X72263095Y-172288390D02*
X72310714Y-172097914D01*
X72310714Y-172097914D02*
X72358333Y-172002676D01*
X72358333Y-172002676D02*
X72453571Y-171907438D01*
X72453571Y-171907438D02*
X72596428Y-171859819D01*
X72596428Y-171859819D02*
X72691666Y-171859819D01*
X72691666Y-171859819D02*
X72834523Y-171907438D01*
X72834523Y-171907438D02*
X72882142Y-171955057D01*
X73263095Y-171955057D02*
X73310714Y-171907438D01*
X73310714Y-171907438D02*
X73405952Y-171859819D01*
X73405952Y-171859819D02*
X73644047Y-171859819D01*
X73644047Y-171859819D02*
X73739285Y-171907438D01*
X73739285Y-171907438D02*
X73786904Y-171955057D01*
X73786904Y-171955057D02*
X73834523Y-172050295D01*
X73834523Y-172050295D02*
X73834523Y-172145533D01*
X73834523Y-172145533D02*
X73786904Y-172288390D01*
X73786904Y-172288390D02*
X73215476Y-172859819D01*
X73215476Y-172859819D02*
X73834523Y-172859819D01*
X74739285Y-171859819D02*
X74263095Y-171859819D01*
X74263095Y-171859819D02*
X74215476Y-172336009D01*
X74215476Y-172336009D02*
X74263095Y-172288390D01*
X74263095Y-172288390D02*
X74358333Y-172240771D01*
X74358333Y-172240771D02*
X74596428Y-172240771D01*
X74596428Y-172240771D02*
X74691666Y-172288390D01*
X74691666Y-172288390D02*
X74739285Y-172336009D01*
X74739285Y-172336009D02*
X74786904Y-172431247D01*
X74786904Y-172431247D02*
X74786904Y-172669342D01*
X74786904Y-172669342D02*
X74739285Y-172764580D01*
X74739285Y-172764580D02*
X74691666Y-172812200D01*
X74691666Y-172812200D02*
X74596428Y-172859819D01*
X74596428Y-172859819D02*
X74358333Y-172859819D01*
X74358333Y-172859819D02*
X74263095Y-172812200D01*
X74263095Y-172812200D02*
X74215476Y-172764580D01*
X83254819Y-154042857D02*
X82778628Y-154376190D01*
X83254819Y-154614285D02*
X82254819Y-154614285D01*
X82254819Y-154614285D02*
X82254819Y-154233333D01*
X82254819Y-154233333D02*
X82302438Y-154138095D01*
X82302438Y-154138095D02*
X82350057Y-154090476D01*
X82350057Y-154090476D02*
X82445295Y-154042857D01*
X82445295Y-154042857D02*
X82588152Y-154042857D01*
X82588152Y-154042857D02*
X82683390Y-154090476D01*
X82683390Y-154090476D02*
X82731009Y-154138095D01*
X82731009Y-154138095D02*
X82778628Y-154233333D01*
X82778628Y-154233333D02*
X82778628Y-154614285D01*
X83254819Y-153090476D02*
X83254819Y-153661904D01*
X83254819Y-153376190D02*
X82254819Y-153376190D01*
X82254819Y-153376190D02*
X82397676Y-153471428D01*
X82397676Y-153471428D02*
X82492914Y-153566666D01*
X82492914Y-153566666D02*
X82540533Y-153661904D01*
X82254819Y-152757142D02*
X82254819Y-152138095D01*
X82254819Y-152138095D02*
X82635771Y-152471428D01*
X82635771Y-152471428D02*
X82635771Y-152328571D01*
X82635771Y-152328571D02*
X82683390Y-152233333D01*
X82683390Y-152233333D02*
X82731009Y-152185714D01*
X82731009Y-152185714D02*
X82826247Y-152138095D01*
X82826247Y-152138095D02*
X83064342Y-152138095D01*
X83064342Y-152138095D02*
X83159580Y-152185714D01*
X83159580Y-152185714D02*
X83207200Y-152233333D01*
X83207200Y-152233333D02*
X83254819Y-152328571D01*
X83254819Y-152328571D02*
X83254819Y-152614285D01*
X83254819Y-152614285D02*
X83207200Y-152709523D01*
X83207200Y-152709523D02*
X83159580Y-152757142D01*
X71486666Y-179634819D02*
X71486666Y-180349104D01*
X71486666Y-180349104D02*
X71439047Y-180491961D01*
X71439047Y-180491961D02*
X71343809Y-180587200D01*
X71343809Y-180587200D02*
X71200952Y-180634819D01*
X71200952Y-180634819D02*
X71105714Y-180634819D01*
X71915238Y-179730057D02*
X71962857Y-179682438D01*
X71962857Y-179682438D02*
X72058095Y-179634819D01*
X72058095Y-179634819D02*
X72296190Y-179634819D01*
X72296190Y-179634819D02*
X72391428Y-179682438D01*
X72391428Y-179682438D02*
X72439047Y-179730057D01*
X72439047Y-179730057D02*
X72486666Y-179825295D01*
X72486666Y-179825295D02*
X72486666Y-179920533D01*
X72486666Y-179920533D02*
X72439047Y-180063390D01*
X72439047Y-180063390D02*
X71867619Y-180634819D01*
X71867619Y-180634819D02*
X72486666Y-180634819D01*
D11*
%TO.C,R3*%
X93322500Y-171962776D02*
X93322500Y-172472224D01*
X92277500Y-171962776D02*
X92277500Y-172472224D01*
%TO.C,R11*%
X95857064Y-172235000D02*
X95402936Y-172235000D01*
X95857064Y-170765000D02*
X95402936Y-170765000D01*
%TO.C,C21*%
X83790000Y-157596267D02*
X83790000Y-157303733D01*
X84810000Y-157596267D02*
X84810000Y-157303733D01*
%TO.C,TP5*%
X89280000Y-158420000D02*
X91180000Y-158420000D01*
X89280000Y-160320000D02*
X89280000Y-158420000D01*
X91180000Y-158420000D02*
X91180000Y-160320000D01*
X91180000Y-160320000D02*
X89280000Y-160320000D01*
%TO.C,TP8*%
X76900000Y-147700000D02*
X79300000Y-147700000D01*
X76900000Y-150100000D02*
X76900000Y-147700000D01*
X79300000Y-147700000D02*
X79300000Y-150100000D01*
X79300000Y-150100000D02*
X76900000Y-150100000D01*
%TO.C,J9*%
X85440000Y-172150000D02*
X85440000Y-176150000D01*
X85730000Y-171120000D02*
X85730000Y-177140000D01*
X85730000Y-177140000D02*
X91030000Y-177140000D01*
X86310000Y-171120000D02*
X86310000Y-171720000D01*
X86310000Y-171720000D02*
X87910000Y-171720000D01*
X87110000Y-176140000D02*
X87360000Y-175610000D01*
X87110000Y-176140000D02*
X89650000Y-176140000D01*
X87110000Y-177140000D02*
X87110000Y-176140000D01*
X87360000Y-175610000D02*
X89400000Y-175610000D01*
X87360000Y-177140000D02*
X87360000Y-176140000D01*
X87910000Y-171720000D02*
X87910000Y-171120000D01*
X88850000Y-171120000D02*
X88850000Y-171720000D01*
X88850000Y-171720000D02*
X90450000Y-171720000D01*
X89400000Y-175610000D02*
X89650000Y-176140000D01*
X89400000Y-177140000D02*
X89400000Y-176140000D01*
X89650000Y-176140000D02*
X89650000Y-177140000D01*
X90450000Y-171720000D02*
X90450000Y-171120000D01*
X91030000Y-171120000D02*
X85730000Y-171120000D01*
X91030000Y-177140000D02*
X91030000Y-171120000D01*
%TO.C,C19*%
X66065000Y-168138748D02*
X66065000Y-168661252D01*
X67535000Y-168138748D02*
X67535000Y-168661252D01*
%TO.C,C16*%
X64965000Y-160138748D02*
X64965000Y-160661252D01*
X66435000Y-160138748D02*
X66435000Y-160661252D01*
%TO.C,C15*%
X65361252Y-162665000D02*
X64838748Y-162665000D01*
X65361252Y-164135000D02*
X64838748Y-164135000D01*
%TO.C,R15*%
X80747936Y-175665000D02*
X81202064Y-175665000D01*
X80747936Y-177135000D02*
X81202064Y-177135000D01*
%TO.C,J7*%
X65490000Y-144200000D02*
X65490000Y-148200000D01*
X65780000Y-143170000D02*
X65780000Y-149190000D01*
X65780000Y-149190000D02*
X71080000Y-149190000D01*
X66360000Y-143170000D02*
X66360000Y-143770000D01*
X66360000Y-143770000D02*
X67960000Y-143770000D01*
X67160000Y-148190000D02*
X67410000Y-147660000D01*
X67160000Y-148190000D02*
X69700000Y-148190000D01*
X67160000Y-149190000D02*
X67160000Y-148190000D01*
X67410000Y-147660000D02*
X69450000Y-147660000D01*
X67410000Y-149190000D02*
X67410000Y-148190000D01*
X67960000Y-143770000D02*
X67960000Y-143170000D01*
X68900000Y-143170000D02*
X68900000Y-143770000D01*
X68900000Y-143770000D02*
X70500000Y-143770000D01*
X69450000Y-147660000D02*
X69700000Y-148190000D01*
X69450000Y-149190000D02*
X69450000Y-148190000D01*
X69700000Y-148190000D02*
X69700000Y-149190000D01*
X70500000Y-143770000D02*
X70500000Y-143170000D01*
X71080000Y-143170000D02*
X65780000Y-143170000D01*
X71080000Y-149190000D02*
X71080000Y-143170000D01*
%TO.C,C27*%
X69840000Y-154648752D02*
X69840000Y-153226248D01*
X71660000Y-154648752D02*
X71660000Y-153226248D01*
%TO.C,C1*%
X77140000Y-175438748D02*
X77140000Y-175961252D01*
X78610000Y-175438748D02*
X78610000Y-175961252D01*
%TO.C,J1*%
X86015000Y-151885000D02*
X86015000Y-155415000D01*
X86080000Y-151885000D02*
X86015000Y-151885000D01*
X86080000Y-155415000D02*
X86015000Y-155415000D01*
X92420000Y-150560000D02*
X92420000Y-151885000D01*
X92485000Y-151885000D02*
X92420000Y-151885000D01*
X92485000Y-151885000D02*
X92485000Y-155415000D01*
X92485000Y-155415000D02*
X92420000Y-155415000D01*
%TO.C,R16*%
X74065000Y-153827064D02*
X74065000Y-153372936D01*
X75535000Y-153827064D02*
X75535000Y-153372936D01*
%TO.C,R18*%
X64972936Y-164665000D02*
X65427064Y-164665000D01*
X64972936Y-166135000D02*
X65427064Y-166135000D01*
%TO.C,C26*%
X69583767Y-157590000D02*
X69291233Y-157590000D01*
X69583767Y-158610000D02*
X69291233Y-158610000D01*
%TO.C,U4*%
X89392500Y-160910000D02*
X88592500Y-160910000D01*
X89392500Y-160910000D02*
X90192500Y-160910000D01*
X89392500Y-164030000D02*
X88592500Y-164030000D01*
X89392500Y-164030000D02*
X90192500Y-164030000D01*
X90932500Y-164310000D02*
X90452500Y-164310000D01*
X90692500Y-163980000D01*
X90932500Y-164310000D01*
G36*
X90932500Y-164310000D02*
G01*
X90452500Y-164310000D01*
X90692500Y-163980000D01*
X90932500Y-164310000D01*
G37*
D12*
%TO.C,Y1*%
X70005000Y-161540000D02*
G75*
G02*
X69805000Y-161540000I-100000J0D01*
G01*
X69805000Y-161540000D02*
G75*
G02*
X70005000Y-161540000I100000J0D01*
G01*
D11*
%TO.C,R1*%
X72490000Y-175227064D02*
X72490000Y-174772936D01*
X73960000Y-175227064D02*
X73960000Y-174772936D01*
%TO.C,C17*%
X79265000Y-171863748D02*
X79265000Y-173286252D01*
X81085000Y-171863748D02*
X81085000Y-173286252D01*
%TO.C,TP6*%
X87230000Y-164795000D02*
X89130000Y-164795000D01*
X87230000Y-166695000D02*
X87230000Y-164795000D01*
X89130000Y-164795000D02*
X89130000Y-166695000D01*
X89130000Y-166695000D02*
X87230000Y-166695000D01*
%TO.C,J3*%
X72360000Y-140610000D02*
X72360000Y-146630000D01*
X72360000Y-146630000D02*
X87820000Y-146630000D01*
X72940000Y-146030000D02*
X72940000Y-146630000D01*
X73740000Y-141610000D02*
X73740000Y-140610000D01*
X73990000Y-140610000D02*
X73990000Y-141610000D01*
X73990000Y-142140000D02*
X73740000Y-141610000D01*
X74540000Y-146030000D02*
X72940000Y-146030000D01*
X74540000Y-146630000D02*
X74540000Y-146030000D01*
X75480000Y-146030000D02*
X75480000Y-146630000D01*
X77080000Y-146030000D02*
X75480000Y-146030000D01*
X77080000Y-146630000D02*
X77080000Y-146030000D01*
X78020000Y-146030000D02*
X78020000Y-146630000D01*
X79620000Y-146030000D02*
X78020000Y-146030000D01*
X79620000Y-146630000D02*
X79620000Y-146030000D01*
X80560000Y-146030000D02*
X80560000Y-146630000D01*
X82160000Y-146030000D02*
X80560000Y-146030000D01*
X82160000Y-146630000D02*
X82160000Y-146030000D01*
X83100000Y-146030000D02*
X83100000Y-146630000D01*
X84700000Y-146030000D02*
X83100000Y-146030000D01*
X84700000Y-146630000D02*
X84700000Y-146030000D01*
X85640000Y-146030000D02*
X85640000Y-146630000D01*
X86190000Y-140610000D02*
X86190000Y-141610000D01*
X86190000Y-142140000D02*
X73990000Y-142140000D01*
X86440000Y-140610000D02*
X86440000Y-141610000D01*
X86440000Y-141610000D02*
X73740000Y-141610000D01*
X86440000Y-141610000D02*
X86190000Y-142140000D01*
X87240000Y-146030000D02*
X85640000Y-146030000D01*
X87240000Y-146630000D02*
X87240000Y-146030000D01*
X87820000Y-140610000D02*
X72360000Y-140610000D01*
X87820000Y-146630000D02*
X87820000Y-140610000D01*
X88110000Y-145600000D02*
X88110000Y-141600000D01*
%TO.C,D2*%
X94145000Y-162660000D02*
X94145000Y-164130000D01*
X94145000Y-164130000D02*
X96605000Y-164130000D01*
X96605000Y-162660000D02*
X94145000Y-162660000D01*
%TO.C,R20*%
X68552500Y-172229724D02*
X68552500Y-171720276D01*
X69597500Y-172229724D02*
X69597500Y-171720276D01*
%TO.C,C23*%
X67990000Y-163853733D02*
X67990000Y-164146267D01*
X69010000Y-163853733D02*
X69010000Y-164146267D01*
%TO.C,R2*%
X74765000Y-175227064D02*
X74765000Y-174772936D01*
X76235000Y-175227064D02*
X76235000Y-174772936D01*
%TO.C,R21*%
X70452500Y-172254724D02*
X70452500Y-171745276D01*
X71497500Y-172254724D02*
X71497500Y-171745276D01*
%TO.C,R14*%
X78315000Y-153627064D02*
X78315000Y-153172936D01*
X79785000Y-153627064D02*
X79785000Y-153172936D01*
%TO.C,J4*%
X102640000Y-162580000D02*
X100940000Y-162580000D01*
X102640000Y-171920000D02*
X100940000Y-171920000D01*
%TO.C,TP1*%
X93425000Y-151275000D02*
X95825000Y-151275000D01*
X93425000Y-153675000D02*
X93425000Y-151275000D01*
X95825000Y-151275000D02*
X95825000Y-153675000D01*
X95825000Y-153675000D02*
X93425000Y-153675000D01*
%TO.C,TP2*%
X93425000Y-154400000D02*
X95825000Y-154400000D01*
X93425000Y-156800000D02*
X93425000Y-154400000D01*
X95825000Y-154400000D02*
X95825000Y-156800000D01*
X95825000Y-156800000D02*
X93425000Y-156800000D01*
%TO.C,J8*%
X75445000Y-178020000D02*
X75445000Y-183320000D01*
X75445000Y-180200000D02*
X76045000Y-180200000D01*
X75445000Y-182740000D02*
X76045000Y-182740000D01*
X75445000Y-183320000D02*
X81465000Y-183320000D01*
X76045000Y-178600000D02*
X75445000Y-178600000D01*
X76045000Y-180200000D02*
X76045000Y-178600000D01*
X76045000Y-181140000D02*
X75445000Y-181140000D01*
X76045000Y-182740000D02*
X76045000Y-181140000D01*
X76475000Y-183610000D02*
X80475000Y-183610000D01*
X79935000Y-179650000D02*
X80465000Y-179400000D01*
X79935000Y-181690000D02*
X79935000Y-179650000D01*
X80465000Y-179400000D02*
X81465000Y-179400000D01*
X80465000Y-181940000D02*
X79935000Y-181690000D01*
X80465000Y-181940000D02*
X80465000Y-179400000D01*
X81465000Y-178020000D02*
X75445000Y-178020000D01*
X81465000Y-179650000D02*
X80465000Y-179650000D01*
X81465000Y-181690000D02*
X80465000Y-181690000D01*
X81465000Y-181940000D02*
X80465000Y-181940000D01*
X81465000Y-183320000D02*
X81465000Y-178020000D01*
%TO.C,C24*%
X72490000Y-150846267D02*
X72490000Y-150553733D01*
X73510000Y-150846267D02*
X73510000Y-150553733D01*
%TO.C,U2*%
X71640000Y-158215000D02*
X71640000Y-159165000D01*
X71640000Y-168435000D02*
X71640000Y-167485000D01*
X72590000Y-158215000D02*
X71640000Y-158215000D01*
X72590000Y-168435000D02*
X71640000Y-168435000D01*
X80910000Y-158215000D02*
X81860000Y-158215000D01*
X80910000Y-168435000D02*
X81860000Y-168435000D01*
X81860000Y-158215000D02*
X81860000Y-159165000D01*
X81860000Y-168435000D02*
X81860000Y-167485000D01*
X71025000Y-159165000D02*
X70685000Y-158695000D01*
X71365000Y-158695000D01*
X71025000Y-159165000D01*
G36*
X71025000Y-159165000D02*
G01*
X70685000Y-158695000D01*
X71365000Y-158695000D01*
X71025000Y-159165000D01*
G37*
%TO.C,R17*%
X76477500Y-153342224D02*
X76477500Y-152832776D01*
X77522500Y-153342224D02*
X77522500Y-152832776D01*
%TO.C,C18*%
X68165000Y-167738748D02*
X68165000Y-168261252D01*
X69635000Y-167738748D02*
X69635000Y-168261252D01*
%TO.C,C22*%
X81665000Y-170178733D02*
X81665000Y-170471267D01*
X82685000Y-170178733D02*
X82685000Y-170471267D01*
%TO.C,C5*%
X91837500Y-162571252D02*
X91837500Y-161148748D01*
X93657500Y-162571252D02*
X93657500Y-161148748D01*
%TO.C,U3*%
X87400000Y-167277500D02*
X86600000Y-167277500D01*
X87400000Y-167277500D02*
X88200000Y-167277500D01*
X87400000Y-170397500D02*
X86600000Y-170397500D01*
X87400000Y-170397500D02*
X88200000Y-170397500D01*
X88940000Y-170677500D02*
X88460000Y-170677500D01*
X88700000Y-170347500D01*
X88940000Y-170677500D01*
G36*
X88940000Y-170677500D02*
G01*
X88460000Y-170677500D01*
X88700000Y-170347500D01*
X88940000Y-170677500D01*
G37*
%TO.C,C9*%
X85087500Y-162621252D02*
X85087500Y-161198748D01*
X86907500Y-162621252D02*
X86907500Y-161198748D01*
%TO.C,TP7*%
X80200000Y-147700000D02*
X82600000Y-147700000D01*
X80200000Y-150100000D02*
X80200000Y-147700000D01*
X82600000Y-147700000D02*
X82600000Y-150100000D01*
X82600000Y-150100000D02*
X80200000Y-150100000D01*
%TO.C,J5*%
X60835000Y-175350000D02*
X60835000Y-179350000D01*
X61125000Y-174320000D02*
X61125000Y-180340000D01*
X61125000Y-180340000D02*
X71505000Y-180340000D01*
X61705000Y-174320000D02*
X61705000Y-174920000D01*
X61705000Y-174920000D02*
X63305000Y-174920000D01*
X62505000Y-179340000D02*
X62755000Y-178810000D01*
X62505000Y-179340000D02*
X70125000Y-179340000D01*
X62505000Y-180340000D02*
X62505000Y-179340000D01*
X62755000Y-178810000D02*
X69875000Y-178810000D01*
X62755000Y-180340000D02*
X62755000Y-179340000D01*
X63305000Y-174920000D02*
X63305000Y-174320000D01*
X64245000Y-174320000D02*
X64245000Y-174920000D01*
X64245000Y-174920000D02*
X65845000Y-174920000D01*
X65845000Y-174920000D02*
X65845000Y-174320000D01*
X66785000Y-174320000D02*
X66785000Y-174920000D01*
X66785000Y-174920000D02*
X68385000Y-174920000D01*
X68385000Y-174920000D02*
X68385000Y-174320000D01*
X69325000Y-174320000D02*
X69325000Y-174920000D01*
X69325000Y-174920000D02*
X70925000Y-174920000D01*
X69875000Y-178810000D02*
X70125000Y-179340000D01*
X69875000Y-180340000D02*
X69875000Y-179340000D01*
X70125000Y-179340000D02*
X70125000Y-180340000D01*
X70925000Y-174920000D02*
X70925000Y-174320000D01*
X71505000Y-174320000D02*
X61125000Y-174320000D01*
X71505000Y-180340000D02*
X71505000Y-174320000D01*
%TO.C,R10*%
X95857064Y-164735000D02*
X95402936Y-164735000D01*
X95857064Y-166205000D02*
X95402936Y-166205000D01*
%TO.C,C20*%
X72490000Y-154783767D02*
X72490000Y-154491233D01*
X73510000Y-154783767D02*
X73510000Y-154491233D01*
%TO.C,J6*%
X82405000Y-178010000D02*
X82405000Y-184030000D01*
X82405000Y-184030000D02*
X87705000Y-184030000D01*
X82985000Y-183430000D02*
X82985000Y-184030000D01*
X83785000Y-179010000D02*
X83785000Y-178010000D01*
X84035000Y-178010000D02*
X84035000Y-179010000D01*
X84035000Y-179540000D02*
X83785000Y-179010000D01*
X84585000Y-183430000D02*
X82985000Y-183430000D01*
X84585000Y-184030000D02*
X84585000Y-183430000D01*
X85525000Y-183430000D02*
X85525000Y-184030000D01*
X86075000Y-178010000D02*
X86075000Y-179010000D01*
X86075000Y-179540000D02*
X84035000Y-179540000D01*
X86325000Y-178010000D02*
X86325000Y-179010000D01*
X86325000Y-179010000D02*
X83785000Y-179010000D01*
X86325000Y-179010000D02*
X86075000Y-179540000D01*
X87125000Y-183430000D02*
X85525000Y-183430000D01*
X87125000Y-184030000D02*
X87125000Y-183430000D01*
X87705000Y-178010000D02*
X82405000Y-178010000D01*
X87705000Y-184030000D02*
X87705000Y-178010000D01*
X87995000Y-183000000D02*
X87995000Y-179000000D01*
%TO.C,C25*%
X73671267Y-170465000D02*
X73378733Y-170465000D01*
X73671267Y-171485000D02*
X73378733Y-171485000D01*
%TO.C,R13*%
X80415000Y-153172936D02*
X80415000Y-153627064D01*
X81885000Y-153172936D02*
X81885000Y-153627064D01*
%TO.C,J2*%
X68880000Y-182300000D02*
X68880000Y-186300000D01*
X69170000Y-181270000D02*
X69170000Y-187290000D01*
X69170000Y-187290000D02*
X74470000Y-187290000D01*
X69750000Y-181270000D02*
X69750000Y-181870000D01*
X69750000Y-181870000D02*
X71350000Y-181870000D01*
X70550000Y-186290000D02*
X70800000Y-185760000D01*
X70550000Y-186290000D02*
X73090000Y-186290000D01*
X70550000Y-187290000D02*
X70550000Y-186290000D01*
X70800000Y-185760000D02*
X72840000Y-185760000D01*
X70800000Y-187290000D02*
X70800000Y-186290000D01*
X71350000Y-181870000D02*
X71350000Y-181270000D01*
X72290000Y-181270000D02*
X72290000Y-181870000D01*
X72290000Y-181870000D02*
X73890000Y-181870000D01*
X72840000Y-185760000D02*
X73090000Y-186290000D01*
X72840000Y-187290000D02*
X72840000Y-186290000D01*
X73090000Y-186290000D02*
X73090000Y-187290000D01*
X73890000Y-181870000D02*
X73890000Y-181270000D01*
X74470000Y-181270000D02*
X69170000Y-181270000D01*
X74470000Y-187290000D02*
X74470000Y-181270000D01*
%TD*%
M02*
