%TF.GenerationSoftware,KiCad,Pcbnew,9.0.7*%
%TF.CreationDate,2026-03-05T14:08:13-06:00*%
%TF.ProjectId,ece445_mirror,65636534-3435-45f6-9d69-72726f722e6b,rev?*%
%TF.SameCoordinates,Original*%
%TF.FileFunction,Copper,L1,Top*%
%TF.FilePolarity,Positive*%
%FSLAX46Y46*%
G04 Gerber Fmt 4.6, Leading zero omitted, Abs format (unit mm)*
G04 Created by KiCad (PCBNEW 9.0.7) date 2026-03-05 14:08:13*
%MOMM*%
%LPD*%
G01*
G04 APERTURE LIST*
G04 Aperture macros list*
%AMRoundRect*
0 Rectangle with rounded corners*
0 $1 Rounding radius*
0 $2 $3 $4 $5 $6 $7 $8 $9 X,Y pos of 4 corners*
0 Add a 4 corners polygon primitive as box body*
4,1,4,$2,$3,$4,$5,$6,$7,$8,$9,$2,$3,0*
0 Add four circle primitives for the rounded corners*
1,1,$1+$1,$2,$3*
1,1,$1+$1,$4,$5*
1,1,$1+$1,$6,$7*
1,1,$1+$1,$8,$9*
0 Add four rect primitives between the rounded corners*
20,1,$1+$1,$2,$3,$4,$5,0*
20,1,$1+$1,$4,$5,$6,$7,0*
20,1,$1+$1,$6,$7,$8,$9,0*
20,1,$1+$1,$8,$9,$2,$3,0*%
G04 Aperture macros list end*
%TA.AperFunction,SMDPad,CuDef*%
%ADD10RoundRect,0.237500X-0.237500X0.250000X-0.237500X-0.250000X0.237500X-0.250000X0.237500X0.250000X0*%
%TD*%
%TA.AperFunction,SMDPad,CuDef*%
%ADD11RoundRect,0.250000X0.350000X0.450000X-0.350000X0.450000X-0.350000X-0.450000X0.350000X-0.450000X0*%
%TD*%
%TA.AperFunction,SMDPad,CuDef*%
%ADD12RoundRect,0.237500X0.237500X-0.300000X0.237500X0.300000X-0.237500X0.300000X-0.237500X-0.300000X0*%
%TD*%
%TA.AperFunction,SMDPad,CuDef*%
%ADD13R,1.500000X1.500000*%
%TD*%
%TA.AperFunction,SMDPad,CuDef*%
%ADD14R,2.000000X2.000000*%
%TD*%
%TA.AperFunction,ComponentPad*%
%ADD15RoundRect,0.250000X-0.620000X-0.845000X0.620000X-0.845000X0.620000X0.845000X-0.620000X0.845000X0*%
%TD*%
%TA.AperFunction,ComponentPad*%
%ADD16O,1.740000X2.190000*%
%TD*%
%TA.AperFunction,SMDPad,CuDef*%
%ADD17RoundRect,0.250000X-0.475000X0.337500X-0.475000X-0.337500X0.475000X-0.337500X0.475000X0.337500X0*%
%TD*%
%TA.AperFunction,SMDPad,CuDef*%
%ADD18RoundRect,0.250000X0.337500X0.475000X-0.337500X0.475000X-0.337500X-0.475000X0.337500X-0.475000X0*%
%TD*%
%TA.AperFunction,SMDPad,CuDef*%
%ADD19RoundRect,0.250000X-0.350000X-0.450000X0.350000X-0.450000X0.350000X0.450000X-0.350000X0.450000X0*%
%TD*%
%TA.AperFunction,SMDPad,CuDef*%
%ADD20RoundRect,0.250000X0.650000X-0.412500X0.650000X0.412500X-0.650000X0.412500X-0.650000X-0.412500X0*%
%TD*%
%TA.AperFunction,SMDPad,CuDef*%
%ADD21R,0.740000X2.400000*%
%TD*%
%TA.AperFunction,SMDPad,CuDef*%
%ADD22RoundRect,0.250000X0.450000X-0.350000X0.450000X0.350000X-0.450000X0.350000X-0.450000X-0.350000X0*%
%TD*%
%TA.AperFunction,SMDPad,CuDef*%
%ADD23RoundRect,0.237500X0.300000X0.237500X-0.300000X0.237500X-0.300000X-0.237500X0.300000X-0.237500X0*%
%TD*%
%TA.AperFunction,SMDPad,CuDef*%
%ADD24RoundRect,0.150000X0.512500X0.150000X-0.512500X0.150000X-0.512500X-0.150000X0.512500X-0.150000X0*%
%TD*%
%TA.AperFunction,SMDPad,CuDef*%
%ADD25RoundRect,0.098750X0.296250X0.346250X-0.296250X0.346250X-0.296250X-0.346250X0.296250X-0.346250X0*%
%TD*%
%TA.AperFunction,SMDPad,CuDef*%
%ADD26RoundRect,0.250000X-0.650000X0.412500X-0.650000X-0.412500X0.650000X-0.412500X0.650000X0.412500X0*%
%TD*%
%TA.AperFunction,ComponentPad*%
%ADD27RoundRect,0.250000X0.620000X0.845000X-0.620000X0.845000X-0.620000X-0.845000X0.620000X-0.845000X0*%
%TD*%
%TA.AperFunction,SMDPad,CuDef*%
%ADD28RoundRect,0.237500X-0.287500X-0.237500X0.287500X-0.237500X0.287500X0.237500X-0.287500X0.237500X0*%
%TD*%
%TA.AperFunction,SMDPad,CuDef*%
%ADD29RoundRect,0.237500X0.237500X-0.250000X0.237500X0.250000X-0.237500X0.250000X-0.237500X-0.250000X0*%
%TD*%
%TA.AperFunction,SMDPad,CuDef*%
%ADD30RoundRect,0.237500X-0.237500X0.300000X-0.237500X-0.300000X0.237500X-0.300000X0.237500X0.300000X0*%
%TD*%
%TA.AperFunction,SMDPad,CuDef*%
%ADD31RoundRect,0.150000X0.425000X-0.150000X0.425000X0.150000X-0.425000X0.150000X-0.425000X-0.150000X0*%
%TD*%
%TA.AperFunction,SMDPad,CuDef*%
%ADD32RoundRect,0.075000X0.500000X-0.075000X0.500000X0.075000X-0.500000X0.075000X-0.500000X-0.075000X0*%
%TD*%
%TA.AperFunction,ComponentPad*%
%ADD33O,2.100000X1.000000*%
%TD*%
%TA.AperFunction,ComponentPad*%
%ADD34O,1.800000X1.000000*%
%TD*%
%TA.AperFunction,ComponentPad*%
%ADD35RoundRect,0.250000X0.845000X-0.620000X0.845000X0.620000X-0.845000X0.620000X-0.845000X-0.620000X0*%
%TD*%
%TA.AperFunction,ComponentPad*%
%ADD36O,2.190000X1.740000*%
%TD*%
%TA.AperFunction,SMDPad,CuDef*%
%ADD37RoundRect,0.075000X-0.700000X-0.075000X0.700000X-0.075000X0.700000X0.075000X-0.700000X0.075000X0*%
%TD*%
%TA.AperFunction,SMDPad,CuDef*%
%ADD38RoundRect,0.075000X-0.075000X-0.700000X0.075000X-0.700000X0.075000X0.700000X-0.075000X0.700000X0*%
%TD*%
%TA.AperFunction,SMDPad,CuDef*%
%ADD39RoundRect,0.250000X-0.450000X0.350000X-0.450000X-0.350000X0.450000X-0.350000X0.450000X0.350000X0*%
%TD*%
%TA.AperFunction,ViaPad*%
%ADD40C,0.700000*%
%TD*%
%TA.AperFunction,Conductor*%
%ADD41C,0.254000*%
%TD*%
%TA.AperFunction,Conductor*%
%ADD42C,0.635000*%
%TD*%
%TA.AperFunction,Conductor*%
%ADD43C,0.500000*%
%TD*%
%TA.AperFunction,Conductor*%
%ADD44C,0.300000*%
%TD*%
%TA.AperFunction,Conductor*%
%ADD45C,0.200000*%
%TD*%
%TA.AperFunction,Conductor*%
%ADD46C,0.177800*%
%TD*%
%TA.AperFunction,Conductor*%
%ADD47C,1.000000*%
%TD*%
G04 APERTURE END LIST*
D10*
%TO.P,R3,2*%
%TO.N,/LED_STRIP*%
X92800000Y-173130000D03*
%TO.P,R3,1*%
%TO.N,+5V*%
X92800000Y-171305000D03*
%TD*%
D11*
%TO.P,R11,2*%
%TO.N,GND*%
X94630000Y-171500000D03*
%TO.P,R11,1*%
%TO.N,/USB_CC1*%
X96630000Y-171500000D03*
%TD*%
D12*
%TO.P,C21,1*%
%TO.N,+3.3V*%
X84300000Y-158312500D03*
%TO.P,C21,2*%
%TO.N,GND*%
X84300000Y-156587500D03*
%TD*%
D13*
%TO.P,TP5,1,1*%
%TO.N,GND*%
X90230000Y-159370000D03*
%TD*%
D14*
%TO.P,TP8,1,1*%
%TO.N,/I2C_SDA*%
X78100000Y-148900000D03*
%TD*%
D15*
%TO.P,J9,1,Pin_1*%
%TO.N,GND*%
X87110000Y-174150000D03*
D16*
%TO.P,J9,2,Pin_2*%
%TO.N,+5V*%
X89650000Y-174150000D03*
%TD*%
D17*
%TO.P,C19,1*%
%TO.N,+3.3V*%
X66800000Y-167362500D03*
%TO.P,C19,2*%
%TO.N,GND*%
X66800000Y-169437500D03*
%TD*%
%TO.P,C16,1*%
%TO.N,/HSE_in*%
X65700000Y-159362500D03*
%TO.P,C16,2*%
%TO.N,GND*%
X65700000Y-161437500D03*
%TD*%
D18*
%TO.P,C15,1*%
%TO.N,/HSE_out*%
X66137500Y-163400000D03*
%TO.P,C15,2*%
%TO.N,GND*%
X64062500Y-163400000D03*
%TD*%
D19*
%TO.P,R15,1*%
%TO.N,Net-(U2-PC5)*%
X79975000Y-176400000D03*
%TO.P,R15,2*%
%TO.N,Net-(J6-Pin_2)*%
X81975000Y-176400000D03*
%TD*%
D15*
%TO.P,J7,1,Pin_1*%
%TO.N,+3.3V*%
X67160000Y-146200000D03*
D16*
%TO.P,J7,2,Pin_2*%
%TO.N,Net-(J7-Pin_2)*%
X69700000Y-146200000D03*
%TD*%
D20*
%TO.P,C27,1*%
%TO.N,+3.3V*%
X70750000Y-155500000D03*
%TO.P,C27,2*%
%TO.N,GND*%
X70750000Y-152375000D03*
%TD*%
D17*
%TO.P,C1,1*%
%TO.N,Net-(U2-PC5)*%
X77875000Y-174662500D03*
%TO.P,C1,2*%
%TO.N,GND*%
X77875000Y-176737500D03*
%TD*%
D21*
%TO.P,J1,1,VTref*%
%TO.N,+3.3V*%
X91790000Y-151700000D03*
%TO.P,J1,2,SWDIO/TMS*%
%TO.N,/SWD_DIO*%
X91790000Y-155600000D03*
%TO.P,J1,3,GND*%
%TO.N,GND*%
X90520000Y-151700000D03*
%TO.P,J1,4,SWCLK/TCK*%
%TO.N,/SWD_CLK*%
X90520000Y-155600000D03*
%TO.P,J1,5,GND*%
%TO.N,GND*%
X89250000Y-151700000D03*
%TO.P,J1,6,SWO/TDO*%
%TO.N,/SWD_TRC*%
X89250000Y-155600000D03*
%TO.P,J1,7,KEY*%
%TO.N,unconnected-(J1-KEY-Pad7)*%
X87980000Y-151700000D03*
%TO.P,J1,8,NC/TDI*%
%TO.N,unconnected-(J1-NC{slash}TDI-Pad8)*%
X87980000Y-155600000D03*
%TO.P,J1,9,GNDDetect*%
%TO.N,GND*%
X86710000Y-151700000D03*
%TO.P,J1,10,~{RESET}*%
%TO.N,/SWD_NRST*%
X86710000Y-155600000D03*
%TD*%
D22*
%TO.P,R16,1*%
%TO.N,/BOOT0*%
X74800000Y-154600000D03*
%TO.P,R16,2*%
%TO.N,GND*%
X74800000Y-152600000D03*
%TD*%
D19*
%TO.P,R18,1*%
%TO.N,+3.3V*%
X64200000Y-165400000D03*
%TO.P,R18,2*%
%TO.N,/SWD_NRST*%
X66200000Y-165400000D03*
%TD*%
D23*
%TO.P,C26,1*%
%TO.N,+3.3V*%
X70300000Y-158100000D03*
%TO.P,C26,2*%
%TO.N,GND*%
X68575000Y-158100000D03*
%TD*%
D24*
%TO.P,U4,1,VIN*%
%TO.N,+5V*%
X90530000Y-163420000D03*
%TO.P,U4,2,GND*%
%TO.N,GND*%
X90530000Y-162470000D03*
%TO.P,U4,3,EN*%
%TO.N,+5V*%
X90530000Y-161520000D03*
%TO.P,U4,4,NC*%
%TO.N,unconnected-(U4-NC-Pad4)*%
X88255000Y-161520000D03*
%TO.P,U4,5,VOUT*%
%TO.N,+3.3V*%
X88255000Y-163420000D03*
%TD*%
D25*
%TO.P,Y1,1,1*%
%TO.N,/HSE_out*%
X68745000Y-161540000D03*
%TO.P,Y1,2,2*%
%TO.N,GND*%
X68745000Y-160060000D03*
%TO.P,Y1,3,3*%
%TO.N,/HSE_in*%
X67565000Y-160060000D03*
%TO.P,Y1,4,4*%
%TO.N,GND*%
X67565000Y-161540000D03*
%TD*%
D22*
%TO.P,R1,1*%
%TO.N,Net-(J2-Pin_2)*%
X73225000Y-176000000D03*
%TO.P,R1,2*%
%TO.N,/LED_A*%
X73225000Y-174000000D03*
%TD*%
D26*
%TO.P,C17,1*%
%TO.N,Net-(U2-VCAP1)*%
X80175000Y-171012500D03*
%TO.P,C17,2*%
%TO.N,GND*%
X80175000Y-174137500D03*
%TD*%
D13*
%TO.P,TP6,1,1*%
%TO.N,+3.3V*%
X88180000Y-165745000D03*
%TD*%
D27*
%TO.P,J3,1,Pin_1*%
%TO.N,+3.3V*%
X86440000Y-143600000D03*
D16*
%TO.P,J3,2,Pin_2*%
%TO.N,GND*%
X83900000Y-143600000D03*
%TO.P,J3,3,Pin_3*%
%TO.N,/I2C_SCL*%
X81360000Y-143600000D03*
%TO.P,J3,4,Pin_4*%
%TO.N,/I2C_SDA*%
X78820000Y-143600000D03*
%TO.P,J3,5,Pin_5*%
%TO.N,/TOF_XSHUT*%
X76280000Y-143600000D03*
%TO.P,J3,6,Pin_6*%
%TO.N,/TOF_GPIO*%
X73740000Y-143600000D03*
%TD*%
D28*
%TO.P,D2,1,K*%
%TO.N,+5V*%
X94930000Y-163395000D03*
%TO.P,D2,2,A*%
%TO.N,Net-(D2-A)*%
X96680000Y-163395000D03*
%TD*%
D29*
%TO.P,R20,1*%
%TO.N,/UART_TXC*%
X69075000Y-172887500D03*
%TO.P,R20,2*%
%TO.N,/UART_TX*%
X69075000Y-171062500D03*
%TD*%
D30*
%TO.P,C23,1*%
%TO.N,/SWD_NRST*%
X68500000Y-163137500D03*
%TO.P,C23,2*%
%TO.N,GND*%
X68500000Y-164862500D03*
%TD*%
D22*
%TO.P,R2,1*%
%TO.N,Net-(J8-Pin_2)*%
X75500000Y-176000000D03*
%TO.P,R2,2*%
%TO.N,+3.3V*%
X75500000Y-174000000D03*
%TD*%
D29*
%TO.P,R21,1*%
%TO.N,/UART_RXC*%
X70975000Y-172912500D03*
%TO.P,R21,2*%
%TO.N,/UART_RX*%
X70975000Y-171087500D03*
%TD*%
D22*
%TO.P,R14,1*%
%TO.N,/I2C_SDA*%
X79050000Y-154400000D03*
%TO.P,R14,2*%
%TO.N,+3.3V*%
X79050000Y-152400000D03*
%TD*%
D31*
%TO.P,J4,A1,GND*%
%TO.N,GND*%
X99060000Y-170450000D03*
%TO.P,J4,A4,VBUS*%
%TO.N,Net-(D2-A)*%
X99060000Y-169650000D03*
D32*
%TO.P,J4,A5,CC1*%
%TO.N,/USB_CC1*%
X99060000Y-168500000D03*
%TO.P,J4,A6,D+*%
%TO.N,/USBC_D+*%
X99060000Y-167500000D03*
%TO.P,J4,A7,D-*%
%TO.N,/USBC_D-*%
X99060000Y-167000000D03*
%TO.P,J4,A8*%
%TO.N,N/C*%
X99060000Y-166000000D03*
D31*
%TO.P,J4,A9,VBUS*%
%TO.N,Net-(D2-A)*%
X99060000Y-164850000D03*
%TO.P,J4,A12,GND*%
%TO.N,GND*%
X99060000Y-164050000D03*
%TO.P,J4,B1,GND*%
X99060000Y-164050000D03*
%TO.P,J4,B4,VBUS*%
%TO.N,Net-(D2-A)*%
X99060000Y-164850000D03*
D32*
%TO.P,J4,B5,CC2*%
%TO.N,/USB_CC2*%
X99060000Y-165500000D03*
%TO.P,J4,B6,D+*%
%TO.N,/USBC_D+*%
X99060000Y-166500000D03*
%TO.P,J4,B7,D-*%
%TO.N,/USBC_D-*%
X99060000Y-168000000D03*
%TO.P,J4,B8*%
%TO.N,N/C*%
X99060000Y-169000000D03*
D31*
%TO.P,J4,B9,VBUS*%
%TO.N,Net-(D2-A)*%
X99060000Y-169650000D03*
%TO.P,J4,B12,GND*%
%TO.N,GND*%
X99060000Y-170450000D03*
D33*
%TO.P,J4,S1,SHIELD*%
X99635000Y-171570000D03*
D34*
X103815000Y-171570000D03*
D33*
X99635000Y-162930000D03*
D34*
X103815000Y-162930000D03*
%TD*%
D14*
%TO.P,TP1,1,1*%
%TO.N,/SWD_CLK*%
X94625000Y-152475000D03*
%TD*%
%TO.P,TP2,1,1*%
%TO.N,/SWD_DIO*%
X94625000Y-155600000D03*
%TD*%
D35*
%TO.P,J8,1,Pin_1*%
%TO.N,GND*%
X78475000Y-181940000D03*
D36*
%TO.P,J8,2,Pin_2*%
%TO.N,Net-(J8-Pin_2)*%
X78475000Y-179400000D03*
%TD*%
D12*
%TO.P,C24,1*%
%TO.N,/BOOT0*%
X73000000Y-151562500D03*
%TO.P,C24,2*%
%TO.N,GND*%
X73000000Y-149837500D03*
%TD*%
D37*
%TO.P,U2,1,VBAT*%
%TO.N,+3.3V*%
X71075000Y-159575000D03*
%TO.P,U2,2,PC13*%
%TO.N,unconnected-(U2-PC13-Pad2)*%
X71075000Y-160075000D03*
%TO.P,U2,3,PC14*%
%TO.N,unconnected-(U2-PC14-Pad3)*%
X71075000Y-160575000D03*
%TO.P,U2,4,PC15*%
%TO.N,unconnected-(U2-PC15-Pad4)*%
X71075000Y-161075000D03*
%TO.P,U2,5,PH0*%
%TO.N,/HSE_in*%
X71075000Y-161575000D03*
%TO.P,U2,6,PH1*%
%TO.N,/HSE_out*%
X71075000Y-162075000D03*
%TO.P,U2,7,NRST*%
%TO.N,/SWD_NRST*%
X71075000Y-162575000D03*
%TO.P,U2,8,PC0*%
%TO.N,unconnected-(U2-PC0-Pad8)*%
X71075000Y-163075000D03*
%TO.P,U2,9,PC1*%
%TO.N,unconnected-(U2-PC1-Pad9)*%
X71075000Y-163575000D03*
%TO.P,U2,10,PC2*%
%TO.N,unconnected-(U2-PC2-Pad10)*%
X71075000Y-164075000D03*
%TO.P,U2,11,PC3*%
%TO.N,unconnected-(U2-PC3-Pad11)*%
X71075000Y-164575000D03*
%TO.P,U2,12,VSSA*%
%TO.N,GND*%
X71075000Y-165075000D03*
%TO.P,U2,13,VREF+*%
%TO.N,+3.3V*%
X71075000Y-165575000D03*
%TO.P,U2,14,PA0*%
%TO.N,unconnected-(U2-PA0-Pad14)*%
X71075000Y-166075000D03*
%TO.P,U2,15,PA1*%
%TO.N,unconnected-(U2-PA1-Pad15)*%
X71075000Y-166575000D03*
%TO.P,U2,16,PA2*%
%TO.N,/UART_TX*%
X71075000Y-167075000D03*
D38*
%TO.P,U2,17,PA3*%
%TO.N,/UART_RX*%
X73000000Y-169000000D03*
%TO.P,U2,18,VSS*%
%TO.N,GND*%
X73500000Y-169000000D03*
%TO.P,U2,19,VDD*%
%TO.N,+3.3V*%
X74000000Y-169000000D03*
%TO.P,U2,20,PA4*%
%TO.N,unconnected-(U2-PA4-Pad20)*%
X74500000Y-169000000D03*
%TO.P,U2,21,PA5*%
%TO.N,unconnected-(U2-PA5-Pad21)*%
X75000000Y-169000000D03*
%TO.P,U2,22,PA6*%
%TO.N,/LED_A*%
X75500000Y-169000000D03*
%TO.P,U2,23,PA7*%
%TO.N,Net-(J8-Pin_2)*%
X76000000Y-169000000D03*
%TO.P,U2,24,PC4*%
%TO.N,unconnected-(U2-PC4-Pad24)*%
X76500000Y-169000000D03*
%TO.P,U2,25,PC5*%
%TO.N,Net-(U2-PC5)*%
X77000000Y-169000000D03*
%TO.P,U2,26,PB0*%
%TO.N,unconnected-(U2-PB0-Pad26)*%
X77500000Y-169000000D03*
%TO.P,U2,27,PB1*%
%TO.N,unconnected-(U2-PB1-Pad27)*%
X78000000Y-169000000D03*
%TO.P,U2,28,PB2*%
%TO.N,unconnected-(U2-PB2-Pad28)*%
X78500000Y-169000000D03*
%TO.P,U2,29,PB10*%
%TO.N,unconnected-(U2-PB10-Pad29)*%
X79000000Y-169000000D03*
%TO.P,U2,30,VCAP1*%
%TO.N,Net-(U2-VCAP1)*%
X79500000Y-169000000D03*
%TO.P,U2,31,VSS*%
%TO.N,GND*%
X80000000Y-169000000D03*
%TO.P,U2,32,VDD*%
%TO.N,+3.3V*%
X80500000Y-169000000D03*
D37*
%TO.P,U2,33,PB12*%
%TO.N,unconnected-(U2-PB12-Pad33)*%
X82425000Y-167075000D03*
%TO.P,U2,34,PB13*%
%TO.N,unconnected-(U2-PB13-Pad34)*%
X82425000Y-166575000D03*
%TO.P,U2,35,PB14*%
%TO.N,unconnected-(U2-PB14-Pad35)*%
X82425000Y-166075000D03*
%TO.P,U2,36,PB15*%
%TO.N,unconnected-(U2-PB15-Pad36)*%
X82425000Y-165575000D03*
%TO.P,U2,37,PC6*%
%TO.N,unconnected-(U2-PC6-Pad37)*%
X82425000Y-165075000D03*
%TO.P,U2,38,PC7*%
%TO.N,unconnected-(U2-PC7-Pad38)*%
X82425000Y-164575000D03*
%TO.P,U2,39,PC8*%
%TO.N,unconnected-(U2-PC8-Pad39)*%
X82425000Y-164075000D03*
%TO.P,U2,40,PC9*%
%TO.N,unconnected-(U2-PC9-Pad40)*%
X82425000Y-163575000D03*
%TO.P,U2,41,PA8*%
%TO.N,unconnected-(U2-PA8-Pad41)*%
X82425000Y-163075000D03*
%TO.P,U2,42,PA9*%
%TO.N,/LED_STRIP*%
X82425000Y-162575000D03*
%TO.P,U2,43,PA10*%
%TO.N,unconnected-(U2-PA10-Pad43)*%
X82425000Y-162075000D03*
%TO.P,U2,44,PA11*%
%TO.N,/USB_D-*%
X82425000Y-161575000D03*
%TO.P,U2,45,PA12*%
%TO.N,/USB_D+*%
X82425000Y-161075000D03*
%TO.P,U2,46,PA13*%
%TO.N,/SWD_DIO*%
X82425000Y-160575000D03*
%TO.P,U2,47,VSS*%
%TO.N,GND*%
X82425000Y-160075000D03*
%TO.P,U2,48,VDD*%
%TO.N,+3.3V*%
X82425000Y-159575000D03*
D38*
%TO.P,U2,49,PA14*%
%TO.N,/SWD_CLK*%
X80500000Y-157650000D03*
%TO.P,U2,50,PA15*%
%TO.N,unconnected-(U2-PA15-Pad50)*%
X80000000Y-157650000D03*
%TO.P,U2,51,PC10*%
%TO.N,unconnected-(U2-PC10-Pad51)*%
X79500000Y-157650000D03*
%TO.P,U2,52,PC11*%
%TO.N,unconnected-(U2-PC11-Pad52)*%
X79000000Y-157650000D03*
%TO.P,U2,53,PC12*%
%TO.N,unconnected-(U2-PC12-Pad53)*%
X78500000Y-157650000D03*
%TO.P,U2,54,PD2*%
%TO.N,unconnected-(U2-PD2-Pad54)*%
X78000000Y-157650000D03*
%TO.P,U2,55,PB3*%
%TO.N,/SWD_TRC*%
X77500000Y-157650000D03*
%TO.P,U2,56,PB4*%
%TO.N,unconnected-(U2-PB4-Pad56)*%
X77000000Y-157650000D03*
%TO.P,U2,57,PB5*%
%TO.N,unconnected-(U2-PB5-Pad57)*%
X76500000Y-157650000D03*
%TO.P,U2,58,PB6*%
%TO.N,/I2C_SCL*%
X76000000Y-157650000D03*
%TO.P,U2,59,PB7*%
%TO.N,/I2C_SDA*%
X75500000Y-157650000D03*
%TO.P,U2,60,BOOT0*%
%TO.N,/BOOT0*%
X75000000Y-157650000D03*
%TO.P,U2,61,PB8*%
%TO.N,/TOF_XSHUT*%
X74500000Y-157650000D03*
%TO.P,U2,62,PB9*%
%TO.N,/TOF_GPIO*%
X74000000Y-157650000D03*
%TO.P,U2,63,VSS*%
%TO.N,GND*%
X73500000Y-157650000D03*
%TO.P,U2,64,VDD*%
%TO.N,+3.3V*%
X73000000Y-157650000D03*
%TD*%
D29*
%TO.P,R17,1*%
%TO.N,/BOOT0*%
X77000000Y-154000000D03*
%TO.P,R17,2*%
%TO.N,Net-(J7-Pin_2)*%
X77000000Y-152175000D03*
%TD*%
D17*
%TO.P,C18,1*%
%TO.N,+3.3V*%
X68900000Y-166962500D03*
%TO.P,C18,2*%
%TO.N,GND*%
X68900000Y-169037500D03*
%TD*%
D30*
%TO.P,C22,1*%
%TO.N,+3.3V*%
X82175000Y-169462500D03*
%TO.P,C22,2*%
%TO.N,GND*%
X82175000Y-171187500D03*
%TD*%
D20*
%TO.P,C5,1*%
%TO.N,+5V*%
X92747500Y-163422500D03*
%TO.P,C5,2*%
%TO.N,GND*%
X92747500Y-160297500D03*
%TD*%
D24*
%TO.P,U3,1,I/O1*%
%TO.N,/USBC_D-*%
X88537500Y-169787500D03*
%TO.P,U3,2,GND*%
%TO.N,GND*%
X88537500Y-168837500D03*
%TO.P,U3,3,I/O2*%
%TO.N,/USBC_D+*%
X88537500Y-167887500D03*
%TO.P,U3,4,I/O2*%
%TO.N,/USB_D+*%
X86262500Y-167887500D03*
%TO.P,U3,5,VBUS*%
%TO.N,+5V*%
X86262500Y-168837500D03*
%TO.P,U3,6,I/O1*%
%TO.N,/USB_D-*%
X86262500Y-169787500D03*
%TD*%
D20*
%TO.P,C9,1*%
%TO.N,+3.3V*%
X85997500Y-163472500D03*
%TO.P,C9,2*%
%TO.N,GND*%
X85997500Y-160347500D03*
%TD*%
D14*
%TO.P,TP7,1,1*%
%TO.N,/I2C_SCL*%
X81400000Y-148900000D03*
%TD*%
D15*
%TO.P,J5,1,Pin_1*%
%TO.N,+3.3V*%
X62505000Y-177350000D03*
D16*
%TO.P,J5,2,Pin_2*%
%TO.N,/UART_TXC*%
X65045000Y-177350000D03*
%TO.P,J5,3,Pin_3*%
%TO.N,/UART_RXC*%
X67585000Y-177350000D03*
%TO.P,J5,4,Pin_4*%
%TO.N,GND*%
X70125000Y-177350000D03*
%TD*%
D11*
%TO.P,R10,1*%
%TO.N,/USB_CC2*%
X96630000Y-165470000D03*
%TO.P,R10,2*%
%TO.N,GND*%
X94630000Y-165470000D03*
%TD*%
D12*
%TO.P,C20,1*%
%TO.N,+3.3V*%
X73000000Y-155500000D03*
%TO.P,C20,2*%
%TO.N,GND*%
X73000000Y-153775000D03*
%TD*%
D27*
%TO.P,J6,1,Pin_1*%
%TO.N,+3.3V*%
X86325000Y-181000000D03*
D16*
%TO.P,J6,2,Pin_2*%
%TO.N,Net-(J6-Pin_2)*%
X83785000Y-181000000D03*
%TD*%
D23*
%TO.P,C25,1*%
%TO.N,+3.3V*%
X74387500Y-170975000D03*
%TO.P,C25,2*%
%TO.N,GND*%
X72662500Y-170975000D03*
%TD*%
D39*
%TO.P,R13,1*%
%TO.N,+3.3V*%
X81150000Y-152400000D03*
%TO.P,R13,2*%
%TO.N,/I2C_SCL*%
X81150000Y-154400000D03*
%TD*%
D15*
%TO.P,J2,1,Pin_1*%
%TO.N,GND*%
X70550000Y-184300000D03*
D16*
%TO.P,J2,2,Pin_2*%
%TO.N,Net-(J2-Pin_2)*%
X73090000Y-184300000D03*
%TD*%
D40*
%TO.N,GND*%
X83000000Y-158000000D03*
X72000000Y-157500000D03*
X67500000Y-165500000D03*
X75000000Y-165500000D03*
X104000000Y-174000000D03*
X104000000Y-160500000D03*
X94500000Y-174000000D03*
X86000000Y-166000000D03*
X95000000Y-169500000D03*
X90000000Y-166500000D03*
X97500000Y-160500000D03*
X88000000Y-160000000D03*
X85000000Y-152000000D03*
X89000000Y-148500000D03*
X84000000Y-146500000D03*
X70000000Y-149000000D03*
X65500000Y-155000000D03*
X79500000Y-163000000D03*
X80000000Y-167500000D03*
X66500000Y-173500000D03*
X67000000Y-172000000D03*
X67000000Y-181000000D03*
X69500000Y-181000000D03*
X76500000Y-185000000D03*
X81000000Y-184500000D03*
X83500000Y-174000000D03*
X88500000Y-178000000D03*
%TO.N,/LED_A*%
X73000000Y-172500000D03*
%TO.N,+3.3V*%
X76000000Y-173000000D03*
%TO.N,/LED_A*%
X75500000Y-172000000D03*
%TO.N,+5V*%
X92500000Y-169500000D03*
%TO.N,/SWD_TRC*%
X85000000Y-154500000D03*
%TO.N,/I2C_SCL*%
X82500000Y-154000000D03*
X82000000Y-151000000D03*
%TO.N,/SWD_TRC*%
X81000000Y-156000000D03*
%TO.N,/TOF_XSHUT*%
X75000000Y-159500000D03*
%TO.N,/TOF_GPIO*%
X73500000Y-159500000D03*
%TO.N,+5V*%
X95000000Y-161000000D03*
%TD*%
D41*
%TO.N,GND*%
X84300000Y-156700000D02*
X83000000Y-158000000D01*
X84300000Y-156587500D02*
X84300000Y-156700000D01*
%TO.N,/SWD_DIO*%
X82459313Y-157184155D02*
X81571734Y-158071734D01*
X82459313Y-157084367D02*
X82459313Y-157184155D01*
X81705000Y-158947992D02*
X81322000Y-159330992D01*
X81571734Y-158071734D02*
X81705000Y-158205000D01*
X81705000Y-158205000D02*
X81705000Y-158947992D01*
%TO.N,/SWD_NRST*%
X81000000Y-158000000D02*
X81000000Y-158500000D01*
X81000000Y-158500000D02*
X81250000Y-158750000D01*
X81250000Y-158750000D02*
X77425000Y-162575000D01*
X82000000Y-157000000D02*
X81000000Y-158000000D01*
X82000000Y-156900212D02*
X82000000Y-157000000D01*
D42*
%TO.N,+3.3V*%
X84300000Y-160000000D02*
X84300000Y-160806250D01*
X83706500Y-159406500D02*
X82425000Y-159406500D01*
X84300000Y-160000000D02*
X83706500Y-159406500D01*
D41*
%TO.N,/SWD_TRC*%
X77500000Y-156000000D02*
X81000000Y-156000000D01*
%TO.N,GND*%
X89677000Y-166823000D02*
X90000000Y-166500000D01*
X88177000Y-166823000D02*
X89677000Y-166823000D01*
X87547000Y-167453000D02*
X88177000Y-166823000D01*
X87547000Y-168239650D02*
X87547000Y-167453000D01*
X88144850Y-168837500D02*
X87547000Y-168239650D01*
X88537500Y-168837500D02*
X88144850Y-168837500D01*
X77875000Y-176737500D02*
X79898000Y-178760500D01*
X79898000Y-178760500D02*
X79898000Y-180517000D01*
X79898000Y-180517000D02*
X78475000Y-181940000D01*
X80000000Y-169000000D02*
X80000000Y-167500000D01*
D42*
%TO.N,+5V*%
X95000000Y-161000000D02*
X95000000Y-161170000D01*
X95000000Y-161170000D02*
X92747500Y-163422500D01*
X92800000Y-169800000D02*
X92500000Y-169500000D01*
X92800000Y-171305000D02*
X92800000Y-169800000D01*
D41*
%TO.N,GND*%
X79500000Y-162000000D02*
X79500000Y-163000000D01*
X81425000Y-160075000D02*
X79500000Y-162000000D01*
X82425000Y-160075000D02*
X81425000Y-160075000D01*
%TO.N,/SWD_DIO*%
X91790000Y-156710000D02*
X91372000Y-157128000D01*
X91790000Y-155600000D02*
X91790000Y-156710000D01*
X86184320Y-157128000D02*
X84778320Y-155722000D01*
X91372000Y-157128000D02*
X86184320Y-157128000D01*
X81322000Y-159330992D02*
X81312476Y-159330992D01*
X84778320Y-155722000D02*
X83821680Y-155722000D01*
X83821680Y-155722000D02*
X82459313Y-157084367D01*
X78000000Y-164500000D02*
X80867000Y-164500000D01*
X81312476Y-159330992D02*
X78000000Y-162643468D01*
X81577992Y-160575000D02*
X82425000Y-160575000D01*
X78000000Y-162643468D02*
X78000000Y-164500000D01*
X80867000Y-164500000D02*
X80867000Y-161285992D01*
X80867000Y-161285992D02*
X81577992Y-160575000D01*
%TO.N,GND*%
X85997500Y-160347500D02*
X85997500Y-161010000D01*
X85997500Y-161010000D02*
X87457500Y-162470000D01*
X87457500Y-162470000D02*
X90530000Y-162470000D01*
X90230000Y-159370000D02*
X90870000Y-159370000D01*
X90870000Y-159370000D02*
X91797500Y-160297500D01*
X91797500Y-160297500D02*
X92747500Y-160297500D01*
X90230000Y-159370000D02*
X86975000Y-159370000D01*
X86975000Y-159370000D02*
X85997500Y-160347500D01*
X74800000Y-152600000D02*
X74800000Y-151637500D01*
X74800000Y-151637500D02*
X73000000Y-149837500D01*
X72000000Y-157997008D02*
X72000000Y-157500000D01*
X72755992Y-158753000D02*
X72000000Y-157997008D01*
X73244008Y-158753000D02*
X72755992Y-158753000D01*
X73500000Y-158497008D02*
X73244008Y-158753000D01*
X73500000Y-157650000D02*
X73500000Y-158497008D01*
%TO.N,Net-(J7-Pin_2)*%
X69700000Y-146200000D02*
X71088127Y-146200000D01*
X77000000Y-152111873D02*
X77000000Y-152175000D01*
X71088127Y-146200000D02*
X77000000Y-152111873D01*
%TO.N,GND*%
X67565000Y-161540000D02*
X67565000Y-161308754D01*
X67565000Y-161308754D02*
X68745000Y-160128754D01*
X68745000Y-160128754D02*
X68745000Y-160060000D01*
X67862500Y-165500000D02*
X67500000Y-165500000D01*
X68500000Y-164862500D02*
X67862500Y-165500000D01*
X71075000Y-165075000D02*
X68712500Y-165075000D01*
X68712500Y-165075000D02*
X68500000Y-164862500D01*
%TO.N,+3.3V*%
X69958586Y-165575000D02*
X69925000Y-165575000D01*
X69925000Y-165575000D02*
X69500000Y-166000000D01*
D42*
X68900000Y-166962500D02*
X68900000Y-166600000D01*
D43*
X68900000Y-166600000D02*
X69500000Y-166000000D01*
D41*
%TO.N,GND*%
X72662500Y-170975000D02*
X71790660Y-171846840D01*
X71790660Y-171846840D02*
X71790660Y-175684340D01*
X71790660Y-175684340D02*
X70125000Y-177350000D01*
X73500000Y-169000000D02*
X73500000Y-170137500D01*
X73500000Y-170137500D02*
X72662500Y-170975000D01*
D42*
X68900000Y-169037500D02*
X67200000Y-169037500D01*
X67200000Y-169037500D02*
X66800000Y-169437500D01*
%TO.N,+3.3V*%
X76000000Y-173500000D02*
X76000000Y-173000000D01*
X75500000Y-174000000D02*
X76000000Y-173500000D01*
X62505000Y-177350000D02*
X62505000Y-181005000D01*
X86325000Y-183175000D02*
X86325000Y-181000000D01*
X62505000Y-181005000D02*
X69000000Y-187500000D01*
X69000000Y-187500000D02*
X82000000Y-187500000D01*
X82000000Y-187500000D02*
X86325000Y-183175000D01*
X67160000Y-146200000D02*
X62505000Y-150855000D01*
X62505000Y-150855000D02*
X62505000Y-177350000D01*
X84300000Y-158312500D02*
X84511000Y-158101500D01*
X84511000Y-158101500D02*
X96898500Y-158101500D01*
X97450000Y-148950000D02*
X91790000Y-148950000D01*
X96898500Y-158101500D02*
X98500000Y-156500000D01*
X98500000Y-156500000D02*
X98500000Y-150000000D01*
X98500000Y-150000000D02*
X97450000Y-148950000D01*
X67160000Y-146200000D02*
X71373500Y-141986500D01*
X84826500Y-141986500D02*
X86440000Y-143600000D01*
X71373500Y-141986500D02*
X84826500Y-141986500D01*
D41*
%TO.N,/I2C_SCL*%
X82500000Y-154000000D02*
X81550000Y-154000000D01*
X81550000Y-154000000D02*
X81150000Y-154400000D01*
X81400000Y-150400000D02*
X82000000Y-151000000D01*
X81400000Y-148900000D02*
X81400000Y-150400000D01*
%TO.N,/LED_STRIP*%
X82425000Y-162575000D02*
X81577992Y-162575000D01*
X81577992Y-162575000D02*
X81322000Y-162830992D01*
X81322000Y-162830992D02*
X81322000Y-167319008D01*
X81322000Y-167319008D02*
X81555992Y-167553000D01*
X81555992Y-167553000D02*
X82685350Y-167553000D01*
X82685350Y-167553000D02*
X87132350Y-172000000D01*
X87132350Y-172000000D02*
X87500000Y-172000000D01*
X87500000Y-172000000D02*
X88452000Y-172952000D01*
X90357000Y-175573000D02*
X92800000Y-173130000D01*
X88452000Y-172952000D02*
X88452000Y-174871228D01*
X88452000Y-174871228D02*
X89153772Y-175573000D01*
X89153772Y-175573000D02*
X90357000Y-175573000D01*
%TO.N,Net-(J2-Pin_2)*%
X73225000Y-176000000D02*
X73225000Y-184165000D01*
X73225000Y-184165000D02*
X73090000Y-184300000D01*
%TO.N,Net-(J8-Pin_2)*%
X78475000Y-179400000D02*
X78475000Y-178975000D01*
X78475000Y-178975000D02*
X75500000Y-176000000D01*
%TO.N,/LED_A*%
X73000000Y-172500000D02*
X73000000Y-173775000D01*
X73000000Y-173775000D02*
X73225000Y-174000000D01*
%TO.N,Net-(J8-Pin_2)*%
X77000000Y-173519658D02*
X77000000Y-171000000D01*
X76822000Y-173697658D02*
X77000000Y-173519658D01*
X77000000Y-171000000D02*
X76000000Y-170000000D01*
X76000000Y-170000000D02*
X76000000Y-169000000D01*
%TO.N,/LED_A*%
X75500000Y-169000000D02*
X75500000Y-172000000D01*
D44*
%TO.N,+3.3V*%
X74000000Y-169000000D02*
X74000000Y-170587500D01*
X74000000Y-170587500D02*
X74387500Y-170975000D01*
D42*
X74387500Y-170975000D02*
X74387500Y-172887500D01*
X74387500Y-172887500D02*
X75500000Y-174000000D01*
D41*
%TO.N,Net-(J6-Pin_2)*%
X81975000Y-176400000D02*
X81975000Y-179190000D01*
X81975000Y-179190000D02*
X83785000Y-181000000D01*
%TO.N,Net-(U2-PC5)*%
X77875000Y-174662500D02*
X78237500Y-174662500D01*
X78237500Y-174662500D02*
X79975000Y-176400000D01*
X77875000Y-174662500D02*
X77875000Y-170722008D01*
X77875000Y-170722008D02*
X77000000Y-169847008D01*
X77000000Y-169847008D02*
X77000000Y-169000000D01*
%TO.N,Net-(J8-Pin_2)*%
X76822000Y-173697658D02*
X76822000Y-174678000D01*
X76822000Y-174678000D02*
X75500000Y-176000000D01*
%TO.N,+3.3V*%
X71075000Y-165575000D02*
X69958586Y-165575000D01*
X69958586Y-165575000D02*
X69941793Y-165558207D01*
%TO.N,/HSE_in*%
X67565000Y-160060000D02*
X66397500Y-160060000D01*
X66397500Y-160060000D02*
X65700000Y-159362500D01*
%TO.N,/SWD_NRST*%
X71075000Y-162575000D02*
X69062500Y-162575000D01*
X69062500Y-162575000D02*
X68500000Y-163137500D01*
X68500000Y-163137500D02*
X68462500Y-163137500D01*
X68462500Y-163137500D02*
X66200000Y-165400000D01*
%TO.N,/HSE_out*%
X68745000Y-161540000D02*
X68745000Y-161608754D01*
X68745000Y-161608754D02*
X68040754Y-162313000D01*
X68040754Y-162313000D02*
X67224500Y-162313000D01*
X67224500Y-162313000D02*
X66137500Y-163400000D01*
X71075000Y-162075000D02*
X69280000Y-162075000D01*
X69280000Y-162075000D02*
X68745000Y-161540000D01*
%TO.N,/HSE_in*%
X71075000Y-161575000D02*
X69468000Y-161575000D01*
X69468000Y-161575000D02*
X69468000Y-159534246D01*
X69468000Y-159534246D02*
X69220754Y-159287000D01*
X69220754Y-159287000D02*
X68269246Y-159287000D01*
X68269246Y-159287000D02*
X67565000Y-159991246D01*
X67565000Y-159991246D02*
X67565000Y-160060000D01*
%TO.N,/UART_TX*%
X69075000Y-171062500D02*
X71075000Y-169062500D01*
X71075000Y-169062500D02*
X71075000Y-167075000D01*
%TO.N,/UART_TXC*%
X69075000Y-172887500D02*
X69075000Y-173320000D01*
X69075000Y-173320000D02*
X65045000Y-177350000D01*
%TO.N,/UART_RXC*%
X67585000Y-177350000D02*
X70975000Y-173960000D01*
X70975000Y-173960000D02*
X70975000Y-172912500D01*
%TO.N,/TOF_XSHUT*%
X74500000Y-159000000D02*
X75000000Y-159500000D01*
X74500000Y-157650000D02*
X74500000Y-159000000D01*
%TO.N,/TOF_GPIO*%
X74000000Y-159000000D02*
X73500000Y-159500000D01*
X74000000Y-157650000D02*
X74000000Y-159000000D01*
%TO.N,/I2C_SDA*%
X79050000Y-154400000D02*
X78533000Y-154917000D01*
X75500000Y-156468405D02*
X75500000Y-157650000D01*
X78533000Y-154917000D02*
X77051405Y-154917000D01*
X77051405Y-154917000D02*
X75500000Y-156468405D01*
X78820000Y-143600000D02*
X78820000Y-148180000D01*
X78820000Y-148180000D02*
X78100000Y-148900000D01*
%TO.N,/I2C_SCL*%
X81360000Y-143600000D02*
X81360000Y-148860000D01*
X81360000Y-148860000D02*
X81400000Y-148900000D01*
%TO.N,/I2C_SDA*%
X79050000Y-154400000D02*
X78022000Y-153372000D01*
X78022000Y-153372000D02*
X78022000Y-148978000D01*
X78022000Y-148978000D02*
X78100000Y-148900000D01*
%TO.N,/I2C_SCL*%
X81150000Y-154400000D02*
X80178000Y-155372000D01*
X77239873Y-155372000D02*
X76000000Y-156611873D01*
X76000000Y-156611873D02*
X76000000Y-157650000D01*
X80178000Y-155372000D02*
X77239873Y-155372000D01*
%TO.N,/SWD_TRC*%
X77500000Y-156000000D02*
X77500000Y-157650000D01*
X88678000Y-154072000D02*
X85428000Y-154072000D01*
X89250000Y-154644000D02*
X88678000Y-154072000D01*
X85428000Y-154072000D02*
X85000000Y-154500000D01*
X89250000Y-155600000D02*
X89250000Y-154644000D01*
%TO.N,/SWD_CLK*%
X80500000Y-157650000D02*
X84922000Y-153228000D01*
X84922000Y-153228000D02*
X90374000Y-153228000D01*
X90374000Y-153228000D02*
X91218000Y-154072000D01*
%TO.N,/SWD_NRST*%
X77425000Y-162575000D02*
X71075000Y-162575000D01*
X83633212Y-155267000D02*
X82000000Y-156900212D01*
X86377000Y-155267000D02*
X83633212Y-155267000D01*
X86710000Y-155600000D02*
X86377000Y-155267000D01*
%TO.N,/SWD_CLK*%
X94625000Y-152475000D02*
X93028000Y-154072000D01*
X93028000Y-154072000D02*
X91218000Y-154072000D01*
X90520000Y-154770000D02*
X90520000Y-155600000D01*
X91218000Y-154072000D02*
X90520000Y-154770000D01*
%TO.N,/SWD_DIO*%
X91790000Y-155600000D02*
X94625000Y-155600000D01*
D42*
%TO.N,+5V*%
X90530000Y-161520000D02*
X91192499Y-161520000D01*
X91192499Y-161520000D02*
X92747500Y-163075001D01*
X92747500Y-163075001D02*
X92747500Y-163422500D01*
X92747500Y-163422500D02*
X90532500Y-163422500D01*
X90532500Y-163422500D02*
X90530000Y-163420000D01*
X94930000Y-163395000D02*
X92775000Y-163395000D01*
X92775000Y-163395000D02*
X92747500Y-163422500D01*
%TO.N,+3.3V*%
X91790000Y-148950000D02*
X88920000Y-146080000D01*
X82600000Y-152400000D02*
X88920000Y-146080000D01*
X81150000Y-152400000D02*
X82600000Y-152400000D01*
X91790000Y-151700000D02*
X91790000Y-148950000D01*
X88920000Y-146080000D02*
X86440000Y-143600000D01*
X84300000Y-158312500D02*
X84300000Y-160000000D01*
X84300000Y-160806250D02*
X85997500Y-162503750D01*
X85997500Y-162503750D02*
X85997500Y-163472500D01*
X85997500Y-163472500D02*
X88202500Y-163472500D01*
X88202500Y-163472500D02*
X88255000Y-163420000D01*
X88255000Y-163420000D02*
X88255000Y-165670000D01*
X88255000Y-165670000D02*
X88180000Y-165745000D01*
X85997500Y-163472500D02*
X85997500Y-163562500D01*
X85997500Y-163562500D02*
X88180000Y-165745000D01*
D45*
%TO.N,/USB_D+*%
X83419192Y-161124000D02*
X83950980Y-161655788D01*
X83950980Y-166491537D02*
X83950980Y-166839583D01*
X82425000Y-161075000D02*
X82474000Y-161124000D01*
X85986303Y-167887500D02*
X86262500Y-167887500D01*
X82474000Y-161124000D02*
X83419192Y-161124000D01*
X83950980Y-161655788D02*
X83950980Y-165291537D01*
X84190980Y-165531537D02*
X84310845Y-165531537D01*
X84550845Y-165771537D02*
X84550845Y-165891537D01*
X84310845Y-166131537D02*
X84190980Y-166131537D01*
X83950980Y-166371537D02*
X83950980Y-166491537D01*
X83950980Y-166839583D02*
X84998897Y-167887500D01*
X84998897Y-167887500D02*
X85986303Y-167887500D01*
X83950980Y-165291537D02*
G75*
G03*
X84190980Y-165531520I240020J37D01*
G01*
X84310845Y-165531537D02*
G75*
G02*
X84550763Y-165771537I-45J-239963D01*
G01*
X84190980Y-166131537D02*
G75*
G03*
X83951037Y-166371537I20J-239963D01*
G01*
X84550845Y-165891537D02*
G75*
G02*
X84310845Y-166131545I-240045J37D01*
G01*
%TO.N,/USB_D-*%
X82425000Y-161624000D02*
X82425000Y-161575000D01*
X83282824Y-161624000D02*
X82425000Y-161624000D01*
X85559032Y-169438500D02*
X85299000Y-169178468D01*
X85299000Y-168824000D02*
X83501000Y-167026000D01*
X85299000Y-169178468D02*
X85299000Y-168824000D01*
X85913500Y-169438500D02*
X85559032Y-169438500D01*
X86262500Y-169787500D02*
X85913500Y-169438500D01*
X83501000Y-167026000D02*
X83501000Y-161842176D01*
X83501000Y-161842176D02*
X83282824Y-161624000D01*
D43*
%TO.N,+5V*%
X86262500Y-168837500D02*
X86924999Y-168837500D01*
X86924999Y-168837500D02*
X87376000Y-169288501D01*
X87376000Y-169288501D02*
X87376000Y-170876000D01*
X87376000Y-170876000D02*
X89650000Y-173150000D01*
X89650000Y-173150000D02*
X89650000Y-174150000D01*
D42*
X92800000Y-171305000D02*
X92495000Y-171305000D01*
X92495000Y-171305000D02*
X89650000Y-174150000D01*
%TO.N,+3.3V*%
X64200000Y-165400000D02*
X64200000Y-175655000D01*
X64200000Y-175655000D02*
X62505000Y-177350000D01*
X86325000Y-181000000D02*
X85721500Y-180396500D01*
X85721500Y-180396500D02*
X85721500Y-173009000D01*
X85721500Y-173009000D02*
X82175000Y-169462500D01*
X67160000Y-146200000D02*
X67160000Y-151910000D01*
X67160000Y-151910000D02*
X70750000Y-155500000D01*
X81150000Y-152400000D02*
X79050000Y-152400000D01*
X70300000Y-158100000D02*
X70300000Y-158631500D01*
X70300000Y-158631500D02*
X71075000Y-159406500D01*
X70300000Y-158100000D02*
X70300000Y-155950000D01*
X70300000Y-155950000D02*
X70750000Y-155500000D01*
X64200000Y-165400000D02*
X66162500Y-167362500D01*
X66162500Y-167362500D02*
X66800000Y-167362500D01*
X66800000Y-167362500D02*
X68500000Y-167362500D01*
X68500000Y-167362500D02*
X68900000Y-166962500D01*
X82175000Y-169462500D02*
X81131000Y-169462500D01*
X81131000Y-169462500D02*
X80668500Y-169000000D01*
D46*
%TO.N,/USB_CC1*%
X99060000Y-168500000D02*
X98000000Y-168500000D01*
X96630000Y-169870000D02*
X96630000Y-171500000D01*
X98000000Y-168500000D02*
X96630000Y-169870000D01*
D41*
%TO.N,GND*%
X99060000Y-164050000D02*
X99060000Y-163505000D01*
X99060000Y-163505000D02*
X99635000Y-162930000D01*
X99060000Y-170450000D02*
X99060000Y-170995000D01*
X99060000Y-170995000D02*
X99635000Y-171570000D01*
%TO.N,/USB_CC2*%
X96630000Y-165470000D02*
X96660000Y-165500000D01*
X96660000Y-165500000D02*
X99060000Y-165500000D01*
%TO.N,Net-(D2-A)*%
X99060000Y-164850000D02*
X98135000Y-164850000D01*
X98135000Y-164850000D02*
X96680000Y-163395000D01*
D45*
%TO.N,/USBC_D+*%
X93344945Y-167525000D02*
X93494224Y-167525000D01*
X88537500Y-167887500D02*
X89801103Y-167887500D01*
X93494224Y-167525000D02*
X98172499Y-167525000D01*
X92984945Y-167272399D02*
X92984945Y-167285000D01*
X98172499Y-167525000D02*
X98197499Y-167500000D01*
X89801103Y-167887500D02*
X90163603Y-167525000D01*
X90163603Y-167525000D02*
X92144945Y-167525000D01*
X92384945Y-167285000D02*
X92384945Y-167272399D01*
X92624945Y-167032399D02*
X92744945Y-167032399D01*
X93224945Y-167525000D02*
X93344945Y-167525000D01*
X98197499Y-167500000D02*
X99060000Y-167500000D01*
X92984945Y-167285000D02*
G75*
G03*
X93224945Y-167524955I239955J0D01*
G01*
X92144945Y-167525000D02*
G75*
G03*
X92384900Y-167285000I-45J240000D01*
G01*
X92384945Y-167272399D02*
G75*
G02*
X92624945Y-167032445I239955J-1D01*
G01*
X92744945Y-167032399D02*
G75*
G02*
X92984901Y-167272399I-45J-240001D01*
G01*
D46*
%TO.N,/USBC_D-*%
X99060000Y-167000000D02*
X99653124Y-167000000D01*
X99653124Y-167000000D02*
X99924900Y-167271776D01*
X99924900Y-167271776D02*
X99924900Y-167728224D01*
X99924900Y-167728224D02*
X99653124Y-168000000D01*
X99653124Y-168000000D02*
X99060000Y-168000000D01*
D45*
%TO.N,/USBC_D+*%
X99060000Y-167500000D02*
X98451176Y-167500000D01*
X98451176Y-167500000D02*
X98184000Y-167232824D01*
X98184000Y-167232824D02*
X98184000Y-166767176D01*
X98184000Y-166767176D02*
X98451176Y-166500000D01*
X98451176Y-166500000D02*
X99060000Y-166500000D01*
D44*
%TO.N,+3.3V*%
X73000000Y-157650000D02*
X73000000Y-156500000D01*
D47*
X73000000Y-155500000D02*
X70750000Y-155500000D01*
D43*
X73000000Y-156500000D02*
X73000000Y-155500000D01*
D44*
%TO.N,Net-(U2-VCAP1)*%
X79500000Y-169000000D02*
X79500000Y-170200000D01*
D45*
%TO.N,/USBC_D-*%
X89240968Y-169438500D02*
X88886500Y-169438500D01*
X90704468Y-167975000D02*
X89240968Y-169438500D01*
X98172499Y-167975000D02*
X90704468Y-167975000D01*
X88886500Y-169438500D02*
X88537500Y-169787500D01*
X99060000Y-168000000D02*
X98197499Y-168000000D01*
X98197499Y-168000000D02*
X98172499Y-167975000D01*
D43*
%TO.N,Net-(U2-VCAP1)*%
X79500000Y-170200000D02*
X79500000Y-170337500D01*
X79500000Y-170337500D02*
X80175000Y-171012500D01*
D41*
%TO.N,Net-(D2-A)*%
X99560097Y-164850000D02*
X99060000Y-164850000D01*
X101013000Y-166302903D02*
X99560097Y-164850000D01*
X100527969Y-172398000D02*
X101013000Y-171912969D01*
X98742031Y-172398000D02*
X100527969Y-172398000D01*
X101013000Y-171912969D02*
X101013000Y-166302903D01*
X98000000Y-171655969D02*
X98742031Y-172398000D01*
X98000000Y-170135001D02*
X98000000Y-171655969D01*
X98485001Y-169650000D02*
X98000000Y-170135001D01*
X99060000Y-169650000D02*
X98485001Y-169650000D01*
%TO.N,/UART_RX*%
X70975000Y-171025000D02*
X70975000Y-171087500D01*
X73000000Y-169000000D02*
X70975000Y-171025000D01*
%TO.N,/BOOT0*%
X75000000Y-154800000D02*
X75000000Y-157650000D01*
X74800000Y-154600000D02*
X75000000Y-154800000D01*
X76400000Y-154600000D02*
X77000000Y-154000000D01*
X74800000Y-154600000D02*
X76400000Y-154600000D01*
X73000000Y-152424342D02*
X73000000Y-151562500D01*
X74800000Y-154224342D02*
X73000000Y-152424342D01*
X74800000Y-154600000D02*
X74800000Y-154224342D01*
%TD*%
%TA.AperFunction,Conductor*%
%TO.N,GND*%
G36*
X71930047Y-173572177D02*
G01*
X71945459Y-173573497D01*
X71961443Y-173585816D01*
X71979949Y-173593856D01*
X71988550Y-173606708D01*
X72000799Y-173616149D01*
X72007584Y-173635151D01*
X72018808Y-173651922D01*
X72022744Y-173677602D01*
X72024296Y-173681949D01*
X72023762Y-173684246D01*
X72024500Y-173689060D01*
X72024500Y-174400001D01*
X72024501Y-174400019D01*
X72035000Y-174502796D01*
X72035001Y-174502799D01*
X72079829Y-174638080D01*
X72090186Y-174669334D01*
X72176594Y-174809425D01*
X72182289Y-174818657D01*
X72275951Y-174912319D01*
X72309436Y-174973642D01*
X72304452Y-175043334D01*
X72275951Y-175087681D01*
X72182289Y-175181342D01*
X72090187Y-175330663D01*
X72090186Y-175330666D01*
X72035001Y-175497203D01*
X72035001Y-175497204D01*
X72035000Y-175497204D01*
X72024500Y-175599983D01*
X72024500Y-176400001D01*
X72024501Y-176400019D01*
X72035000Y-176502796D01*
X72035001Y-176502799D01*
X72066912Y-176599098D01*
X72090186Y-176669334D01*
X72182288Y-176818656D01*
X72306344Y-176942712D01*
X72455666Y-177034814D01*
X72512505Y-177053648D01*
X72569948Y-177093418D01*
X72596772Y-177157934D01*
X72597500Y-177171353D01*
X72597500Y-182711805D01*
X72577815Y-182778844D01*
X72529795Y-182822290D01*
X72371700Y-182902843D01*
X72197180Y-183029640D01*
X72054816Y-183172004D01*
X71993493Y-183205488D01*
X71923801Y-183200504D01*
X71867868Y-183158632D01*
X71854748Y-183136716D01*
X71854356Y-183135876D01*
X71762315Y-182986654D01*
X71638345Y-182862684D01*
X71489124Y-182770643D01*
X71489119Y-182770641D01*
X71322697Y-182715494D01*
X71322690Y-182715493D01*
X71219986Y-182705000D01*
X70800000Y-182705000D01*
X70800000Y-183757290D01*
X70779661Y-183745548D01*
X70628333Y-183705000D01*
X70471667Y-183705000D01*
X70320339Y-183745548D01*
X70300000Y-183757290D01*
X70300000Y-182705000D01*
X69880028Y-182705000D01*
X69880012Y-182705001D01*
X69777302Y-182715494D01*
X69610880Y-182770641D01*
X69610875Y-182770643D01*
X69461654Y-182862684D01*
X69337684Y-182986654D01*
X69245643Y-183135875D01*
X69245641Y-183135880D01*
X69190494Y-183302302D01*
X69190493Y-183302309D01*
X69180000Y-183405013D01*
X69180000Y-184050000D01*
X70007291Y-184050000D01*
X69995548Y-184070339D01*
X69955000Y-184221667D01*
X69955000Y-184378333D01*
X69995548Y-184529661D01*
X70007291Y-184550000D01*
X69180001Y-184550000D01*
X69180001Y-185194986D01*
X69190494Y-185297697D01*
X69245641Y-185464119D01*
X69245643Y-185464124D01*
X69337684Y-185613345D01*
X69461654Y-185737315D01*
X69610875Y-185829356D01*
X69610880Y-185829358D01*
X69777302Y-185884505D01*
X69777309Y-185884506D01*
X69880019Y-185894999D01*
X70299999Y-185894999D01*
X70300000Y-185894998D01*
X70300000Y-184842709D01*
X70320339Y-184854452D01*
X70471667Y-184895000D01*
X70628333Y-184895000D01*
X70779661Y-184854452D01*
X70800000Y-184842709D01*
X70800000Y-185894999D01*
X71219972Y-185894999D01*
X71219986Y-185894998D01*
X71322697Y-185884505D01*
X71489119Y-185829358D01*
X71489124Y-185829356D01*
X71638345Y-185737315D01*
X71762315Y-185613345D01*
X71854354Y-185464127D01*
X71854745Y-185463289D01*
X71855167Y-185462809D01*
X71858149Y-185457975D01*
X71858974Y-185458484D01*
X71900910Y-185410843D01*
X71968100Y-185391681D01*
X72034984Y-185411887D01*
X72054816Y-185427996D01*
X72197179Y-185570359D01*
X72371701Y-185697157D01*
X72563911Y-185795092D01*
X72769074Y-185861754D01*
X72848973Y-185874408D01*
X72982134Y-185895500D01*
X72982139Y-185895500D01*
X73197866Y-185895500D01*
X73316230Y-185876752D01*
X73410926Y-185861754D01*
X73616089Y-185795092D01*
X73808299Y-185697157D01*
X73982821Y-185570359D01*
X74135359Y-185417821D01*
X74262157Y-185243299D01*
X74360092Y-185051089D01*
X74426754Y-184845926D01*
X74441752Y-184751230D01*
X74460500Y-184632866D01*
X74460500Y-183967133D01*
X74426754Y-183754077D01*
X74426754Y-183754074D01*
X74360092Y-183548911D01*
X74262157Y-183356701D01*
X74135359Y-183182179D01*
X73982821Y-183029641D01*
X73981037Y-183028345D01*
X73903613Y-182972092D01*
X73860948Y-182916762D01*
X73852500Y-182871775D01*
X73852500Y-177171353D01*
X73872185Y-177104314D01*
X73924989Y-177058559D01*
X73937482Y-177053652D01*
X73994334Y-177034814D01*
X74143656Y-176942712D01*
X74267712Y-176818656D01*
X74267712Y-176818655D01*
X74272819Y-176813549D01*
X74274501Y-176815231D01*
X74322240Y-176781418D01*
X74392039Y-176778270D01*
X74452459Y-176813358D01*
X74455503Y-176816871D01*
X74457288Y-176818656D01*
X74581344Y-176942712D01*
X74730666Y-177034814D01*
X74897203Y-177089999D01*
X74999991Y-177100500D01*
X75661718Y-177100499D01*
X75728757Y-177120183D01*
X75749399Y-177136818D01*
X77094035Y-178481454D01*
X77127520Y-178542777D01*
X77122536Y-178612469D01*
X77106672Y-178642020D01*
X77077850Y-178681690D01*
X77077844Y-178681699D01*
X76979909Y-178873908D01*
X76913245Y-179079077D01*
X76879500Y-179292133D01*
X76879500Y-179507866D01*
X76913245Y-179720922D01*
X76913246Y-179720926D01*
X76979908Y-179926089D01*
X77077843Y-180118299D01*
X77204641Y-180292821D01*
X77204643Y-180292823D01*
X77347003Y-180435183D01*
X77380488Y-180496506D01*
X77375504Y-180566198D01*
X77333632Y-180622131D01*
X77311728Y-180635245D01*
X77310885Y-180635637D01*
X77161654Y-180727684D01*
X77037684Y-180851654D01*
X76945643Y-181000875D01*
X76945641Y-181000880D01*
X76890494Y-181167302D01*
X76890493Y-181167309D01*
X76880000Y-181270013D01*
X76880000Y-181690000D01*
X77932291Y-181690000D01*
X77920548Y-181710339D01*
X77880000Y-181861667D01*
X77880000Y-182018333D01*
X77920548Y-182169661D01*
X77932291Y-182190000D01*
X76880001Y-182190000D01*
X76880001Y-182609986D01*
X76890494Y-182712697D01*
X76945641Y-182879119D01*
X76945643Y-182879124D01*
X77037684Y-183028345D01*
X77161654Y-183152315D01*
X77310875Y-183244356D01*
X77310880Y-183244358D01*
X77477302Y-183299505D01*
X77477309Y-183299506D01*
X77580019Y-183309999D01*
X78224999Y-183309999D01*
X78225000Y-183309998D01*
X78225000Y-182482709D01*
X78245339Y-182494452D01*
X78396667Y-182535000D01*
X78553333Y-182535000D01*
X78704661Y-182494452D01*
X78725000Y-182482709D01*
X78725000Y-183309999D01*
X79369972Y-183309999D01*
X79369986Y-183309998D01*
X79472697Y-183299505D01*
X79639119Y-183244358D01*
X79639124Y-183244356D01*
X79788345Y-183152315D01*
X79912315Y-183028345D01*
X80004356Y-182879124D01*
X80004358Y-182879119D01*
X80059505Y-182712697D01*
X80059506Y-182712690D01*
X80069999Y-182609986D01*
X80070000Y-182609973D01*
X80070000Y-182190000D01*
X79017709Y-182190000D01*
X79029452Y-182169661D01*
X79070000Y-182018333D01*
X79070000Y-181861667D01*
X79029452Y-181710339D01*
X79017709Y-181690000D01*
X80069999Y-181690000D01*
X80069999Y-181270028D01*
X80069998Y-181270013D01*
X80059505Y-181167302D01*
X80004358Y-181000880D01*
X80004356Y-181000875D01*
X79912315Y-180851654D01*
X79788345Y-180727684D01*
X79639118Y-180635640D01*
X79638277Y-180635248D01*
X79637796Y-180634824D01*
X79632975Y-180631851D01*
X79633483Y-180631027D01*
X79585836Y-180589078D01*
X79566681Y-180521885D01*
X79586894Y-180455003D01*
X79602987Y-180435192D01*
X79745359Y-180292821D01*
X79872157Y-180118299D01*
X79970092Y-179926089D01*
X80036754Y-179720926D01*
X80051752Y-179626230D01*
X80070500Y-179507866D01*
X80070500Y-179292133D01*
X80036754Y-179079077D01*
X80036754Y-179079074D01*
X79970092Y-178873911D01*
X79872157Y-178681701D01*
X79745359Y-178507179D01*
X79592821Y-178354641D01*
X79418299Y-178227843D01*
X79226089Y-178129908D01*
X79020926Y-178063246D01*
X79020924Y-178063245D01*
X79020922Y-178063245D01*
X78807866Y-178029500D01*
X78807861Y-178029500D01*
X78622311Y-178029500D01*
X78555272Y-178009815D01*
X78509517Y-177957011D01*
X78499573Y-177887853D01*
X78528598Y-177824297D01*
X78583307Y-177787794D01*
X78669119Y-177759358D01*
X78669124Y-177759356D01*
X78818345Y-177667315D01*
X78942317Y-177543343D01*
X78981169Y-177480354D01*
X79033116Y-177433629D01*
X79102079Y-177422406D01*
X79151805Y-177439911D01*
X79156340Y-177442708D01*
X79156344Y-177442712D01*
X79305666Y-177534814D01*
X79472203Y-177589999D01*
X79574991Y-177600500D01*
X80375008Y-177600499D01*
X80375016Y-177600498D01*
X80375019Y-177600498D01*
X80431302Y-177594748D01*
X80477797Y-177589999D01*
X80644334Y-177534814D01*
X80793656Y-177442712D01*
X80887319Y-177349049D01*
X80948642Y-177315564D01*
X81018334Y-177320548D01*
X81062681Y-177349049D01*
X81156344Y-177442712D01*
X81288596Y-177524285D01*
X81335321Y-177576233D01*
X81347500Y-177629824D01*
X81347500Y-179251807D01*
X81371612Y-179373027D01*
X81371614Y-179373035D01*
X81398626Y-179438247D01*
X81418915Y-179487230D01*
X81418916Y-179487232D01*
X81418917Y-179487233D01*
X81432700Y-179507861D01*
X81448216Y-179531081D01*
X81448216Y-179531082D01*
X81487590Y-179590010D01*
X81487593Y-179590013D01*
X82390363Y-180492782D01*
X82423848Y-180554105D01*
X82425155Y-180599861D01*
X82414500Y-180667133D01*
X82414500Y-181332866D01*
X82445161Y-181526448D01*
X82448246Y-181545926D01*
X82514908Y-181751089D01*
X82612843Y-181943299D01*
X82739641Y-182117821D01*
X82892179Y-182270359D01*
X83066701Y-182397157D01*
X83258911Y-182495092D01*
X83464074Y-182561754D01*
X83543973Y-182574408D01*
X83677134Y-182595500D01*
X83677139Y-182595500D01*
X83892866Y-182595500D01*
X84020671Y-182575257D01*
X84105926Y-182561754D01*
X84311089Y-182495092D01*
X84503299Y-182397157D01*
X84677821Y-182270359D01*
X84819807Y-182128372D01*
X84881126Y-182094890D01*
X84950818Y-182099874D01*
X85006752Y-182141745D01*
X85019864Y-182163645D01*
X85020181Y-182164326D01*
X85020186Y-182164334D01*
X85112288Y-182313656D01*
X85236344Y-182437712D01*
X85385666Y-182529814D01*
X85422006Y-182541855D01*
X85442037Y-182555724D01*
X85464203Y-182565847D01*
X85470250Y-182575257D01*
X85479448Y-182581625D01*
X85488803Y-182604127D01*
X85501977Y-182624625D01*
X85504435Y-182641722D01*
X85506272Y-182646140D01*
X85507000Y-182659560D01*
X85507000Y-182784811D01*
X85487315Y-182851850D01*
X85470681Y-182872492D01*
X81697492Y-186645681D01*
X81636169Y-186679166D01*
X81609811Y-186682000D01*
X69390189Y-186682000D01*
X69323150Y-186662315D01*
X69302508Y-186645681D01*
X63359319Y-180702492D01*
X63325834Y-180641169D01*
X63323000Y-180614811D01*
X63323000Y-179009560D01*
X63342685Y-178942521D01*
X63395489Y-178896766D01*
X63407973Y-178891862D01*
X63444334Y-178879814D01*
X63593656Y-178787712D01*
X63717712Y-178663656D01*
X63809814Y-178514334D01*
X63809817Y-178514322D01*
X63810129Y-178513657D01*
X63810469Y-178513269D01*
X63813605Y-178508187D01*
X63814473Y-178508722D01*
X63856299Y-178461216D01*
X63923491Y-178442060D01*
X63990373Y-178462272D01*
X64010195Y-178478375D01*
X64152179Y-178620359D01*
X64326701Y-178747157D01*
X64518911Y-178845092D01*
X64724074Y-178911754D01*
X64791796Y-178922480D01*
X64937134Y-178945500D01*
X64937139Y-178945500D01*
X65152866Y-178945500D01*
X65271230Y-178926752D01*
X65365926Y-178911754D01*
X65571089Y-178845092D01*
X65763299Y-178747157D01*
X65937821Y-178620359D01*
X66090359Y-178467821D01*
X66214682Y-178296704D01*
X66270012Y-178254040D01*
X66339626Y-178248061D01*
X66401420Y-178280667D01*
X66415315Y-178296702D01*
X66539641Y-178467821D01*
X66692179Y-178620359D01*
X66866701Y-178747157D01*
X67058911Y-178845092D01*
X67264074Y-178911754D01*
X67331796Y-178922480D01*
X67477134Y-178945500D01*
X67477139Y-178945500D01*
X67692866Y-178945500D01*
X67811230Y-178926752D01*
X67905926Y-178911754D01*
X68111089Y-178845092D01*
X68303299Y-178747157D01*
X68477821Y-178620359D01*
X68630359Y-178467821D01*
X68754991Y-178296279D01*
X68810321Y-178253614D01*
X68879934Y-178247635D01*
X68941729Y-178280241D01*
X68955627Y-178296279D01*
X69080025Y-178467496D01*
X69080025Y-178467497D01*
X69232502Y-178619974D01*
X69406963Y-178746728D01*
X69599098Y-178844627D01*
X69804190Y-178911266D01*
X69875000Y-178922481D01*
X69875000Y-177892709D01*
X69895339Y-177904452D01*
X70046667Y-177945000D01*
X70203333Y-177945000D01*
X70354661Y-177904452D01*
X70375000Y-177892709D01*
X70375000Y-178922480D01*
X70445809Y-178911266D01*
X70650901Y-178844627D01*
X70843036Y-178746728D01*
X71017496Y-178619974D01*
X71017497Y-178619974D01*
X71169974Y-178467497D01*
X71169974Y-178467496D01*
X71296728Y-178293036D01*
X71394627Y-178100901D01*
X71461265Y-177895809D01*
X71495000Y-177682820D01*
X71495000Y-177600000D01*
X70667709Y-177600000D01*
X70679452Y-177579661D01*
X70720000Y-177428333D01*
X70720000Y-177271667D01*
X70679452Y-177120339D01*
X70667709Y-177100000D01*
X71495000Y-177100000D01*
X71495000Y-177017179D01*
X71461265Y-176804190D01*
X71394627Y-176599098D01*
X71296728Y-176406963D01*
X71169974Y-176232503D01*
X71169974Y-176232502D01*
X71017497Y-176080025D01*
X70843036Y-175953271D01*
X70650901Y-175855372D01*
X70445809Y-175788734D01*
X70330400Y-175770455D01*
X70267265Y-175740526D01*
X70230334Y-175681214D01*
X70231332Y-175611352D01*
X70262116Y-175560302D01*
X71462411Y-174360008D01*
X71501809Y-174301044D01*
X71531083Y-174257233D01*
X71550989Y-174209173D01*
X71558688Y-174190590D01*
X71573712Y-174154318D01*
X71578386Y-174143035D01*
X71602500Y-174021803D01*
X71602500Y-173898197D01*
X71602500Y-173858247D01*
X71622185Y-173791208D01*
X71640057Y-173769345D01*
X71649816Y-173759855D01*
X71673350Y-173745340D01*
X71795340Y-173623350D01*
X71803033Y-173610876D01*
X71814057Y-173600158D01*
X71831899Y-173590737D01*
X71846903Y-173577241D01*
X71862168Y-173574756D01*
X71875844Y-173567536D01*
X71895949Y-173569257D01*
X71915865Y-173566016D01*
X71930047Y-173572177D01*
G37*
%TD.AperFunction*%
%TA.AperFunction,Conductor*%
G36*
X78650976Y-170282438D02*
G01*
X78678260Y-170286671D01*
X78684112Y-170291856D01*
X78691632Y-170293994D01*
X78709889Y-170314698D01*
X78730553Y-170333009D01*
X78732739Y-170340611D01*
X78737843Y-170346399D01*
X78741732Y-170371879D01*
X78749500Y-170398887D01*
X78749500Y-170411418D01*
X78749500Y-170411420D01*
X78749499Y-170411420D01*
X78772117Y-170525119D01*
X78771241Y-170536841D01*
X78774500Y-170549311D01*
X78774500Y-171475001D01*
X78774501Y-171475019D01*
X78785000Y-171577796D01*
X78785001Y-171577799D01*
X78837962Y-171737623D01*
X78840186Y-171744334D01*
X78932288Y-171893656D01*
X79056344Y-172017712D01*
X79205666Y-172109814D01*
X79372203Y-172164999D01*
X79474991Y-172175500D01*
X80875008Y-172175499D01*
X80977797Y-172164999D01*
X81144334Y-172109814D01*
X81291278Y-172019178D01*
X81358669Y-172000739D01*
X81425332Y-172021662D01*
X81444054Y-172037037D01*
X81476961Y-172069944D01*
X81476965Y-172069947D01*
X81623688Y-172160448D01*
X81623699Y-172160453D01*
X81787347Y-172214680D01*
X81888352Y-172224999D01*
X81925000Y-172224999D01*
X81925000Y-171311500D01*
X81944685Y-171244461D01*
X81997489Y-171198706D01*
X82049000Y-171187500D01*
X82301000Y-171187500D01*
X82368039Y-171207185D01*
X82413794Y-171259989D01*
X82425000Y-171311500D01*
X82425000Y-172224999D01*
X82461640Y-172224999D01*
X82461654Y-172224998D01*
X82562652Y-172214680D01*
X82726300Y-172160453D01*
X82726311Y-172160448D01*
X82873034Y-172069947D01*
X82873038Y-172069944D01*
X82994944Y-171948038D01*
X82994947Y-171948034D01*
X83085448Y-171801311D01*
X83085453Y-171801300D01*
X83089798Y-171788189D01*
X83129570Y-171730744D01*
X83194086Y-171703921D01*
X83262862Y-171716236D01*
X83295185Y-171739512D01*
X84867181Y-173311508D01*
X84900666Y-173372831D01*
X84903500Y-173399189D01*
X84903500Y-179655958D01*
X84883815Y-179722997D01*
X84831011Y-179768752D01*
X84761853Y-179778696D01*
X84698297Y-179749671D01*
X84691819Y-179743639D01*
X84677823Y-179729643D01*
X84677821Y-179729641D01*
X84503299Y-179602843D01*
X84311089Y-179504908D01*
X84105926Y-179438246D01*
X84105924Y-179438245D01*
X84105922Y-179438245D01*
X83892866Y-179404500D01*
X83892861Y-179404500D01*
X83677139Y-179404500D01*
X83677134Y-179404500D01*
X83464077Y-179438245D01*
X83464072Y-179438246D01*
X83269600Y-179501433D01*
X83199759Y-179503428D01*
X83143602Y-179471183D01*
X82638819Y-178966400D01*
X82605334Y-178905077D01*
X82602500Y-178878719D01*
X82602500Y-177629824D01*
X82622185Y-177562785D01*
X82661404Y-177524285D01*
X82732628Y-177480354D01*
X82793656Y-177442712D01*
X82917712Y-177318656D01*
X83009814Y-177169334D01*
X83064999Y-177002797D01*
X83075500Y-176900009D01*
X83075499Y-175899992D01*
X83064999Y-175797203D01*
X83009814Y-175630666D01*
X82917712Y-175481344D01*
X82793656Y-175357288D01*
X82644334Y-175265186D01*
X82477797Y-175210001D01*
X82477795Y-175210000D01*
X82375010Y-175199500D01*
X81574998Y-175199500D01*
X81574980Y-175199501D01*
X81537602Y-175203320D01*
X81468909Y-175190550D01*
X81418025Y-175142669D01*
X81401105Y-175074879D01*
X81419462Y-175014865D01*
X81509356Y-174869124D01*
X81509358Y-174869119D01*
X81564505Y-174702697D01*
X81564506Y-174702690D01*
X81574999Y-174599986D01*
X81575000Y-174599973D01*
X81575000Y-174387500D01*
X80299000Y-174387500D01*
X80231961Y-174367815D01*
X80186206Y-174315011D01*
X80175000Y-174263500D01*
X80175000Y-174137500D01*
X80049000Y-174137500D01*
X79981961Y-174117815D01*
X79936206Y-174065011D01*
X79925000Y-174013500D01*
X79925000Y-173887500D01*
X80425000Y-173887500D01*
X81574999Y-173887500D01*
X81574999Y-173675028D01*
X81574998Y-173675013D01*
X81564505Y-173572302D01*
X81509358Y-173405880D01*
X81509356Y-173405875D01*
X81417315Y-173256654D01*
X81293345Y-173132684D01*
X81144124Y-173040643D01*
X81144119Y-173040641D01*
X80977697Y-172985494D01*
X80977690Y-172985493D01*
X80874986Y-172975000D01*
X80425000Y-172975000D01*
X80425000Y-173887500D01*
X79925000Y-173887500D01*
X79925000Y-172975000D01*
X79475028Y-172975000D01*
X79475012Y-172975001D01*
X79372302Y-172985494D01*
X79205880Y-173040641D01*
X79205875Y-173040643D01*
X79056654Y-173132684D01*
X78932684Y-173256654D01*
X78840643Y-173405875D01*
X78840642Y-173405878D01*
X78792736Y-173550448D01*
X78787581Y-173557892D01*
X78785986Y-173566803D01*
X78768005Y-173586166D01*
X78752963Y-173607892D01*
X78744603Y-173611367D01*
X78738443Y-173618002D01*
X78712845Y-173624571D01*
X78688447Y-173634715D01*
X78677746Y-173633578D01*
X78670766Y-173635370D01*
X78636024Y-173629148D01*
X78587494Y-173613066D01*
X78530050Y-173573293D01*
X78503228Y-173508777D01*
X78502500Y-173495361D01*
X78502500Y-170660201D01*
X78500784Y-170651577D01*
X78500782Y-170651573D01*
X78500782Y-170651569D01*
X78478386Y-170538974D01*
X78443004Y-170453555D01*
X78440270Y-170446956D01*
X78436815Y-170414835D01*
X78431944Y-170382918D01*
X78433103Y-170380319D01*
X78432799Y-170377489D01*
X78447256Y-170348603D01*
X78460416Y-170319113D01*
X78462796Y-170317553D01*
X78464071Y-170315008D01*
X78491845Y-170298526D01*
X78518864Y-170280830D01*
X78522602Y-170280275D01*
X78524158Y-170279353D01*
X78553754Y-170275505D01*
X78554330Y-170275500D01*
X78612720Y-170275500D01*
X78616838Y-170274957D01*
X78624424Y-170274892D01*
X78650976Y-170282438D01*
G37*
%TD.AperFunction*%
%TA.AperFunction,Conductor*%
G36*
X65223203Y-167580476D02*
G01*
X65229681Y-167586508D01*
X65608342Y-167965169D01*
X65638366Y-168013844D01*
X65640183Y-168019327D01*
X65640185Y-168019331D01*
X65640186Y-168019334D01*
X65732288Y-168168656D01*
X65856344Y-168292712D01*
X65859628Y-168294737D01*
X65859653Y-168294753D01*
X65861445Y-168296746D01*
X65862011Y-168297193D01*
X65861934Y-168297289D01*
X65906379Y-168346699D01*
X65917603Y-168415661D01*
X65889761Y-168479744D01*
X65859665Y-168505826D01*
X65856660Y-168507679D01*
X65856655Y-168507683D01*
X65732684Y-168631654D01*
X65640643Y-168780875D01*
X65640641Y-168780880D01*
X65585494Y-168947302D01*
X65585493Y-168947309D01*
X65575000Y-169050013D01*
X65575000Y-169187500D01*
X66676000Y-169187500D01*
X66743039Y-169207185D01*
X66788794Y-169259989D01*
X66800000Y-169311500D01*
X66800000Y-169437500D01*
X66926000Y-169437500D01*
X66993039Y-169457185D01*
X67038794Y-169509989D01*
X67050000Y-169561500D01*
X67050000Y-170524999D01*
X67324972Y-170524999D01*
X67324986Y-170524998D01*
X67427697Y-170514505D01*
X67594119Y-170459358D01*
X67594124Y-170459356D01*
X67743345Y-170367315D01*
X67867315Y-170243345D01*
X67950808Y-170107982D01*
X67972938Y-170088076D01*
X67993249Y-170066334D01*
X67998628Y-170064970D01*
X68002756Y-170061258D01*
X68032129Y-170056477D01*
X68060976Y-170049165D01*
X68067453Y-170050729D01*
X68071718Y-170050035D01*
X68095699Y-170055489D01*
X68246690Y-170106019D01*
X68275260Y-170125925D01*
X68303787Y-170145676D01*
X68303860Y-170145851D01*
X68304017Y-170145961D01*
X68317283Y-170178139D01*
X68330610Y-170210192D01*
X68330576Y-170210379D01*
X68330649Y-170210556D01*
X68324422Y-170244746D01*
X68318295Y-170278967D01*
X68318155Y-170279160D01*
X68318131Y-170279295D01*
X68317815Y-170279632D01*
X68295020Y-170311289D01*
X68254661Y-170351648D01*
X68164093Y-170498481D01*
X68164091Y-170498486D01*
X68147024Y-170549991D01*
X68109826Y-170662247D01*
X68109826Y-170662248D01*
X68109825Y-170662248D01*
X68099500Y-170763315D01*
X68099500Y-171361669D01*
X68099501Y-171361687D01*
X68109825Y-171462752D01*
X68146109Y-171572249D01*
X68164092Y-171626516D01*
X68242851Y-171754205D01*
X68254661Y-171773351D01*
X68368629Y-171887319D01*
X68402114Y-171948642D01*
X68397130Y-172018334D01*
X68368629Y-172062681D01*
X68254661Y-172176648D01*
X68164093Y-172323481D01*
X68164091Y-172323486D01*
X68157819Y-172342415D01*
X68109826Y-172487247D01*
X68109826Y-172487248D01*
X68109825Y-172487248D01*
X68099500Y-172588315D01*
X68099500Y-173186669D01*
X68099501Y-173186687D01*
X68109825Y-173287752D01*
X68109826Y-173287755D01*
X68113146Y-173297773D01*
X68115548Y-173367601D01*
X68083121Y-173424458D01*
X65686396Y-175821183D01*
X65625073Y-175854668D01*
X65560397Y-175851433D01*
X65365923Y-175788245D01*
X65152866Y-175754500D01*
X65152861Y-175754500D01*
X65142000Y-175754500D01*
X65074961Y-175734815D01*
X65029206Y-175682011D01*
X65018000Y-175630500D01*
X65018000Y-169824986D01*
X65575001Y-169824986D01*
X65585494Y-169927697D01*
X65640641Y-170094119D01*
X65640643Y-170094124D01*
X65732684Y-170243345D01*
X65856654Y-170367315D01*
X66005875Y-170459356D01*
X66005880Y-170459358D01*
X66172302Y-170514505D01*
X66172309Y-170514506D01*
X66275019Y-170524999D01*
X66549999Y-170524999D01*
X66550000Y-170524998D01*
X66550000Y-169687500D01*
X65575001Y-169687500D01*
X65575001Y-169824986D01*
X65018000Y-169824986D01*
X65018000Y-167674189D01*
X65037685Y-167607150D01*
X65090489Y-167561395D01*
X65159647Y-167551451D01*
X65223203Y-167580476D01*
G37*
%TD.AperFunction*%
%TA.AperFunction,Conductor*%
G36*
X71899806Y-171796396D02*
G01*
X71921570Y-171807040D01*
X72048688Y-171885448D01*
X72048701Y-171885454D01*
X72172954Y-171926627D01*
X72230400Y-171966399D01*
X72257223Y-172030915D01*
X72248512Y-172091785D01*
X72182185Y-172251913D01*
X72182182Y-172251925D01*
X72150658Y-172410406D01*
X72118273Y-172472317D01*
X72057557Y-172506891D01*
X71987788Y-172503152D01*
X71931116Y-172462285D01*
X71911336Y-172425222D01*
X71885908Y-172348484D01*
X71795340Y-172201650D01*
X71681371Y-172087681D01*
X71677033Y-172079736D01*
X71669785Y-172074311D01*
X71660548Y-172049548D01*
X71647886Y-172026358D01*
X71648531Y-172017329D01*
X71645368Y-172008847D01*
X71650984Y-171983024D01*
X71652870Y-171956666D01*
X71658687Y-171947613D01*
X71660219Y-171940574D01*
X71681367Y-171912322D01*
X71768795Y-171824894D01*
X71830114Y-171791412D01*
X71899806Y-171796396D01*
G37*
%TD.AperFunction*%
%TA.AperFunction,Conductor*%
G36*
X99253039Y-170470185D02*
G01*
X99298794Y-170522989D01*
X99310000Y-170574500D01*
X99310000Y-171256000D01*
X99305889Y-171270000D01*
X99045504Y-171270000D01*
X98969204Y-171290444D01*
X98900795Y-171329940D01*
X98869634Y-171361100D01*
X98866961Y-171360315D01*
X98821206Y-171307511D01*
X98810000Y-171256000D01*
X98810000Y-170700000D01*
X98751500Y-170700000D01*
X98742814Y-170697449D01*
X98733853Y-170698738D01*
X98709812Y-170687759D01*
X98684461Y-170680315D01*
X98678533Y-170673474D01*
X98670297Y-170669713D01*
X98656007Y-170647478D01*
X98638706Y-170627511D01*
X98636418Y-170616996D01*
X98632523Y-170610935D01*
X98627500Y-170576000D01*
X98627500Y-170574500D01*
X98647185Y-170507461D01*
X98699989Y-170461706D01*
X98751500Y-170450500D01*
X99186000Y-170450500D01*
X99253039Y-170470185D01*
G37*
%TD.AperFunction*%
%TA.AperFunction,Conductor*%
G36*
X77315539Y-163222185D02*
G01*
X77361294Y-163274989D01*
X77372500Y-163326500D01*
X77372500Y-164561803D01*
X77372500Y-164561805D01*
X77372499Y-164561805D01*
X77396613Y-164683029D01*
X77396616Y-164683039D01*
X77443913Y-164797226D01*
X77443920Y-164797239D01*
X77512588Y-164900007D01*
X77512591Y-164900011D01*
X77599988Y-164987408D01*
X77599992Y-164987411D01*
X77702760Y-165056079D01*
X77702773Y-165056086D01*
X77816960Y-165103383D01*
X77816965Y-165103385D01*
X77816969Y-165103385D01*
X77816970Y-165103386D01*
X77938194Y-165127500D01*
X77938197Y-165127500D01*
X78061803Y-165127500D01*
X80570500Y-165127500D01*
X80637539Y-165147185D01*
X80683294Y-165199989D01*
X80694500Y-165251500D01*
X80694500Y-167380815D01*
X80718612Y-167502035D01*
X80718615Y-167502047D01*
X80739990Y-167553651D01*
X80747459Y-167623121D01*
X80716183Y-167685600D01*
X80656094Y-167721251D01*
X80616848Y-167723593D01*
X80616772Y-167724766D01*
X80612726Y-167724500D01*
X80612720Y-167724500D01*
X80387280Y-167724500D01*
X80387272Y-167724500D01*
X80285265Y-167737930D01*
X80285263Y-167737930D01*
X80274764Y-167739313D01*
X80134767Y-167797302D01*
X80075486Y-167842789D01*
X80010319Y-167867984D01*
X79941874Y-167853946D01*
X79924515Y-167842790D01*
X79898512Y-167822838D01*
X79857310Y-167766410D01*
X79851120Y-167730894D01*
X79849999Y-167729911D01*
X79767270Y-167740804D01*
X79733527Y-167738593D01*
X79733293Y-167740374D01*
X79725236Y-167739313D01*
X79699775Y-167735961D01*
X79612727Y-167724500D01*
X79612720Y-167724500D01*
X79387280Y-167724500D01*
X79387272Y-167724500D01*
X79300393Y-167735938D01*
X79274764Y-167739313D01*
X79274762Y-167739313D01*
X79266708Y-167740374D01*
X79266316Y-167737399D01*
X79233684Y-167737399D01*
X79233292Y-167740374D01*
X79225237Y-167739313D01*
X79225236Y-167739313D01*
X79196271Y-167735499D01*
X79112727Y-167724500D01*
X79112720Y-167724500D01*
X78887280Y-167724500D01*
X78887272Y-167724500D01*
X78800393Y-167735938D01*
X78774764Y-167739313D01*
X78774762Y-167739313D01*
X78766708Y-167740374D01*
X78766316Y-167737399D01*
X78733684Y-167737399D01*
X78733292Y-167740374D01*
X78725237Y-167739313D01*
X78725236Y-167739313D01*
X78696271Y-167735499D01*
X78612727Y-167724500D01*
X78612720Y-167724500D01*
X78387280Y-167724500D01*
X78387272Y-167724500D01*
X78300393Y-167735938D01*
X78274764Y-167739313D01*
X78274762Y-167739313D01*
X78266708Y-167740374D01*
X78266316Y-167737399D01*
X78233684Y-167737399D01*
X78233292Y-167740374D01*
X78225237Y-167739313D01*
X78225236Y-167739313D01*
X78196271Y-167735499D01*
X78112727Y-167724500D01*
X78112720Y-167724500D01*
X77887280Y-167724500D01*
X77887272Y-167724500D01*
X77800393Y-167735938D01*
X77774764Y-167739313D01*
X77774762Y-167739313D01*
X77766708Y-167740374D01*
X77766316Y-167737399D01*
X77733684Y-167737399D01*
X77733292Y-167740374D01*
X77725237Y-167739313D01*
X77725236Y-167739313D01*
X77696271Y-167735499D01*
X77612727Y-167724500D01*
X77612720Y-167724500D01*
X77387280Y-167724500D01*
X77387272Y-167724500D01*
X77300393Y-167735938D01*
X77274764Y-167739313D01*
X77274762Y-167739313D01*
X77266708Y-167740374D01*
X77266316Y-167737399D01*
X77233684Y-167737399D01*
X77233292Y-167740374D01*
X77225237Y-167739313D01*
X77225236Y-167739313D01*
X77196271Y-167735499D01*
X77112727Y-167724500D01*
X77112720Y-167724500D01*
X76887280Y-167724500D01*
X76887272Y-167724500D01*
X76800393Y-167735938D01*
X76774764Y-167739313D01*
X76774762Y-167739313D01*
X76766708Y-167740374D01*
X76766316Y-167737399D01*
X76733684Y-167737399D01*
X76733292Y-167740374D01*
X76725237Y-167739313D01*
X76725236Y-167739313D01*
X76696271Y-167735499D01*
X76612727Y-167724500D01*
X76612720Y-167724500D01*
X76387280Y-167724500D01*
X76387272Y-167724500D01*
X76300393Y-167735938D01*
X76274764Y-167739313D01*
X76274762Y-167739313D01*
X76266708Y-167740374D01*
X76266316Y-167737399D01*
X76233684Y-167737399D01*
X76233292Y-167740374D01*
X76225237Y-167739313D01*
X76225236Y-167739313D01*
X76196271Y-167735499D01*
X76112727Y-167724500D01*
X76112720Y-167724500D01*
X75887280Y-167724500D01*
X75887272Y-167724500D01*
X75800393Y-167735938D01*
X75774764Y-167739313D01*
X75774762Y-167739313D01*
X75766708Y-167740374D01*
X75766316Y-167737399D01*
X75733684Y-167737399D01*
X75733292Y-167740374D01*
X75725237Y-167739313D01*
X75725236Y-167739313D01*
X75696271Y-167735499D01*
X75612727Y-167724500D01*
X75612720Y-167724500D01*
X75387280Y-167724500D01*
X75387272Y-167724500D01*
X75300393Y-167735938D01*
X75274764Y-167739313D01*
X75274762Y-167739313D01*
X75266708Y-167740374D01*
X75266316Y-167737399D01*
X75233684Y-167737399D01*
X75233292Y-167740374D01*
X75225237Y-167739313D01*
X75225236Y-167739313D01*
X75196271Y-167735499D01*
X75112727Y-167724500D01*
X75112720Y-167724500D01*
X74887280Y-167724500D01*
X74887272Y-167724500D01*
X74800393Y-167735938D01*
X74774764Y-167739313D01*
X74774762Y-167739313D01*
X74766708Y-167740374D01*
X74766316Y-167737399D01*
X74733684Y-167737399D01*
X74733292Y-167740374D01*
X74725237Y-167739313D01*
X74725236Y-167739313D01*
X74696271Y-167735499D01*
X74612727Y-167724500D01*
X74612720Y-167724500D01*
X74387280Y-167724500D01*
X74387272Y-167724500D01*
X74300393Y-167735938D01*
X74274764Y-167739313D01*
X74274762Y-167739313D01*
X74266708Y-167740374D01*
X74266316Y-167737399D01*
X74233684Y-167737399D01*
X74233292Y-167740374D01*
X74225237Y-167739313D01*
X74225236Y-167739313D01*
X74196271Y-167735499D01*
X74112727Y-167724500D01*
X74112720Y-167724500D01*
X73887280Y-167724500D01*
X73887272Y-167724500D01*
X73785265Y-167737930D01*
X73785263Y-167737930D01*
X73774764Y-167739313D01*
X73634767Y-167797302D01*
X73575486Y-167842789D01*
X73510319Y-167867984D01*
X73441874Y-167853946D01*
X73424515Y-167842790D01*
X73398512Y-167822838D01*
X73357310Y-167766410D01*
X73351120Y-167730894D01*
X73349999Y-167729911D01*
X73267270Y-167740804D01*
X73233527Y-167738593D01*
X73233293Y-167740374D01*
X73225236Y-167739313D01*
X73199775Y-167735961D01*
X73112727Y-167724500D01*
X73112720Y-167724500D01*
X72887280Y-167724500D01*
X72887272Y-167724500D01*
X72774764Y-167739313D01*
X72774763Y-167739313D01*
X72634770Y-167797300D01*
X72634767Y-167797301D01*
X72634767Y-167797302D01*
X72514549Y-167889549D01*
X72456524Y-167965169D01*
X72422300Y-168009770D01*
X72364313Y-168149763D01*
X72364313Y-168149764D01*
X72349500Y-168262272D01*
X72349500Y-168711718D01*
X72329815Y-168778757D01*
X72313181Y-168799399D01*
X71914181Y-169198399D01*
X71852858Y-169231884D01*
X71783166Y-169226900D01*
X71727233Y-169185028D01*
X71702816Y-169119564D01*
X71702500Y-169110718D01*
X71702500Y-167848755D01*
X71722185Y-167781716D01*
X71774989Y-167735961D01*
X71810315Y-167725816D01*
X71812715Y-167725500D01*
X71812720Y-167725500D01*
X71925236Y-167710687D01*
X72065233Y-167652698D01*
X72185451Y-167560451D01*
X72277698Y-167440233D01*
X72335687Y-167300236D01*
X72350500Y-167187720D01*
X72350500Y-166962280D01*
X72335687Y-166849764D01*
X72335686Y-166849763D01*
X72334626Y-166841705D01*
X72337689Y-166841301D01*
X72337689Y-166808698D01*
X72334626Y-166808295D01*
X72343968Y-166737335D01*
X72350500Y-166687720D01*
X72350500Y-166462280D01*
X72335687Y-166349764D01*
X72335686Y-166349763D01*
X72334626Y-166341705D01*
X72337689Y-166341301D01*
X72337689Y-166308698D01*
X72334626Y-166308295D01*
X72343472Y-166241100D01*
X72350500Y-166187720D01*
X72350500Y-165962280D01*
X72335687Y-165849764D01*
X72335686Y-165849763D01*
X72334626Y-165841705D01*
X72337689Y-165841301D01*
X72337689Y-165808698D01*
X72334626Y-165808295D01*
X72349873Y-165692480D01*
X72350500Y-165687720D01*
X72350500Y-165462280D01*
X72335687Y-165349764D01*
X72277698Y-165209767D01*
X72232210Y-165150486D01*
X72207016Y-165085319D01*
X72221054Y-165016874D01*
X72232211Y-164999512D01*
X72252162Y-164973512D01*
X72308590Y-164932310D01*
X72344105Y-164926120D01*
X72345088Y-164924999D01*
X72334196Y-164842270D01*
X72336409Y-164808529D01*
X72334626Y-164808295D01*
X72335687Y-164800236D01*
X72350500Y-164687720D01*
X72350500Y-164462280D01*
X72335687Y-164349764D01*
X72335686Y-164349763D01*
X72334626Y-164341705D01*
X72337689Y-164341301D01*
X72337689Y-164308698D01*
X72334626Y-164308295D01*
X72335687Y-164300236D01*
X72350500Y-164187720D01*
X72350500Y-163962280D01*
X72335687Y-163849764D01*
X72335686Y-163849763D01*
X72334626Y-163841705D01*
X72337689Y-163841301D01*
X72337689Y-163808698D01*
X72334626Y-163808295D01*
X72335718Y-163800000D01*
X72350500Y-163687720D01*
X72350500Y-163462280D01*
X72335687Y-163349764D01*
X72335686Y-163349763D01*
X72334755Y-163342685D01*
X72345520Y-163273650D01*
X72391900Y-163221394D01*
X72457694Y-163202500D01*
X77248500Y-163202500D01*
X77315539Y-163222185D01*
G37*
%TD.AperFunction*%
%TA.AperFunction,Conductor*%
G36*
X84756683Y-164355997D02*
G01*
X84763161Y-164362029D01*
X84878844Y-164477712D01*
X85028166Y-164569814D01*
X85194703Y-164624999D01*
X85297491Y-164635500D01*
X85862310Y-164635499D01*
X85929349Y-164655183D01*
X85949991Y-164671818D01*
X86893181Y-165615008D01*
X86926666Y-165676331D01*
X86929500Y-165702689D01*
X86929500Y-166542870D01*
X86929501Y-166542876D01*
X86935908Y-166602483D01*
X86986202Y-166737328D01*
X86986206Y-166737335D01*
X87072452Y-166852544D01*
X87072455Y-166852547D01*
X87173223Y-166927983D01*
X87173226Y-166927984D01*
X87187669Y-166938796D01*
X87322517Y-166989091D01*
X87382127Y-166995500D01*
X87549637Y-166995499D01*
X87570175Y-167001530D01*
X87591548Y-167002797D01*
X87603032Y-167011177D01*
X87616674Y-167015183D01*
X87630695Y-167031365D01*
X87647988Y-167043984D01*
X87653117Y-167057241D01*
X87662429Y-167067987D01*
X87665476Y-167089178D01*
X87673202Y-167109145D01*
X87670349Y-167123072D01*
X87672373Y-167137145D01*
X87663479Y-167156618D01*
X87659184Y-167177594D01*
X87647623Y-167191338D01*
X87643348Y-167200701D01*
X87638379Y-167206104D01*
X87628455Y-167216272D01*
X87623135Y-167219419D01*
X87506919Y-167335635D01*
X87499151Y-167348769D01*
X87488744Y-167359434D01*
X87470746Y-167369548D01*
X87455657Y-167383636D01*
X87440906Y-167386318D01*
X87427834Y-167393665D01*
X87407225Y-167392443D01*
X87386915Y-167396137D01*
X87373054Y-167390418D01*
X87358087Y-167389531D01*
X87341412Y-167377362D01*
X87322327Y-167369488D01*
X87308062Y-167353025D01*
X87301647Y-167348344D01*
X87299743Y-167343424D01*
X87298143Y-167341578D01*
X87297861Y-167341798D01*
X87293823Y-167336592D01*
X87293271Y-167335955D01*
X87293085Y-167335640D01*
X87293076Y-167335629D01*
X87176870Y-167219423D01*
X87176861Y-167219416D01*
X87075991Y-167159762D01*
X87061832Y-167151389D01*
X87048565Y-167143543D01*
X87048565Y-167143542D01*
X87048563Y-167143542D01*
X87037746Y-167137145D01*
X87035398Y-167135756D01*
X87035397Y-167135755D01*
X87035396Y-167135755D01*
X87035393Y-167135754D01*
X86877573Y-167089902D01*
X86877567Y-167089901D01*
X86840701Y-167087000D01*
X86840694Y-167087000D01*
X85684306Y-167087000D01*
X85684298Y-167087000D01*
X85647432Y-167089901D01*
X85647426Y-167089902D01*
X85489606Y-167135754D01*
X85489603Y-167135755D01*
X85348137Y-167219417D01*
X85341969Y-167224202D01*
X85340300Y-167222050D01*
X85290418Y-167249271D01*
X85220728Y-167244268D01*
X85176411Y-167215779D01*
X84748689Y-166788057D01*
X84715204Y-166726734D01*
X84720188Y-166657042D01*
X84762060Y-166601109D01*
X84767474Y-166597278D01*
X84770970Y-166594941D01*
X84846641Y-166544374D01*
X84963691Y-166427319D01*
X85055662Y-166289683D01*
X85119021Y-166136751D01*
X85151334Y-165974398D01*
X85151334Y-165970633D01*
X85151345Y-165970594D01*
X85151345Y-165891017D01*
X85151356Y-165818716D01*
X85151354Y-165818711D01*
X85151356Y-165811389D01*
X85151345Y-165811189D01*
X85151345Y-165689552D01*
X85151275Y-165688859D01*
X85151276Y-165688853D01*
X85143082Y-165647626D01*
X85119005Y-165526478D01*
X85055674Y-165373514D01*
X85054955Y-165372437D01*
X84963721Y-165235846D01*
X84963718Y-165235843D01*
X84963717Y-165235841D01*
X84846680Y-165118764D01*
X84846672Y-165118758D01*
X84709047Y-165026766D01*
X84709046Y-165026765D01*
X84709041Y-165026762D01*
X84709034Y-165026759D01*
X84628006Y-164993179D01*
X84573611Y-164949329D01*
X84551558Y-164883030D01*
X84551480Y-164878627D01*
X84551480Y-164449710D01*
X84571165Y-164382671D01*
X84623969Y-164336916D01*
X84693127Y-164326972D01*
X84756683Y-164355997D01*
G37*
%TD.AperFunction*%
%TA.AperFunction,Conductor*%
G36*
X89470167Y-163938006D02*
G01*
X89494355Y-163965921D01*
X89494639Y-163965702D01*
X89498679Y-163970911D01*
X89499232Y-163971548D01*
X89499419Y-163971865D01*
X89499421Y-163971867D01*
X89499423Y-163971870D01*
X89615629Y-164088076D01*
X89615633Y-164088079D01*
X89615635Y-164088081D01*
X89757102Y-164171744D01*
X89798724Y-164183836D01*
X89914926Y-164217597D01*
X89914929Y-164217597D01*
X89914931Y-164217598D01*
X89951806Y-164220500D01*
X90339173Y-164220500D01*
X90363365Y-164222883D01*
X90451933Y-164240501D01*
X90451935Y-164240501D01*
X90619180Y-164240501D01*
X90619200Y-164240500D01*
X91396626Y-164240500D01*
X91463665Y-164260185D01*
X91502164Y-164299402D01*
X91502678Y-164300236D01*
X91504788Y-164303656D01*
X91628844Y-164427712D01*
X91778166Y-164519814D01*
X91944703Y-164574999D01*
X92047491Y-164585500D01*
X93447508Y-164585499D01*
X93449834Y-164585261D01*
X93450337Y-164585354D01*
X93450664Y-164585338D01*
X93450667Y-164585416D01*
X93518527Y-164598025D01*
X93569416Y-164645901D01*
X93586342Y-164713689D01*
X93580152Y-164747621D01*
X93540495Y-164867298D01*
X93540493Y-164867309D01*
X93530000Y-164970013D01*
X93530000Y-165220000D01*
X94506000Y-165220000D01*
X94573039Y-165239685D01*
X94618794Y-165292489D01*
X94630000Y-165344000D01*
X94630000Y-165470000D01*
X94756000Y-165470000D01*
X94823039Y-165489685D01*
X94868794Y-165542489D01*
X94880000Y-165594000D01*
X94880000Y-166669999D01*
X95029972Y-166669999D01*
X95029986Y-166669998D01*
X95132697Y-166659505D01*
X95299119Y-166604358D01*
X95299124Y-166604356D01*
X95448342Y-166512317D01*
X95541964Y-166418695D01*
X95603287Y-166385210D01*
X95672979Y-166390194D01*
X95717327Y-166418695D01*
X95811344Y-166512712D01*
X95960666Y-166604814D01*
X96127203Y-166659999D01*
X96229991Y-166670500D01*
X97030008Y-166670499D01*
X97030016Y-166670498D01*
X97030019Y-166670498D01*
X97086302Y-166664748D01*
X97132797Y-166659999D01*
X97299334Y-166604814D01*
X97400851Y-166542198D01*
X97468240Y-166523759D01*
X97534904Y-166544681D01*
X97579674Y-166598323D01*
X97588335Y-166667654D01*
X97585720Y-166679830D01*
X97583499Y-166688116D01*
X97583499Y-166800500D01*
X97563814Y-166867539D01*
X97511010Y-166913294D01*
X97459499Y-166924500D01*
X93589577Y-166924500D01*
X93522538Y-166904815D01*
X93486472Y-166869385D01*
X93397803Y-166736664D01*
X93397799Y-166736660D01*
X93397797Y-166736657D01*
X93280764Y-166619602D01*
X93280761Y-166619600D01*
X93280757Y-166619597D01*
X93280756Y-166619596D01*
X93143122Y-166527608D01*
X93142972Y-166527546D01*
X93024408Y-166478416D01*
X92990188Y-166464236D01*
X92990186Y-166464235D01*
X92990185Y-166464235D01*
X92827840Y-166431914D01*
X92827832Y-166431913D01*
X92827830Y-166431913D01*
X92824051Y-166431912D01*
X92824002Y-166431899D01*
X92745059Y-166431899D01*
X92745058Y-166431899D01*
X92672144Y-166431886D01*
X92672142Y-166431886D01*
X92664811Y-166431885D01*
X92664579Y-166431899D01*
X92542584Y-166431899D01*
X92542265Y-166431930D01*
X92379878Y-166464203D01*
X92379874Y-166464204D01*
X92379872Y-166464205D01*
X92297403Y-166498350D01*
X92226891Y-166527546D01*
X92089209Y-166619518D01*
X92089208Y-166619519D01*
X91972121Y-166736585D01*
X91972118Y-166736589D01*
X91883365Y-166869398D01*
X91829750Y-166914199D01*
X91780268Y-166924500D01*
X90084543Y-166924500D01*
X90043622Y-166935464D01*
X90043622Y-166935465D01*
X90031191Y-166938796D01*
X89931817Y-166965423D01*
X89931812Y-166965426D01*
X89794893Y-167044475D01*
X89794885Y-167044481D01*
X89683083Y-167156283D01*
X89683083Y-167156284D01*
X89683081Y-167156286D01*
X89651654Y-167187713D01*
X89623587Y-167215780D01*
X89562263Y-167249264D01*
X89492571Y-167244279D01*
X89459131Y-167222782D01*
X89458031Y-167224202D01*
X89451862Y-167219417D01*
X89310398Y-167135756D01*
X89310391Y-167135754D01*
X89260120Y-167121148D01*
X89201237Y-167083543D01*
X89172030Y-167020071D01*
X89181776Y-166950884D01*
X89220403Y-166902808D01*
X89287546Y-166852546D01*
X89373796Y-166737331D01*
X89424091Y-166602483D01*
X89430500Y-166542873D01*
X89430500Y-165969986D01*
X93530001Y-165969986D01*
X93540494Y-166072697D01*
X93595641Y-166239119D01*
X93595643Y-166239124D01*
X93687684Y-166388345D01*
X93811654Y-166512315D01*
X93960875Y-166604356D01*
X93960880Y-166604358D01*
X94127302Y-166659505D01*
X94127309Y-166659506D01*
X94230019Y-166669999D01*
X94379999Y-166669999D01*
X94380000Y-166669998D01*
X94380000Y-165720000D01*
X93530001Y-165720000D01*
X93530001Y-165969986D01*
X89430500Y-165969986D01*
X89430499Y-164947128D01*
X89424091Y-164887517D01*
X89422417Y-164883030D01*
X89373797Y-164752671D01*
X89373793Y-164752664D01*
X89287547Y-164637455D01*
X89287544Y-164637452D01*
X89172336Y-164551207D01*
X89172332Y-164551204D01*
X89153663Y-164544241D01*
X89135937Y-164530970D01*
X89115797Y-164521773D01*
X89108514Y-164510440D01*
X89097731Y-164502368D01*
X89089993Y-164481622D01*
X89078023Y-164462995D01*
X89074870Y-164441072D01*
X89073316Y-164436903D01*
X89073000Y-164428060D01*
X89073000Y-164215799D01*
X89092685Y-164148760D01*
X89133879Y-164109066D01*
X89169365Y-164088081D01*
X89285581Y-163971865D01*
X89285767Y-163971549D01*
X89285977Y-163971353D01*
X89290361Y-163965702D01*
X89291272Y-163966409D01*
X89336836Y-163923866D01*
X89405577Y-163911362D01*
X89470167Y-163938006D01*
G37*
%TD.AperFunction*%
%TA.AperFunction,Conductor*%
G36*
X67505702Y-165278724D02*
G01*
X67542205Y-165333433D01*
X67589546Y-165476300D01*
X67589551Y-165476311D01*
X67680052Y-165623034D01*
X67680055Y-165623038D01*
X67801960Y-165744943D01*
X67942115Y-165831392D01*
X67988840Y-165883340D01*
X68000061Y-165952303D01*
X67972218Y-166016385D01*
X67961294Y-166027024D01*
X67961451Y-166027181D01*
X67832288Y-166156343D01*
X67832285Y-166156347D01*
X67749000Y-166291373D01*
X67697052Y-166338098D01*
X67628090Y-166349319D01*
X67601455Y-166341653D01*
X67601189Y-166342458D01*
X67594335Y-166340187D01*
X67594334Y-166340186D01*
X67427797Y-166285001D01*
X67427795Y-166285000D01*
X67357759Y-166277845D01*
X67293068Y-166251448D01*
X67252917Y-166194267D01*
X67250055Y-166124456D01*
X67252644Y-166115525D01*
X67289999Y-166002797D01*
X67300500Y-165900009D01*
X67300499Y-165372436D01*
X67320183Y-165305398D01*
X67372987Y-165259643D01*
X67442146Y-165249699D01*
X67505702Y-165278724D01*
G37*
%TD.AperFunction*%
%TA.AperFunction,Conductor*%
G36*
X69708719Y-163207319D02*
G01*
X69725823Y-163207116D01*
X69741547Y-163216958D01*
X69759345Y-163222185D01*
X69770545Y-163235111D01*
X69785046Y-163244188D01*
X69792953Y-163260970D01*
X69805100Y-163274989D01*
X69807685Y-163292239D01*
X69814825Y-163307394D01*
X69815245Y-163342685D01*
X69799501Y-163462270D01*
X69799500Y-163462286D01*
X69799500Y-163687727D01*
X69807899Y-163751516D01*
X69814283Y-163800011D01*
X69815374Y-163808292D01*
X69812399Y-163808683D01*
X69812399Y-163841316D01*
X69815374Y-163841708D01*
X69814313Y-163849762D01*
X69814313Y-163849764D01*
X69812795Y-163861294D01*
X69799500Y-163962272D01*
X69799500Y-164187727D01*
X69807528Y-164248699D01*
X69814223Y-164299556D01*
X69815374Y-164308292D01*
X69812399Y-164308683D01*
X69812399Y-164341316D01*
X69815374Y-164341708D01*
X69814313Y-164349762D01*
X69814313Y-164349764D01*
X69812698Y-164362029D01*
X69799500Y-164462272D01*
X69799500Y-164687727D01*
X69808051Y-164752671D01*
X69813918Y-164797239D01*
X69815130Y-164806439D01*
X69815384Y-164806979D01*
X69815804Y-164842270D01*
X69812766Y-164865343D01*
X69784498Y-164929239D01*
X69737281Y-164963717D01*
X69644557Y-165002125D01*
X69541786Y-165070794D01*
X69541779Y-165070800D01*
X69536399Y-165076181D01*
X69475076Y-165109666D01*
X69448718Y-165112500D01*
X68624000Y-165112500D01*
X68556961Y-165092815D01*
X68511206Y-165040011D01*
X68500000Y-164988500D01*
X68500000Y-164736500D01*
X68519685Y-164669461D01*
X68572489Y-164623706D01*
X68624000Y-164612500D01*
X69474999Y-164612500D01*
X69474999Y-164513360D01*
X69474998Y-164513345D01*
X69464680Y-164412347D01*
X69410453Y-164248699D01*
X69410448Y-164248688D01*
X69319947Y-164101965D01*
X69319944Y-164101961D01*
X69306017Y-164088034D01*
X69272532Y-164026711D01*
X69277516Y-163957019D01*
X69306017Y-163912672D01*
X69320340Y-163898350D01*
X69410908Y-163751516D01*
X69465174Y-163587753D01*
X69475500Y-163486677D01*
X69475500Y-163326500D01*
X69495185Y-163259461D01*
X69547989Y-163213706D01*
X69599500Y-163202500D01*
X69692306Y-163202500D01*
X69708719Y-163207319D01*
G37*
%TD.AperFunction*%
%TA.AperFunction,Conductor*%
G36*
X99003039Y-163819685D02*
G01*
X99048794Y-163872489D01*
X99060000Y-163924000D01*
X99060000Y-163925500D01*
X99040315Y-163992539D01*
X98987511Y-164038294D01*
X98936000Y-164049500D01*
X98569298Y-164049500D01*
X98532432Y-164052401D01*
X98532426Y-164052402D01*
X98367111Y-164100432D01*
X98366345Y-164097795D01*
X98310024Y-164104731D01*
X98247070Y-164074422D01*
X98242476Y-164070057D01*
X98184100Y-164011681D01*
X98150615Y-163950358D01*
X98155599Y-163880666D01*
X98197471Y-163824733D01*
X98262935Y-163800316D01*
X98271781Y-163800000D01*
X98936000Y-163800000D01*
X99003039Y-163819685D01*
G37*
%TD.AperFunction*%
%TA.AperFunction,Conductor*%
G36*
X80158834Y-161474567D02*
G01*
X80214767Y-161516439D01*
X80239184Y-161581903D01*
X80239500Y-161590749D01*
X80239500Y-163748500D01*
X80219815Y-163815539D01*
X80167011Y-163861294D01*
X80115500Y-163872500D01*
X78751500Y-163872500D01*
X78684461Y-163852815D01*
X78638706Y-163800011D01*
X78627500Y-163748500D01*
X78627500Y-162954749D01*
X78647185Y-162887710D01*
X78663819Y-162867068D01*
X80027819Y-161503068D01*
X80089142Y-161469583D01*
X80158834Y-161474567D01*
G37*
%TD.AperFunction*%
%TA.AperFunction,Conductor*%
G36*
X66261334Y-148358007D02*
G01*
X66317267Y-148399879D01*
X66341684Y-148465343D01*
X66342000Y-148474189D01*
X66342000Y-151990570D01*
X66373433Y-152148594D01*
X66373435Y-152148602D01*
X66403608Y-152221445D01*
X66403608Y-152221446D01*
X66435097Y-152297468D01*
X66435098Y-152297471D01*
X66524617Y-152431444D01*
X66524620Y-152431448D01*
X69313181Y-155220007D01*
X69346666Y-155281330D01*
X69349500Y-155307688D01*
X69349500Y-155962501D01*
X69349501Y-155962519D01*
X69360000Y-156065296D01*
X69360001Y-156065299D01*
X69415185Y-156231831D01*
X69415187Y-156231836D01*
X69429712Y-156255384D01*
X69463539Y-156310227D01*
X69482000Y-156375323D01*
X69482000Y-157148218D01*
X69462315Y-157215257D01*
X69409511Y-157261012D01*
X69340353Y-157270956D01*
X69292903Y-157253757D01*
X69188805Y-157189548D01*
X69188800Y-157189546D01*
X69025152Y-157135319D01*
X68924154Y-157125000D01*
X68825000Y-157125000D01*
X68825000Y-158535500D01*
X68805315Y-158602539D01*
X68752511Y-158648294D01*
X68701000Y-158659500D01*
X68449000Y-158659500D01*
X68381961Y-158639815D01*
X68336206Y-158587011D01*
X68325000Y-158535500D01*
X68325000Y-158350000D01*
X67537501Y-158350000D01*
X67537501Y-158386654D01*
X67547819Y-158487652D01*
X67602046Y-158651300D01*
X67602051Y-158651311D01*
X67692552Y-158798034D01*
X67692555Y-158798038D01*
X67693991Y-158799474D01*
X67694661Y-158800701D01*
X67697033Y-158803701D01*
X67696520Y-158804106D01*
X67698329Y-158807419D01*
X67705577Y-158812845D01*
X67714811Y-158837604D01*
X67727476Y-158860797D01*
X67726830Y-158869826D01*
X67729994Y-158878309D01*
X67724377Y-158904129D01*
X67722492Y-158930489D01*
X67716673Y-158939542D01*
X67715142Y-158946582D01*
X67693991Y-158974836D01*
X67590646Y-159078181D01*
X67529323Y-159111666D01*
X67502965Y-159114500D01*
X67229472Y-159114500D01*
X67229466Y-159114500D01*
X67229462Y-159114501D01*
X67112315Y-159129923D01*
X67112313Y-159129924D01*
X67096950Y-159136288D01*
X67027480Y-159143755D01*
X66965002Y-159112479D01*
X66929350Y-159052390D01*
X66925499Y-159021726D01*
X66925499Y-158974998D01*
X66925498Y-158974981D01*
X66914999Y-158872203D01*
X66914998Y-158872200D01*
X66899822Y-158826401D01*
X66859814Y-158705666D01*
X66767712Y-158556344D01*
X66643656Y-158432288D01*
X66494334Y-158340186D01*
X66327797Y-158285001D01*
X66327795Y-158285000D01*
X66225010Y-158274500D01*
X65174998Y-158274500D01*
X65174980Y-158274501D01*
X65072203Y-158285000D01*
X65072200Y-158285001D01*
X64905668Y-158340185D01*
X64905663Y-158340187D01*
X64756342Y-158432289D01*
X64632289Y-158556342D01*
X64540187Y-158705663D01*
X64540185Y-158705668D01*
X64529843Y-158736879D01*
X64485001Y-158872203D01*
X64485001Y-158872204D01*
X64485000Y-158872204D01*
X64474500Y-158974983D01*
X64474500Y-159750001D01*
X64474501Y-159750019D01*
X64485000Y-159852796D01*
X64485001Y-159852799D01*
X64495676Y-159885013D01*
X64540186Y-160019334D01*
X64632288Y-160168656D01*
X64756344Y-160292712D01*
X64759628Y-160294737D01*
X64759653Y-160294753D01*
X64761445Y-160296746D01*
X64762011Y-160297193D01*
X64761934Y-160297289D01*
X64806379Y-160346699D01*
X64817603Y-160415661D01*
X64789761Y-160479744D01*
X64759665Y-160505826D01*
X64756660Y-160507679D01*
X64756655Y-160507683D01*
X64632684Y-160631654D01*
X64540643Y-160780875D01*
X64540641Y-160780880D01*
X64485494Y-160947302D01*
X64485493Y-160947309D01*
X64475000Y-161050013D01*
X64475000Y-161187500D01*
X66931000Y-161187500D01*
X66998039Y-161207185D01*
X67043794Y-161259989D01*
X67049022Y-161284022D01*
X67055000Y-161290000D01*
X67441000Y-161290000D01*
X67449685Y-161292550D01*
X67458647Y-161291262D01*
X67482687Y-161302240D01*
X67508039Y-161309685D01*
X67513966Y-161316525D01*
X67522203Y-161320287D01*
X67536492Y-161342521D01*
X67553794Y-161362489D01*
X67556081Y-161373003D01*
X67559977Y-161379065D01*
X67565000Y-161414000D01*
X67565000Y-161561500D01*
X67545315Y-161628539D01*
X67492511Y-161674294D01*
X67441000Y-161685500D01*
X67162695Y-161685500D01*
X67041470Y-161709613D01*
X67041460Y-161709616D01*
X66927273Y-161756913D01*
X66927260Y-161756920D01*
X66909030Y-161769102D01*
X66890983Y-161774752D01*
X66875074Y-161784977D01*
X66844114Y-161789428D01*
X66842353Y-161789980D01*
X66840139Y-161790000D01*
X66664000Y-161790000D01*
X66596961Y-161770315D01*
X66551206Y-161717511D01*
X66545977Y-161693477D01*
X66540000Y-161687500D01*
X64475001Y-161687500D01*
X64475001Y-161824986D01*
X64485494Y-161927697D01*
X64513428Y-162011996D01*
X64515830Y-162081824D01*
X64480098Y-162141866D01*
X64417578Y-162173059D01*
X64395722Y-162175000D01*
X64312500Y-162175000D01*
X64312500Y-163276000D01*
X64292815Y-163343039D01*
X64240011Y-163388794D01*
X64188500Y-163400000D01*
X63936500Y-163400000D01*
X63869461Y-163380315D01*
X63823706Y-163327511D01*
X63812500Y-163276000D01*
X63812500Y-162175000D01*
X63675027Y-162175000D01*
X63675012Y-162175001D01*
X63572302Y-162185494D01*
X63486004Y-162214091D01*
X63416176Y-162216493D01*
X63356134Y-162180761D01*
X63324941Y-162118241D01*
X63323000Y-162096385D01*
X63323000Y-157813345D01*
X67537500Y-157813345D01*
X67537500Y-157850000D01*
X68325000Y-157850000D01*
X68325000Y-157124999D01*
X68225860Y-157125000D01*
X68225844Y-157125001D01*
X68124847Y-157135319D01*
X67961199Y-157189546D01*
X67961188Y-157189551D01*
X67814465Y-157280052D01*
X67814461Y-157280055D01*
X67692555Y-157401961D01*
X67692552Y-157401965D01*
X67602051Y-157548688D01*
X67602046Y-157548699D01*
X67547819Y-157712347D01*
X67537500Y-157813345D01*
X63323000Y-157813345D01*
X63323000Y-151245189D01*
X63342685Y-151178150D01*
X63359319Y-151157508D01*
X66130319Y-148386508D01*
X66191642Y-148353023D01*
X66261334Y-148358007D01*
G37*
%TD.AperFunction*%
%TA.AperFunction,Conductor*%
G36*
X86991925Y-161454660D02*
G01*
X86998824Y-161454423D01*
X87023298Y-161468988D01*
X87049203Y-161480818D01*
X87052934Y-161486624D01*
X87058866Y-161490154D01*
X87071582Y-161515640D01*
X87086977Y-161539596D01*
X87088370Y-161549290D01*
X87090059Y-161552674D01*
X87092000Y-161574531D01*
X87092000Y-161735701D01*
X87094901Y-161772567D01*
X87094902Y-161772573D01*
X87140754Y-161930393D01*
X87140755Y-161930396D01*
X87224417Y-162071862D01*
X87224423Y-162071870D01*
X87340629Y-162188076D01*
X87340633Y-162188079D01*
X87340635Y-162188081D01*
X87482102Y-162271744D01*
X87503129Y-162277853D01*
X87639926Y-162317597D01*
X87639929Y-162317597D01*
X87639931Y-162317598D01*
X87676806Y-162320500D01*
X87676814Y-162320500D01*
X88833186Y-162320500D01*
X88833194Y-162320500D01*
X88870069Y-162317598D01*
X88870071Y-162317597D01*
X88870073Y-162317597D01*
X88928700Y-162300564D01*
X89027898Y-162271744D01*
X89169365Y-162188081D01*
X89169370Y-162188075D01*
X89175531Y-162183298D01*
X89176839Y-162184984D01*
X89228509Y-162156761D01*
X89298201Y-162161735D01*
X89345941Y-162193752D01*
X89370204Y-162220000D01*
X89635685Y-162220000D01*
X89698806Y-162237268D01*
X89757102Y-162271744D01*
X89778129Y-162277853D01*
X89914926Y-162317597D01*
X89914929Y-162317597D01*
X89914931Y-162317598D01*
X89951806Y-162320500D01*
X90349244Y-162320500D01*
X90357929Y-162323050D01*
X90366889Y-162321762D01*
X90373406Y-162322877D01*
X90430193Y-162334172D01*
X90492102Y-162366556D01*
X90526676Y-162427271D01*
X90530000Y-162455789D01*
X90530000Y-162484210D01*
X90510315Y-162551249D01*
X90457511Y-162597004D01*
X90430193Y-162605827D01*
X90395163Y-162612795D01*
X90373435Y-162617117D01*
X90349245Y-162619500D01*
X89951798Y-162619500D01*
X89914932Y-162622401D01*
X89914926Y-162622402D01*
X89757106Y-162668254D01*
X89757103Y-162668255D01*
X89698806Y-162702732D01*
X89635685Y-162720000D01*
X89370204Y-162720000D01*
X89345940Y-162746248D01*
X89285979Y-162782114D01*
X89216145Y-162779869D01*
X89176487Y-162755468D01*
X89175531Y-162756702D01*
X89169362Y-162751917D01*
X89027896Y-162668255D01*
X89027893Y-162668254D01*
X88870073Y-162622402D01*
X88870067Y-162622401D01*
X88833201Y-162619500D01*
X88833194Y-162619500D01*
X88435756Y-162619500D01*
X88411565Y-162617117D01*
X88354806Y-162605827D01*
X88335567Y-162602000D01*
X88335566Y-162602000D01*
X88174434Y-162602000D01*
X88174433Y-162602000D01*
X88155194Y-162605827D01*
X88098434Y-162617117D01*
X88074244Y-162619500D01*
X87676798Y-162619500D01*
X87639932Y-162622401D01*
X87639929Y-162622402D01*
X87585186Y-162638307D01*
X87546397Y-162649576D01*
X87511803Y-162654500D01*
X87348374Y-162654500D01*
X87281335Y-162634815D01*
X87242836Y-162595598D01*
X87240212Y-162591344D01*
X87116157Y-162467289D01*
X87116156Y-162467288D01*
X86966834Y-162375186D01*
X86861665Y-162340336D01*
X86804221Y-162300564D01*
X86786109Y-162270083D01*
X86722406Y-162116288D01*
X86722404Y-162116284D01*
X86722403Y-162116282D01*
X86650560Y-162008762D01*
X86632882Y-161982305D01*
X86518945Y-161868368D01*
X86518942Y-161868366D01*
X86372255Y-161721679D01*
X86338771Y-161660357D01*
X86343755Y-161590665D01*
X86385627Y-161534732D01*
X86451091Y-161510315D01*
X86459937Y-161509999D01*
X86697472Y-161509999D01*
X86697486Y-161509998D01*
X86800195Y-161499506D01*
X86928995Y-161456825D01*
X86957460Y-161455845D01*
X86985647Y-161451793D01*
X86991925Y-161454660D01*
G37*
%TD.AperFunction*%
%TA.AperFunction,Conductor*%
G36*
X72200171Y-156520185D02*
G01*
X72245926Y-156572989D01*
X72254749Y-156600308D01*
X72278340Y-156718907D01*
X72278343Y-156718917D01*
X72337247Y-156861124D01*
X72336383Y-156861481D01*
X72349500Y-156913840D01*
X72349500Y-158387727D01*
X72364313Y-158500235D01*
X72364313Y-158500236D01*
X72406688Y-158602539D01*
X72422302Y-158640233D01*
X72514549Y-158760451D01*
X72634767Y-158852698D01*
X72634770Y-158852699D01*
X72634771Y-158852700D01*
X72710450Y-158884047D01*
X72764854Y-158927887D01*
X72786919Y-158994181D01*
X72769640Y-159061881D01*
X72766101Y-159067497D01*
X72746297Y-159097136D01*
X72746296Y-159097138D01*
X72682184Y-159251917D01*
X72682182Y-159251925D01*
X72649500Y-159416228D01*
X72649500Y-159583771D01*
X72682182Y-159748074D01*
X72682184Y-159748082D01*
X72746295Y-159902860D01*
X72839373Y-160042162D01*
X72957837Y-160160626D01*
X72998400Y-160187729D01*
X73097137Y-160253703D01*
X73251918Y-160317816D01*
X73397124Y-160346699D01*
X73416228Y-160350499D01*
X73416232Y-160350500D01*
X73416233Y-160350500D01*
X73583768Y-160350500D01*
X73583769Y-160350499D01*
X73748082Y-160317816D01*
X73902863Y-160253703D01*
X74042162Y-160160626D01*
X74098327Y-160104461D01*
X74162319Y-160040470D01*
X74223642Y-160006985D01*
X74293334Y-160011969D01*
X74337681Y-160040470D01*
X74457837Y-160160626D01*
X74498400Y-160187729D01*
X74597137Y-160253703D01*
X74751918Y-160317816D01*
X74897124Y-160346699D01*
X74916228Y-160350499D01*
X74916232Y-160350500D01*
X74916233Y-160350500D01*
X75083768Y-160350500D01*
X75083769Y-160350499D01*
X75248082Y-160317816D01*
X75402863Y-160253703D01*
X75542162Y-160160626D01*
X75660626Y-160042162D01*
X75753703Y-159902863D01*
X75817816Y-159748082D01*
X75850500Y-159583767D01*
X75850500Y-159416233D01*
X75817816Y-159251918D01*
X75753703Y-159097137D01*
X75753702Y-159097135D01*
X75752994Y-159095426D01*
X75745525Y-159025957D01*
X75776800Y-158963478D01*
X75836889Y-158927825D01*
X75883741Y-158925034D01*
X75887280Y-158925500D01*
X75887287Y-158925500D01*
X76112713Y-158925500D01*
X76112720Y-158925500D01*
X76225236Y-158910687D01*
X76225236Y-158910686D01*
X76233295Y-158909626D01*
X76233698Y-158912689D01*
X76266302Y-158912689D01*
X76266705Y-158909626D01*
X76274763Y-158910686D01*
X76274764Y-158910687D01*
X76387280Y-158925500D01*
X76387287Y-158925500D01*
X76612713Y-158925500D01*
X76612720Y-158925500D01*
X76725236Y-158910687D01*
X76725236Y-158910686D01*
X76733295Y-158909626D01*
X76733698Y-158912689D01*
X76766302Y-158912689D01*
X76766705Y-158909626D01*
X76774763Y-158910686D01*
X76774764Y-158910687D01*
X76887280Y-158925500D01*
X76887287Y-158925500D01*
X77112713Y-158925500D01*
X77112720Y-158925500D01*
X77225236Y-158910687D01*
X77225236Y-158910686D01*
X77233295Y-158909626D01*
X77233698Y-158912689D01*
X77266302Y-158912689D01*
X77266705Y-158909626D01*
X77274763Y-158910686D01*
X77274764Y-158910687D01*
X77387280Y-158925500D01*
X77387287Y-158925500D01*
X77612713Y-158925500D01*
X77612720Y-158925500D01*
X77725236Y-158910687D01*
X77725236Y-158910686D01*
X77733295Y-158909626D01*
X77733698Y-158912689D01*
X77766302Y-158912689D01*
X77766705Y-158909626D01*
X77774763Y-158910686D01*
X77774764Y-158910687D01*
X77887280Y-158925500D01*
X77887287Y-158925500D01*
X78112713Y-158925500D01*
X78112720Y-158925500D01*
X78225236Y-158910687D01*
X78225236Y-158910686D01*
X78233295Y-158909626D01*
X78233698Y-158912689D01*
X78266302Y-158912689D01*
X78266705Y-158909626D01*
X78274763Y-158910686D01*
X78274764Y-158910687D01*
X78387280Y-158925500D01*
X78387287Y-158925500D01*
X78612713Y-158925500D01*
X78612720Y-158925500D01*
X78725236Y-158910687D01*
X78725236Y-158910686D01*
X78733295Y-158909626D01*
X78733698Y-158912689D01*
X78766302Y-158912689D01*
X78766705Y-158909626D01*
X78774763Y-158910686D01*
X78774764Y-158910687D01*
X78887280Y-158925500D01*
X78887287Y-158925500D01*
X79112713Y-158925500D01*
X79112720Y-158925500D01*
X79225236Y-158910687D01*
X79225236Y-158910686D01*
X79233295Y-158909626D01*
X79233698Y-158912689D01*
X79266302Y-158912689D01*
X79266705Y-158909626D01*
X79274763Y-158910686D01*
X79274764Y-158910687D01*
X79387280Y-158925500D01*
X79387287Y-158925500D01*
X79612713Y-158925500D01*
X79612720Y-158925500D01*
X79725236Y-158910687D01*
X79725238Y-158910685D01*
X79729939Y-158910067D01*
X79729970Y-158910053D01*
X79730029Y-158910055D01*
X79733295Y-158909626D01*
X79733373Y-158910224D01*
X79744774Y-158910799D01*
X79765257Y-158909367D01*
X79774277Y-158910485D01*
X79774764Y-158910687D01*
X79887280Y-158925500D01*
X79895377Y-158925500D01*
X79902975Y-158926442D01*
X79928290Y-158937413D01*
X79954757Y-158945185D01*
X79959889Y-158951108D01*
X79967083Y-158954226D01*
X79982447Y-158977140D01*
X80000512Y-158997989D01*
X80001627Y-159005748D01*
X80005993Y-159012259D01*
X80006529Y-159039839D01*
X80010456Y-159067147D01*
X80007199Y-159074277D01*
X80007352Y-159082115D01*
X79992892Y-159105606D01*
X79981431Y-159130703D01*
X79975399Y-159137181D01*
X77201400Y-161911181D01*
X77140077Y-161944666D01*
X77113719Y-161947500D01*
X72457694Y-161947500D01*
X72390655Y-161927815D01*
X72344900Y-161875011D01*
X72334755Y-161807315D01*
X72335687Y-161800236D01*
X72350500Y-161687720D01*
X72350500Y-161462280D01*
X72335687Y-161349764D01*
X72335686Y-161349763D01*
X72334626Y-161341705D01*
X72337689Y-161341301D01*
X72337689Y-161308698D01*
X72334626Y-161308295D01*
X72336868Y-161291262D01*
X72350500Y-161187720D01*
X72350500Y-160962280D01*
X72335687Y-160849764D01*
X72335686Y-160849763D01*
X72334626Y-160841705D01*
X72337689Y-160841301D01*
X72337689Y-160808698D01*
X72334626Y-160808295D01*
X72335687Y-160800236D01*
X72350500Y-160687720D01*
X72350500Y-160462280D01*
X72335687Y-160349764D01*
X72335686Y-160349763D01*
X72334626Y-160341705D01*
X72337689Y-160341301D01*
X72337689Y-160308698D01*
X72334626Y-160308295D01*
X72336409Y-160294753D01*
X72350500Y-160187720D01*
X72350500Y-159962280D01*
X72335687Y-159849764D01*
X72335686Y-159849763D01*
X72334626Y-159841705D01*
X72337689Y-159841301D01*
X72337689Y-159808698D01*
X72334626Y-159808295D01*
X72342298Y-159750019D01*
X72350500Y-159687720D01*
X72350500Y-159462280D01*
X72335687Y-159349764D01*
X72277698Y-159209767D01*
X72185451Y-159089549D01*
X72065233Y-158997302D01*
X72065229Y-158997300D01*
X71983575Y-158963478D01*
X71925236Y-158939313D01*
X71910804Y-158937413D01*
X71812727Y-158924500D01*
X71812720Y-158924500D01*
X71801189Y-158924500D01*
X71734150Y-158904815D01*
X71713508Y-158888181D01*
X71367986Y-158542660D01*
X71334501Y-158481337D01*
X71332309Y-158442380D01*
X71338000Y-158386677D01*
X71337999Y-157813324D01*
X71327674Y-157712247D01*
X71273408Y-157548484D01*
X71182840Y-157401650D01*
X71154319Y-157373129D01*
X71120834Y-157311806D01*
X71118000Y-157285448D01*
X71118000Y-156786999D01*
X71137685Y-156719960D01*
X71190489Y-156674205D01*
X71242000Y-156662999D01*
X71450002Y-156662999D01*
X71450008Y-156662999D01*
X71552797Y-156652499D01*
X71719334Y-156597314D01*
X71846366Y-156518960D01*
X71862923Y-156514264D01*
X71876526Y-156505523D01*
X71911461Y-156500500D01*
X72133132Y-156500500D01*
X72200171Y-156520185D01*
G37*
%TD.AperFunction*%
%TA.AperFunction,Conductor*%
G36*
X88923039Y-158939185D02*
G01*
X88968794Y-158991989D01*
X88980000Y-159043500D01*
X88980000Y-159120000D01*
X90106000Y-159120000D01*
X90173039Y-159139685D01*
X90218794Y-159192489D01*
X90230000Y-159244000D01*
X90230000Y-159496000D01*
X90210315Y-159563039D01*
X90157511Y-159608794D01*
X90106000Y-159620000D01*
X88980000Y-159620000D01*
X88980000Y-160167844D01*
X88986401Y-160227372D01*
X88986403Y-160227379D01*
X89036645Y-160362086D01*
X89036649Y-160362093D01*
X89122809Y-160477187D01*
X89122812Y-160477190D01*
X89237906Y-160563350D01*
X89237913Y-160563354D01*
X89372620Y-160613596D01*
X89372627Y-160613598D01*
X89432155Y-160619999D01*
X89432172Y-160620000D01*
X89554521Y-160620000D01*
X89621560Y-160639685D01*
X89667315Y-160692489D01*
X89677259Y-160761647D01*
X89648234Y-160825203D01*
X89642014Y-160831869D01*
X89631009Y-160842826D01*
X89615635Y-160851919D01*
X89499419Y-160968135D01*
X89491191Y-160982047D01*
X89479993Y-160993198D01*
X89462612Y-161002639D01*
X89448157Y-161016136D01*
X89432543Y-161018975D01*
X89418599Y-161026551D01*
X89398875Y-161025098D01*
X89379415Y-161028637D01*
X89364744Y-161022583D01*
X89348918Y-161021418D01*
X89333110Y-161009531D01*
X89314827Y-161001988D01*
X89299399Y-160984183D01*
X89293074Y-160979427D01*
X89291427Y-160974982D01*
X89290643Y-160974078D01*
X89290361Y-160974298D01*
X89286323Y-160969092D01*
X89285771Y-160968455D01*
X89285585Y-160968140D01*
X89285576Y-160968129D01*
X89169370Y-160851923D01*
X89169362Y-160851917D01*
X89049244Y-160780880D01*
X89027898Y-160768256D01*
X89027897Y-160768255D01*
X89027896Y-160768255D01*
X89027893Y-160768254D01*
X88870073Y-160722402D01*
X88870067Y-160722401D01*
X88833201Y-160719500D01*
X88833194Y-160719500D01*
X87676806Y-160719500D01*
X87676798Y-160719500D01*
X87639932Y-160722401D01*
X87639926Y-160722402D01*
X87556095Y-160746758D01*
X87486225Y-160746559D01*
X87427555Y-160708617D01*
X87398712Y-160644978D01*
X87397500Y-160627682D01*
X87397500Y-160597500D01*
X86121500Y-160597500D01*
X86054461Y-160577815D01*
X86008706Y-160525011D01*
X85997500Y-160473500D01*
X85997500Y-160347500D01*
X85871500Y-160347500D01*
X85804461Y-160327815D01*
X85758706Y-160275011D01*
X85747500Y-160223500D01*
X85747500Y-160097500D01*
X86247500Y-160097500D01*
X87397499Y-160097500D01*
X87397499Y-159885028D01*
X87397498Y-159885013D01*
X87387005Y-159782302D01*
X87331858Y-159615880D01*
X87331856Y-159615875D01*
X87239815Y-159466654D01*
X87115845Y-159342684D01*
X86966624Y-159250643D01*
X86966619Y-159250641D01*
X86800197Y-159195494D01*
X86800190Y-159195493D01*
X86697486Y-159185000D01*
X86247500Y-159185000D01*
X86247500Y-160097500D01*
X85747500Y-160097500D01*
X85747500Y-159185000D01*
X85297528Y-159185000D01*
X85297512Y-159185001D01*
X85285061Y-159186273D01*
X85216369Y-159173499D01*
X85165488Y-159125615D01*
X85148572Y-159057824D01*
X85166928Y-158997818D01*
X85178904Y-158978401D01*
X85230853Y-158931678D01*
X85284442Y-158919500D01*
X88856000Y-158919500D01*
X88923039Y-158939185D01*
G37*
%TD.AperFunction*%
%TA.AperFunction,Conductor*%
G36*
X83333737Y-157183813D02*
G01*
X83348724Y-157184885D01*
X83365224Y-157197236D01*
X83384187Y-157205321D01*
X83401750Y-157224579D01*
X83404658Y-157226756D01*
X83407372Y-157230743D01*
X83407970Y-157231399D01*
X83508880Y-157379978D01*
X83530261Y-157446496D01*
X83512286Y-157514014D01*
X83493984Y-157537325D01*
X83479661Y-157551648D01*
X83389093Y-157698481D01*
X83389092Y-157698484D01*
X83334826Y-157862247D01*
X83334826Y-157862248D01*
X83334825Y-157862248D01*
X83324500Y-157963315D01*
X83324500Y-157963323D01*
X83324500Y-158274501D01*
X83324501Y-158464500D01*
X83304817Y-158531539D01*
X83252013Y-158577294D01*
X83200501Y-158588500D01*
X82456500Y-158588500D01*
X82447814Y-158585949D01*
X82438853Y-158587238D01*
X82414812Y-158576259D01*
X82389461Y-158568815D01*
X82383533Y-158561974D01*
X82375297Y-158558213D01*
X82361007Y-158535978D01*
X82343706Y-158516011D01*
X82341418Y-158505496D01*
X82337523Y-158499435D01*
X82332500Y-158464500D01*
X82332500Y-158249749D01*
X82352185Y-158182710D01*
X82368819Y-158162068D01*
X82946721Y-157584166D01*
X82946724Y-157584163D01*
X83015396Y-157481388D01*
X83052404Y-157392040D01*
X83079276Y-157351821D01*
X83217715Y-157213382D01*
X83235802Y-157203506D01*
X83251031Y-157189618D01*
X83265843Y-157187102D01*
X83279032Y-157179901D01*
X83299591Y-157181371D01*
X83319914Y-157177920D01*
X83333737Y-157183813D01*
G37*
%TD.AperFunction*%
%TA.AperFunction,Conductor*%
G36*
X71068360Y-147070221D02*
G01*
X71084599Y-147083891D01*
X72619424Y-148618716D01*
X72652909Y-148680039D01*
X72647925Y-148749731D01*
X72606053Y-148805664D01*
X72570748Y-148824103D01*
X72448697Y-148864547D01*
X72448688Y-148864551D01*
X72301965Y-148955052D01*
X72301961Y-148955055D01*
X72180055Y-149076961D01*
X72180052Y-149076965D01*
X72089551Y-149223688D01*
X72089546Y-149223699D01*
X72035319Y-149387347D01*
X72025000Y-149488345D01*
X72025000Y-149587500D01*
X72876000Y-149587500D01*
X72943039Y-149607185D01*
X72988794Y-149659989D01*
X73000000Y-149711500D01*
X73000000Y-149963500D01*
X72980315Y-150030539D01*
X72927511Y-150076294D01*
X72876000Y-150087500D01*
X72025001Y-150087500D01*
X72025001Y-150186654D01*
X72035319Y-150287652D01*
X72089546Y-150451300D01*
X72089551Y-150451311D01*
X72180052Y-150598034D01*
X72180055Y-150598038D01*
X72193982Y-150611965D01*
X72227467Y-150673288D01*
X72222483Y-150742980D01*
X72193984Y-150787325D01*
X72179661Y-150801648D01*
X72089093Y-150948481D01*
X72089091Y-150948486D01*
X72078347Y-150980909D01*
X72034826Y-151112247D01*
X72034826Y-151112248D01*
X72034825Y-151112248D01*
X72024500Y-151213315D01*
X72024500Y-151244326D01*
X72004815Y-151311365D01*
X71952011Y-151357120D01*
X71882853Y-151367064D01*
X71835403Y-151349865D01*
X71719124Y-151278143D01*
X71719119Y-151278141D01*
X71552697Y-151222994D01*
X71552690Y-151222993D01*
X71449986Y-151212500D01*
X71000000Y-151212500D01*
X71000000Y-153537499D01*
X71449972Y-153537499D01*
X71449986Y-153537498D01*
X71552697Y-153527005D01*
X71719119Y-153471858D01*
X71719124Y-153471856D01*
X71835903Y-153399826D01*
X71903295Y-153381386D01*
X71969959Y-153402308D01*
X72014729Y-153455950D01*
X72025000Y-153505365D01*
X72025000Y-153525000D01*
X72876000Y-153525000D01*
X72943039Y-153544685D01*
X72988794Y-153597489D01*
X73000000Y-153649000D01*
X73000000Y-153901000D01*
X72980315Y-153968039D01*
X72927511Y-154013794D01*
X72876000Y-154025000D01*
X72025001Y-154025000D01*
X72025001Y-154124154D01*
X72035319Y-154225152D01*
X72072215Y-154336496D01*
X72073194Y-154364960D01*
X72077247Y-154393147D01*
X72074379Y-154399425D01*
X72074617Y-154406324D01*
X72060053Y-154430795D01*
X72048222Y-154456703D01*
X72042414Y-154460435D01*
X72038885Y-154466366D01*
X72013402Y-154479079D01*
X71989444Y-154494477D01*
X71979748Y-154495871D01*
X71976365Y-154497559D01*
X71954509Y-154499500D01*
X71911461Y-154499500D01*
X71846366Y-154481039D01*
X71719334Y-154402686D01*
X71552797Y-154347501D01*
X71552795Y-154347500D01*
X71450016Y-154337000D01*
X71450009Y-154337000D01*
X70795188Y-154337000D01*
X70728149Y-154317315D01*
X70707507Y-154300681D01*
X70156006Y-153749180D01*
X70122521Y-153687857D01*
X70127505Y-153618165D01*
X70169377Y-153562232D01*
X70234841Y-153537815D01*
X70243687Y-153537499D01*
X70499999Y-153537499D01*
X70500000Y-153537498D01*
X70500000Y-152625000D01*
X69350001Y-152625000D01*
X69350001Y-152643812D01*
X69330316Y-152710851D01*
X69277512Y-152756606D01*
X69208354Y-152766550D01*
X69144798Y-152737525D01*
X69138320Y-152731493D01*
X68319340Y-151912513D01*
X69350000Y-151912513D01*
X69350000Y-152125000D01*
X70500000Y-152125000D01*
X70500000Y-151212500D01*
X70050028Y-151212500D01*
X70050012Y-151212501D01*
X69947302Y-151222994D01*
X69780880Y-151278141D01*
X69780875Y-151278143D01*
X69631654Y-151370184D01*
X69507684Y-151494154D01*
X69415643Y-151643375D01*
X69415641Y-151643380D01*
X69360494Y-151809802D01*
X69360493Y-151809809D01*
X69350000Y-151912513D01*
X68319340Y-151912513D01*
X68014319Y-151607492D01*
X67980834Y-151546169D01*
X67978000Y-151519811D01*
X67978000Y-147859560D01*
X67997685Y-147792521D01*
X68050489Y-147746766D01*
X68062973Y-147741862D01*
X68099334Y-147729814D01*
X68248656Y-147637712D01*
X68372712Y-147513656D01*
X68464814Y-147364334D01*
X68464817Y-147364322D01*
X68465129Y-147363657D01*
X68465469Y-147363269D01*
X68468605Y-147358187D01*
X68469473Y-147358722D01*
X68511299Y-147311216D01*
X68578491Y-147292060D01*
X68645373Y-147312272D01*
X68665195Y-147328375D01*
X68807179Y-147470359D01*
X68981701Y-147597157D01*
X69173911Y-147695092D01*
X69379074Y-147761754D01*
X69458973Y-147774408D01*
X69592134Y-147795500D01*
X69592139Y-147795500D01*
X69807866Y-147795500D01*
X69926230Y-147776752D01*
X70020926Y-147761754D01*
X70226089Y-147695092D01*
X70418299Y-147597157D01*
X70592821Y-147470359D01*
X70745359Y-147317821D01*
X70872157Y-147143299D01*
X70886434Y-147115277D01*
X70934404Y-147064483D01*
X71002225Y-147047686D01*
X71068360Y-147070221D01*
G37*
%TD.AperFunction*%
%TA.AperFunction,Conductor*%
G36*
X88963333Y-147296006D02*
G01*
X89007680Y-147324507D01*
X90935681Y-149252508D01*
X90969166Y-149313831D01*
X90972000Y-149340189D01*
X90972000Y-149876000D01*
X90952315Y-149943039D01*
X90899511Y-149988794D01*
X90848000Y-150000000D01*
X90770000Y-150000000D01*
X90770000Y-151576000D01*
X90750315Y-151643039D01*
X90697511Y-151688794D01*
X90646000Y-151700000D01*
X90520000Y-151700000D01*
X90520000Y-151826000D01*
X90500315Y-151893039D01*
X90447511Y-151938794D01*
X90396000Y-151950000D01*
X89374000Y-151950000D01*
X89306961Y-151930315D01*
X89261206Y-151877511D01*
X89250000Y-151826000D01*
X89250000Y-151700000D01*
X89124000Y-151700000D01*
X89056961Y-151680315D01*
X89011206Y-151627511D01*
X89000000Y-151576000D01*
X89000000Y-151450000D01*
X89500000Y-151450000D01*
X90270000Y-151450000D01*
X90270000Y-150000000D01*
X90102155Y-150000000D01*
X90042627Y-150006401D01*
X90042619Y-150006403D01*
X89928333Y-150049029D01*
X89858641Y-150054013D01*
X89841667Y-150049029D01*
X89727380Y-150006403D01*
X89727372Y-150006401D01*
X89667844Y-150000000D01*
X89500000Y-150000000D01*
X89500000Y-151450000D01*
X89000000Y-151450000D01*
X89000000Y-150000000D01*
X88832155Y-150000000D01*
X88772627Y-150006401D01*
X88772620Y-150006403D01*
X88659047Y-150048763D01*
X88589355Y-150053747D01*
X88572381Y-150048763D01*
X88457482Y-150005908D01*
X88457483Y-150005908D01*
X88397883Y-149999501D01*
X88397881Y-149999500D01*
X88397873Y-149999500D01*
X88397864Y-149999500D01*
X87562129Y-149999500D01*
X87562123Y-149999501D01*
X87502516Y-150005908D01*
X87387618Y-150048763D01*
X87317926Y-150053747D01*
X87300952Y-150048763D01*
X87187379Y-150006403D01*
X87187372Y-150006401D01*
X87127844Y-150000000D01*
X86960000Y-150000000D01*
X86960000Y-151576000D01*
X86940315Y-151643039D01*
X86887511Y-151688794D01*
X86836000Y-151700000D01*
X86710000Y-151700000D01*
X86710000Y-151826000D01*
X86690315Y-151893039D01*
X86637511Y-151938794D01*
X86586000Y-151950000D01*
X85840000Y-151950000D01*
X85840000Y-152476500D01*
X85820315Y-152543539D01*
X85767511Y-152589294D01*
X85716000Y-152600500D01*
X84860194Y-152600500D01*
X84738970Y-152624613D01*
X84738960Y-152624616D01*
X84624773Y-152671913D01*
X84624760Y-152671920D01*
X84521992Y-152740588D01*
X84521988Y-152740591D01*
X83505523Y-153757056D01*
X83444200Y-153790541D01*
X83374508Y-153785557D01*
X83318575Y-153743685D01*
X83303281Y-153716828D01*
X83296651Y-153700823D01*
X83253703Y-153597137D01*
X83206842Y-153527005D01*
X83160626Y-153457837D01*
X83042165Y-153339376D01*
X83042159Y-153339371D01*
X83008628Y-153316966D01*
X82963824Y-153263354D01*
X82955117Y-153194029D01*
X82985272Y-153131001D01*
X83008630Y-153110763D01*
X83043445Y-153087500D01*
X83121445Y-153035382D01*
X85628321Y-150528504D01*
X85689642Y-150495021D01*
X85759333Y-150500005D01*
X85815267Y-150541877D01*
X85839684Y-150607341D01*
X85840000Y-150616187D01*
X85840000Y-151450000D01*
X86460000Y-151450000D01*
X86460000Y-150000000D01*
X86456187Y-150000000D01*
X86389148Y-149980315D01*
X86343393Y-149927511D01*
X86333449Y-149858353D01*
X86362474Y-149794797D01*
X86368494Y-149788331D01*
X88832318Y-147324506D01*
X88893641Y-147291022D01*
X88963333Y-147296006D01*
G37*
%TD.AperFunction*%
%TA.AperFunction,Conductor*%
G36*
X74179201Y-150178493D02*
G01*
X75289027Y-151288319D01*
X75322512Y-151349642D01*
X75317528Y-151419334D01*
X75275656Y-151475267D01*
X75210192Y-151499684D01*
X75201346Y-151500000D01*
X75050000Y-151500000D01*
X75050000Y-152476000D01*
X75030315Y-152543039D01*
X74977511Y-152588794D01*
X74926000Y-152600000D01*
X74674000Y-152600000D01*
X74606961Y-152580315D01*
X74561206Y-152527511D01*
X74550000Y-152476000D01*
X74550000Y-151500000D01*
X74300029Y-151500000D01*
X74300012Y-151500001D01*
X74197301Y-151510494D01*
X74138502Y-151529978D01*
X74068674Y-151532379D01*
X74008632Y-151496647D01*
X73977440Y-151434127D01*
X73975499Y-151412272D01*
X73975499Y-151213330D01*
X73975498Y-151213313D01*
X73965174Y-151112247D01*
X73910908Y-150948484D01*
X73820340Y-150801650D01*
X73806017Y-150787327D01*
X73772532Y-150726004D01*
X73777516Y-150656312D01*
X73806021Y-150611960D01*
X73819947Y-150598035D01*
X73910448Y-150451311D01*
X73910453Y-150451300D01*
X73964681Y-150287651D01*
X73968162Y-150253574D01*
X73994557Y-150188882D01*
X74051737Y-150148729D01*
X74121548Y-150145865D01*
X74179201Y-150178493D01*
G37*
%TD.AperFunction*%
%TA.AperFunction,Conductor*%
G36*
X84150000Y-145172480D02*
G01*
X84220809Y-145161266D01*
X84425901Y-145094627D01*
X84618036Y-144996728D01*
X84792493Y-144869977D01*
X84934578Y-144727892D01*
X84995901Y-144694407D01*
X85065593Y-144699391D01*
X85121527Y-144741262D01*
X85134640Y-144763165D01*
X85135181Y-144764325D01*
X85135185Y-144764332D01*
X85135186Y-144764334D01*
X85227288Y-144913656D01*
X85351344Y-145037712D01*
X85500666Y-145129814D01*
X85667203Y-145184999D01*
X85769991Y-145195500D01*
X86827310Y-145195499D01*
X86894349Y-145215183D01*
X86914991Y-145231818D01*
X87675492Y-145992319D01*
X87708977Y-146053642D01*
X87703993Y-146123334D01*
X87675492Y-146167681D01*
X83027222Y-150815950D01*
X82965899Y-150849435D01*
X82896207Y-150844451D01*
X82840274Y-150802579D01*
X82820200Y-150757563D01*
X82819585Y-150757750D01*
X82818097Y-150752845D01*
X82817923Y-150752455D01*
X82817817Y-150751922D01*
X82817816Y-150751920D01*
X82817816Y-150751918D01*
X82753703Y-150597137D01*
X82669028Y-150470413D01*
X82648151Y-150403736D01*
X82666636Y-150336356D01*
X82697817Y-150302258D01*
X82757546Y-150257546D01*
X82843796Y-150142331D01*
X82894091Y-150007483D01*
X82900500Y-149947873D01*
X82900499Y-147852128D01*
X82894412Y-147795500D01*
X82894091Y-147792516D01*
X82843797Y-147657671D01*
X82843793Y-147657664D01*
X82757547Y-147542455D01*
X82757544Y-147542452D01*
X82642335Y-147456206D01*
X82642328Y-147456202D01*
X82507482Y-147405908D01*
X82507483Y-147405908D01*
X82447883Y-147399501D01*
X82447881Y-147399500D01*
X82447873Y-147399500D01*
X82447865Y-147399500D01*
X82111500Y-147399500D01*
X82044461Y-147379815D01*
X81998706Y-147327011D01*
X81987500Y-147275500D01*
X81987500Y-145119408D01*
X82007185Y-145052369D01*
X82055207Y-145008922D01*
X82078299Y-144997157D01*
X82252821Y-144870359D01*
X82405359Y-144717821D01*
X82529991Y-144546279D01*
X82585321Y-144503614D01*
X82654934Y-144497635D01*
X82716729Y-144530241D01*
X82730627Y-144546279D01*
X82855025Y-144717496D01*
X82855025Y-144717497D01*
X83007502Y-144869974D01*
X83181963Y-144996728D01*
X83374098Y-145094627D01*
X83579190Y-145161266D01*
X83650000Y-145172481D01*
X83650000Y-144142709D01*
X83670339Y-144154452D01*
X83821667Y-144195000D01*
X83978333Y-144195000D01*
X84129661Y-144154452D01*
X84150000Y-144142709D01*
X84150000Y-145172480D01*
G37*
%TD.AperFunction*%
%TA.AperFunction,Conductor*%
G36*
X108642539Y-138320185D02*
G01*
X108688294Y-138372989D01*
X108699500Y-138424500D01*
X108699500Y-188575500D01*
X108679815Y-188642539D01*
X108627011Y-188688294D01*
X108575500Y-188699500D01*
X59424500Y-188699500D01*
X59357461Y-188679815D01*
X59311706Y-188627011D01*
X59300500Y-188575500D01*
X59300500Y-176454983D01*
X61134500Y-176454983D01*
X61134500Y-178245001D01*
X61134501Y-178245018D01*
X61145000Y-178347796D01*
X61145001Y-178347799D01*
X61197814Y-178507176D01*
X61200186Y-178514334D01*
X61292288Y-178663656D01*
X61416344Y-178787712D01*
X61565666Y-178879814D01*
X61602006Y-178891855D01*
X61659448Y-178931625D01*
X61686272Y-178996140D01*
X61687000Y-179009560D01*
X61687000Y-181085570D01*
X61718433Y-181243594D01*
X61718435Y-181243602D01*
X61740650Y-181297233D01*
X61740650Y-181297234D01*
X61780097Y-181392468D01*
X61780098Y-181392471D01*
X61869617Y-181526444D01*
X61869620Y-181526448D01*
X68364618Y-188021445D01*
X68478552Y-188135379D01*
X68478554Y-188135381D01*
X68612533Y-188224903D01*
X68686959Y-188255731D01*
X68761398Y-188286565D01*
X68919429Y-188317999D01*
X68919433Y-188318000D01*
X68919434Y-188318000D01*
X82080567Y-188318000D01*
X82080568Y-188317999D01*
X82238602Y-188286565D01*
X82313035Y-188255733D01*
X82387468Y-188224903D01*
X82521445Y-188135382D01*
X86846442Y-183810383D01*
X86846445Y-183810382D01*
X86960382Y-183696445D01*
X87033959Y-183586329D01*
X87049903Y-183562468D01*
X87111565Y-183413602D01*
X87143000Y-183255566D01*
X87143000Y-182659560D01*
X87162685Y-182592521D01*
X87215489Y-182546766D01*
X87227973Y-182541862D01*
X87264334Y-182529814D01*
X87413656Y-182437712D01*
X87537712Y-182313656D01*
X87629814Y-182164334D01*
X87684999Y-181997797D01*
X87695500Y-181895009D01*
X87695499Y-180104992D01*
X87684999Y-180002203D01*
X87629814Y-179835666D01*
X87537712Y-179686344D01*
X87413656Y-179562288D01*
X87291967Y-179487230D01*
X87264336Y-179470187D01*
X87264331Y-179470185D01*
X87262862Y-179469698D01*
X87097797Y-179415001D01*
X87097795Y-179415000D01*
X86995016Y-179404500D01*
X86995009Y-179404500D01*
X86663500Y-179404500D01*
X86596461Y-179384815D01*
X86550706Y-179332011D01*
X86539500Y-179280500D01*
X86539500Y-175868999D01*
X86559185Y-175801960D01*
X86611989Y-175756205D01*
X86663500Y-175744999D01*
X86860000Y-175744999D01*
X86860000Y-174692709D01*
X86880339Y-174704452D01*
X87031667Y-174745000D01*
X87188333Y-174745000D01*
X87339661Y-174704452D01*
X87360000Y-174692709D01*
X87360000Y-175744999D01*
X87779972Y-175744999D01*
X87779986Y-175744998D01*
X87882697Y-175734505D01*
X88049119Y-175679358D01*
X88049124Y-175679356D01*
X88165814Y-175607381D01*
X88233206Y-175588941D01*
X88299870Y-175609863D01*
X88318592Y-175625239D01*
X88666361Y-175973008D01*
X88753764Y-176060411D01*
X88782544Y-176079641D01*
X88782545Y-176079642D01*
X88856532Y-176129079D01*
X88856545Y-176129086D01*
X88970732Y-176176383D01*
X88970737Y-176176385D01*
X88970741Y-176176385D01*
X88970742Y-176176386D01*
X89091965Y-176200500D01*
X89091968Y-176200500D01*
X90418804Y-176200500D01*
X90418805Y-176200499D01*
X90540035Y-176176386D01*
X90620784Y-176142937D01*
X90654233Y-176129083D01*
X90757008Y-176060411D01*
X90844411Y-175973008D01*
X92663100Y-174154317D01*
X92724423Y-174120833D01*
X92750781Y-174117999D01*
X93086670Y-174117999D01*
X93086676Y-174117999D01*
X93187753Y-174107674D01*
X93351516Y-174053408D01*
X93498350Y-173962840D01*
X93620340Y-173840850D01*
X93710908Y-173694016D01*
X93765174Y-173530253D01*
X93775500Y-173429177D01*
X93775499Y-172830824D01*
X93767166Y-172749253D01*
X93779935Y-172680564D01*
X93827816Y-172629679D01*
X93895606Y-172612758D01*
X93955620Y-172631115D01*
X93960871Y-172634354D01*
X93960880Y-172634358D01*
X94127302Y-172689505D01*
X94127309Y-172689506D01*
X94230019Y-172699999D01*
X94379999Y-172699999D01*
X94380000Y-172699998D01*
X94380000Y-170300000D01*
X94230027Y-170300000D01*
X94230012Y-170300001D01*
X94127302Y-170310494D01*
X93960880Y-170365641D01*
X93960875Y-170365643D01*
X93807097Y-170460495D01*
X93739704Y-170478935D01*
X93673041Y-170458012D01*
X93628271Y-170404370D01*
X93618000Y-170354956D01*
X93618000Y-169719433D01*
X93617999Y-169719429D01*
X93586566Y-169561405D01*
X93586565Y-169561398D01*
X93543398Y-169457185D01*
X93524903Y-169412533D01*
X93457395Y-169311500D01*
X93435382Y-169278555D01*
X93321445Y-169164618D01*
X93261813Y-169104986D01*
X93246392Y-169086195D01*
X93160629Y-168957842D01*
X93160623Y-168957834D01*
X93042165Y-168839376D01*
X93042157Y-168839370D01*
X92987130Y-168802602D01*
X92942324Y-168748990D01*
X92933617Y-168679665D01*
X92963771Y-168616638D01*
X93023214Y-168579918D01*
X93056020Y-168575500D01*
X96791600Y-168575500D01*
X96858639Y-168595185D01*
X96904394Y-168647989D01*
X96914338Y-168717147D01*
X96885313Y-168780703D01*
X96879281Y-168787181D01*
X96268100Y-169398363D01*
X96158365Y-169508097D01*
X96158361Y-169508103D01*
X96080768Y-169642496D01*
X96080767Y-169642500D01*
X96040600Y-169792404D01*
X96040600Y-169792406D01*
X96040600Y-170249157D01*
X96020915Y-170316196D01*
X95968111Y-170361951D01*
X95964886Y-170363218D01*
X95960669Y-170365184D01*
X95811345Y-170457287D01*
X95717327Y-170551305D01*
X95656003Y-170584789D01*
X95586312Y-170579805D01*
X95541965Y-170551304D01*
X95448345Y-170457684D01*
X95299124Y-170365643D01*
X95299119Y-170365641D01*
X95132697Y-170310494D01*
X95132690Y-170310493D01*
X95029986Y-170300000D01*
X94880000Y-170300000D01*
X94880000Y-172699999D01*
X95029972Y-172699999D01*
X95029986Y-172699998D01*
X95132697Y-172689505D01*
X95299119Y-172634358D01*
X95299124Y-172634356D01*
X95448342Y-172542317D01*
X95541964Y-172448695D01*
X95603287Y-172415210D01*
X95672979Y-172420194D01*
X95717327Y-172448695D01*
X95811344Y-172542712D01*
X95960666Y-172634814D01*
X96127203Y-172689999D01*
X96229991Y-172700500D01*
X97030008Y-172700499D01*
X97030016Y-172700498D01*
X97030019Y-172700498D01*
X97086302Y-172694748D01*
X97132797Y-172689999D01*
X97299334Y-172634814D01*
X97448656Y-172542712D01*
X97572712Y-172418656D01*
X97605807Y-172364999D01*
X97657755Y-172318275D01*
X97726717Y-172307052D01*
X97790799Y-172334895D01*
X97799027Y-172342415D01*
X98342019Y-172885408D01*
X98342023Y-172885411D01*
X98444791Y-172954079D01*
X98444804Y-172954086D01*
X98520631Y-172985494D01*
X98558996Y-173001385D01*
X98559000Y-173001385D01*
X98559001Y-173001386D01*
X98680225Y-173025500D01*
X98680228Y-173025500D01*
X100589773Y-173025500D01*
X100589774Y-173025499D01*
X100711004Y-173001386D01*
X100802286Y-172963575D01*
X100825202Y-172954083D01*
X100927977Y-172885411D01*
X101015380Y-172798008D01*
X101500411Y-172312977D01*
X101569083Y-172210202D01*
X101616385Y-172096004D01*
X101632329Y-172015850D01*
X101640500Y-171974775D01*
X101640500Y-171320000D01*
X102445138Y-171320000D01*
X103248012Y-171320000D01*
X103230795Y-171329940D01*
X103174940Y-171385795D01*
X103135444Y-171454204D01*
X103115000Y-171530504D01*
X103115000Y-171609496D01*
X103135444Y-171685796D01*
X103174940Y-171754205D01*
X103230795Y-171810060D01*
X103248012Y-171820000D01*
X102445138Y-171820000D01*
X102453430Y-171861690D01*
X102453430Y-171861692D01*
X102528807Y-172043671D01*
X102528814Y-172043684D01*
X102638248Y-172207462D01*
X102638251Y-172207466D01*
X102777533Y-172346748D01*
X102777537Y-172346751D01*
X102941315Y-172456185D01*
X102941328Y-172456192D01*
X103123306Y-172531569D01*
X103123318Y-172531572D01*
X103316504Y-172569999D01*
X103316508Y-172570000D01*
X103565000Y-172570000D01*
X103565000Y-171870000D01*
X104065000Y-171870000D01*
X104065000Y-172570000D01*
X104313492Y-172570000D01*
X104313495Y-172569999D01*
X104506681Y-172531572D01*
X104506693Y-172531569D01*
X104688671Y-172456192D01*
X104688684Y-172456185D01*
X104852462Y-172346751D01*
X104852466Y-172346748D01*
X104991748Y-172207466D01*
X104991751Y-172207462D01*
X105101185Y-172043684D01*
X105101192Y-172043671D01*
X105176569Y-171861692D01*
X105176569Y-171861690D01*
X105184862Y-171820000D01*
X104381988Y-171820000D01*
X104399205Y-171810060D01*
X104455060Y-171754205D01*
X104494556Y-171685796D01*
X104515000Y-171609496D01*
X104515000Y-171530504D01*
X104494556Y-171454204D01*
X104455060Y-171385795D01*
X104399205Y-171329940D01*
X104381988Y-171320000D01*
X105184862Y-171320000D01*
X105176569Y-171278309D01*
X105176569Y-171278307D01*
X105101192Y-171096328D01*
X105101185Y-171096315D01*
X104991751Y-170932537D01*
X104991748Y-170932533D01*
X104852466Y-170793251D01*
X104852462Y-170793248D01*
X104688684Y-170683814D01*
X104688671Y-170683807D01*
X104506693Y-170608430D01*
X104506681Y-170608427D01*
X104313495Y-170570000D01*
X104065000Y-170570000D01*
X104065000Y-171270000D01*
X103565000Y-171270000D01*
X103565000Y-170570000D01*
X103316504Y-170570000D01*
X103123318Y-170608427D01*
X103123306Y-170608430D01*
X102941328Y-170683807D01*
X102941315Y-170683814D01*
X102777537Y-170793248D01*
X102777533Y-170793251D01*
X102638251Y-170932533D01*
X102638248Y-170932537D01*
X102528814Y-171096315D01*
X102528807Y-171096328D01*
X102453430Y-171278307D01*
X102453430Y-171278309D01*
X102445138Y-171320000D01*
X101640500Y-171320000D01*
X101640500Y-166241097D01*
X101616386Y-166119873D01*
X101616385Y-166119872D01*
X101616385Y-166119868D01*
X101596888Y-166072797D01*
X101569086Y-166005676D01*
X101569079Y-166005663D01*
X101500412Y-165902896D01*
X101472016Y-165874500D01*
X101413008Y-165815492D01*
X100576234Y-164978718D01*
X100542749Y-164917395D01*
X100547733Y-164847703D01*
X100576234Y-164803356D01*
X100620858Y-164758733D01*
X100689311Y-164656286D01*
X100736463Y-164542452D01*
X100760500Y-164421606D01*
X100760500Y-164298394D01*
X100736463Y-164177548D01*
X100698020Y-164084739D01*
X100689312Y-164063716D01*
X100689307Y-164063707D01*
X100634405Y-163981541D01*
X100613527Y-163914864D01*
X100632011Y-163847484D01*
X100668617Y-163809548D01*
X100822458Y-163706754D01*
X100822466Y-163706748D01*
X100961748Y-163567466D01*
X100961751Y-163567462D01*
X101071185Y-163403684D01*
X101071192Y-163403671D01*
X101146569Y-163221692D01*
X101146569Y-163221690D01*
X101154862Y-163180000D01*
X100351988Y-163180000D01*
X100369205Y-163170060D01*
X100425060Y-163114205D01*
X100464556Y-163045796D01*
X100485000Y-162969496D01*
X100485000Y-162890504D01*
X100464556Y-162814204D01*
X100425060Y-162745795D01*
X100369205Y-162689940D01*
X100351988Y-162680000D01*
X101154862Y-162680000D01*
X102445138Y-162680000D01*
X103248012Y-162680000D01*
X103230795Y-162689940D01*
X103174940Y-162745795D01*
X103135444Y-162814204D01*
X103115000Y-162890504D01*
X103115000Y-162969496D01*
X103135444Y-163045796D01*
X103174940Y-163114205D01*
X103230795Y-163170060D01*
X103248012Y-163180000D01*
X102445138Y-163180000D01*
X102453430Y-163221690D01*
X102453430Y-163221692D01*
X102528807Y-163403671D01*
X102528814Y-163403684D01*
X102638248Y-163567462D01*
X102638251Y-163567466D01*
X102777533Y-163706748D01*
X102777537Y-163706751D01*
X102941315Y-163816185D01*
X102941328Y-163816192D01*
X103123306Y-163891569D01*
X103123318Y-163891572D01*
X103316504Y-163929999D01*
X103316508Y-163930000D01*
X103565000Y-163930000D01*
X103565000Y-163230000D01*
X104065000Y-163230000D01*
X104065000Y-163930000D01*
X104313492Y-163930000D01*
X104313495Y-163929999D01*
X104506681Y-163891572D01*
X104506693Y-163891569D01*
X104688671Y-163816192D01*
X104688684Y-163816185D01*
X104852462Y-163706751D01*
X104852466Y-163706748D01*
X104991748Y-163567466D01*
X104991751Y-163567462D01*
X105101185Y-163403684D01*
X105101192Y-163403671D01*
X105176569Y-163221692D01*
X105176569Y-163221690D01*
X105184862Y-163180000D01*
X104381988Y-163180000D01*
X104399205Y-163170060D01*
X104455060Y-163114205D01*
X104494556Y-163045796D01*
X104515000Y-162969496D01*
X104515000Y-162890504D01*
X104494556Y-162814204D01*
X104455060Y-162745795D01*
X104399205Y-162689940D01*
X104381988Y-162680000D01*
X105184862Y-162680000D01*
X105176569Y-162638309D01*
X105176569Y-162638307D01*
X105101192Y-162456328D01*
X105101185Y-162456315D01*
X104991751Y-162292537D01*
X104991748Y-162292533D01*
X104852466Y-162153251D01*
X104852462Y-162153248D01*
X104688684Y-162043814D01*
X104688671Y-162043807D01*
X104506693Y-161968430D01*
X104506681Y-161968427D01*
X104313495Y-161930000D01*
X104065000Y-161930000D01*
X104065000Y-162630000D01*
X103565000Y-162630000D01*
X103565000Y-161930000D01*
X103316504Y-161930000D01*
X103123318Y-161968427D01*
X103123306Y-161968430D01*
X102941328Y-162043807D01*
X102941315Y-162043814D01*
X102777537Y-162153248D01*
X102777533Y-162153251D01*
X102638251Y-162292533D01*
X102638248Y-162292537D01*
X102528814Y-162456315D01*
X102528807Y-162456328D01*
X102453430Y-162638307D01*
X102453430Y-162638309D01*
X102445138Y-162680000D01*
X101154862Y-162680000D01*
X101146569Y-162638309D01*
X101146569Y-162638307D01*
X101071192Y-162456328D01*
X101071185Y-162456315D01*
X100961751Y-162292537D01*
X100961748Y-162292533D01*
X100822466Y-162153251D01*
X100822462Y-162153248D01*
X100658684Y-162043814D01*
X100658671Y-162043807D01*
X100476693Y-161968430D01*
X100476681Y-161968427D01*
X100283495Y-161930000D01*
X99885000Y-161930000D01*
X99885000Y-162630000D01*
X99385000Y-162630000D01*
X99385000Y-161930000D01*
X98986504Y-161930000D01*
X98793318Y-161968427D01*
X98793306Y-161968430D01*
X98611328Y-162043807D01*
X98611315Y-162043814D01*
X98447537Y-162153248D01*
X98447533Y-162153251D01*
X98308251Y-162292533D01*
X98308248Y-162292537D01*
X98198814Y-162456315D01*
X98198807Y-162456328D01*
X98123430Y-162638307D01*
X98123430Y-162638309D01*
X98115138Y-162680000D01*
X98918012Y-162680000D01*
X98900795Y-162689940D01*
X98844940Y-162745795D01*
X98805444Y-162814204D01*
X98785000Y-162890504D01*
X98785000Y-162969496D01*
X98805444Y-163045796D01*
X98844940Y-163114205D01*
X98900795Y-163170060D01*
X98918012Y-163180000D01*
X98115138Y-163180000D01*
X98123430Y-163221690D01*
X98123430Y-163221692D01*
X98170991Y-163336515D01*
X98178460Y-163405984D01*
X98159396Y-163453061D01*
X98029014Y-163647361D01*
X98004771Y-163667540D01*
X97981711Y-163689072D01*
X97978118Y-163689725D01*
X97975314Y-163692060D01*
X97944007Y-163695929D01*
X97912969Y-163701575D01*
X97909595Y-163700183D01*
X97905972Y-163700631D01*
X97877544Y-163686961D01*
X97848380Y-163674930D01*
X97843591Y-163670634D01*
X97843004Y-163670352D01*
X97842668Y-163669806D01*
X97838367Y-163665948D01*
X97741818Y-163569399D01*
X97708333Y-163508076D01*
X97705499Y-163481718D01*
X97705499Y-163108330D01*
X97705498Y-163108313D01*
X97695174Y-163007247D01*
X97682664Y-162969496D01*
X97640908Y-162843484D01*
X97601670Y-162779869D01*
X97600781Y-162778427D01*
X97600780Y-162778425D01*
X97550342Y-162696653D01*
X97550339Y-162696649D01*
X97428351Y-162574661D01*
X97428350Y-162574660D01*
X97314771Y-162504604D01*
X97281518Y-162484093D01*
X97281513Y-162484091D01*
X97230805Y-162467288D01*
X97117753Y-162429826D01*
X97117751Y-162429825D01*
X97016678Y-162419500D01*
X96343330Y-162419500D01*
X96343312Y-162419501D01*
X96242247Y-162429825D01*
X96078484Y-162484092D01*
X96078481Y-162484093D01*
X95931648Y-162574661D01*
X95892681Y-162613629D01*
X95831358Y-162647114D01*
X95761666Y-162642130D01*
X95717319Y-162613629D01*
X95678351Y-162574661D01*
X95678350Y-162574660D01*
X95564771Y-162504604D01*
X95531518Y-162484093D01*
X95531513Y-162484091D01*
X95480805Y-162467288D01*
X95367753Y-162429826D01*
X95367751Y-162429825D01*
X95266684Y-162419500D01*
X95266677Y-162419500D01*
X95206689Y-162419500D01*
X95139650Y-162399815D01*
X95093895Y-162347011D01*
X95083951Y-162277853D01*
X95112976Y-162214297D01*
X95119008Y-162207819D01*
X95635379Y-161691448D01*
X95635379Y-161691447D01*
X95635382Y-161691445D01*
X95724903Y-161557468D01*
X95757122Y-161479684D01*
X95761536Y-161469028D01*
X95761536Y-161469027D01*
X95764335Y-161462270D01*
X95786565Y-161408602D01*
X95818000Y-161250566D01*
X95818000Y-161250553D01*
X95818067Y-161249882D01*
X95819851Y-161237847D01*
X95850500Y-161083767D01*
X95850500Y-160916233D01*
X95817816Y-160751918D01*
X95761551Y-160616083D01*
X95753704Y-160597139D01*
X95660626Y-160457837D01*
X95542162Y-160339373D01*
X95402860Y-160246295D01*
X95248082Y-160182184D01*
X95248074Y-160182182D01*
X95083771Y-160149500D01*
X95083767Y-160149500D01*
X94916233Y-160149500D01*
X94916228Y-160149500D01*
X94751925Y-160182182D01*
X94751917Y-160182184D01*
X94597139Y-160246295D01*
X94457837Y-160339373D01*
X94339376Y-160457834D01*
X94339371Y-160457840D01*
X94310548Y-160500977D01*
X94256936Y-160545781D01*
X94187611Y-160554488D01*
X94173005Y-160547500D01*
X92997500Y-160547500D01*
X92997500Y-161459999D01*
X93253810Y-161459999D01*
X93320849Y-161479684D01*
X93366604Y-161532488D01*
X93376548Y-161601646D01*
X93347523Y-161665202D01*
X93341491Y-161671680D01*
X93008929Y-162004241D01*
X92947606Y-162037726D01*
X92877914Y-162032742D01*
X92833567Y-162004241D01*
X92481093Y-161651767D01*
X92447608Y-161590444D01*
X92452592Y-161520752D01*
X92481094Y-161476404D01*
X92497500Y-161459998D01*
X92497500Y-160421500D01*
X92517185Y-160354461D01*
X92569989Y-160308706D01*
X92621500Y-160297500D01*
X92747500Y-160297500D01*
X92747500Y-160171500D01*
X92767185Y-160104461D01*
X92819989Y-160058706D01*
X92871500Y-160047500D01*
X94147499Y-160047500D01*
X94147499Y-159835028D01*
X94147498Y-159835013D01*
X94137005Y-159732302D01*
X94081858Y-159565880D01*
X94081856Y-159565875D01*
X93989815Y-159416654D01*
X93865845Y-159292684D01*
X93716624Y-159200643D01*
X93716619Y-159200641D01*
X93597611Y-159161206D01*
X93540166Y-159121433D01*
X93513343Y-159056918D01*
X93525658Y-158988142D01*
X93573201Y-158936942D01*
X93636615Y-158919500D01*
X96979067Y-158919500D01*
X96979068Y-158919499D01*
X97137102Y-158888065D01*
X97222485Y-158852698D01*
X97285968Y-158826403D01*
X97419945Y-158736882D01*
X99135382Y-157021445D01*
X99224903Y-156887468D01*
X99243600Y-156842328D01*
X99255733Y-156813037D01*
X99255733Y-156813035D01*
X99286565Y-156738602D01*
X99318000Y-156580566D01*
X99318000Y-149919434D01*
X99286565Y-149761398D01*
X99227228Y-149618149D01*
X99225584Y-149613551D01*
X99135382Y-149478554D01*
X97971448Y-148314620D01*
X97971444Y-148314617D01*
X97837474Y-148225100D01*
X97837461Y-148225093D01*
X97688606Y-148163436D01*
X97688594Y-148163433D01*
X97530570Y-148132000D01*
X97530566Y-148132000D01*
X92180189Y-148132000D01*
X92113150Y-148112315D01*
X92092508Y-148095681D01*
X89437126Y-145440298D01*
X89437103Y-145440277D01*
X87846818Y-143849991D01*
X87813333Y-143788668D01*
X87810499Y-143762310D01*
X87810499Y-142704998D01*
X87810498Y-142704981D01*
X87799999Y-142602203D01*
X87799998Y-142602200D01*
X87744814Y-142435666D01*
X87652712Y-142286344D01*
X87528656Y-142162288D01*
X87379334Y-142070186D01*
X87212797Y-142015001D01*
X87212795Y-142015000D01*
X87110016Y-142004500D01*
X87110009Y-142004500D01*
X86052689Y-142004500D01*
X85985650Y-141984815D01*
X85965008Y-141968181D01*
X85347948Y-141351120D01*
X85347944Y-141351117D01*
X85213974Y-141261600D01*
X85213961Y-141261593D01*
X85065106Y-141199936D01*
X85065094Y-141199933D01*
X84907070Y-141168500D01*
X84907066Y-141168500D01*
X71292934Y-141168500D01*
X71292929Y-141168500D01*
X71134905Y-141199933D01*
X71134893Y-141199936D01*
X70986036Y-141261594D01*
X70986034Y-141261595D01*
X70912749Y-141310563D01*
X70912746Y-141310565D01*
X70905719Y-141315261D01*
X70852055Y-141351118D01*
X70738118Y-141465055D01*
X70738116Y-141465057D01*
X70735486Y-141467686D01*
X70735478Y-141467694D01*
X67634991Y-144568181D01*
X67573668Y-144601666D01*
X67547310Y-144604500D01*
X66489998Y-144604500D01*
X66489980Y-144604501D01*
X66387203Y-144615000D01*
X66387200Y-144615001D01*
X66220668Y-144670185D01*
X66220663Y-144670187D01*
X66071342Y-144762289D01*
X65947289Y-144886342D01*
X65855187Y-145035663D01*
X65855185Y-145035668D01*
X65849651Y-145052369D01*
X65800001Y-145202203D01*
X65800001Y-145202204D01*
X65800000Y-145202204D01*
X65789500Y-145304983D01*
X65789500Y-146362310D01*
X65769815Y-146429349D01*
X65753181Y-146449991D01*
X61869620Y-150333551D01*
X61869617Y-150333555D01*
X61780100Y-150467526D01*
X61780098Y-150467530D01*
X61780097Y-150467532D01*
X61756501Y-150524500D01*
X61718435Y-150616397D01*
X61718433Y-150616405D01*
X61687000Y-150774429D01*
X61687000Y-175690438D01*
X61667315Y-175757477D01*
X61614511Y-175803232D01*
X61602006Y-175808143D01*
X61565668Y-175820184D01*
X61416342Y-175912289D01*
X61292289Y-176036342D01*
X61200187Y-176185663D01*
X61200185Y-176185668D01*
X61195271Y-176200499D01*
X61145001Y-176352203D01*
X61145001Y-176352204D01*
X61145000Y-176352204D01*
X61134500Y-176454983D01*
X59300500Y-176454983D01*
X59300500Y-138424500D01*
X59320185Y-138357461D01*
X59372989Y-138311706D01*
X59424500Y-138300500D01*
X108575500Y-138300500D01*
X108642539Y-138320185D01*
G37*
%TD.AperFunction*%
%TD*%
M02*
