%TF.GenerationSoftware,KiCad,Pcbnew,9.0.7*%
%TF.CreationDate,2026-03-05T14:08:13-06:00*%
%TF.ProjectId,ece445_mirror,65636534-3435-45f6-9d69-72726f722e6b,rev?*%
%TF.SameCoordinates,Original*%
%TF.FileFunction,Paste,Top*%
%TF.FilePolarity,Positive*%
%FSLAX46Y46*%
G04 Gerber Fmt 4.6, Leading zero omitted, Abs format (unit mm)*
G04 Created by KiCad (PCBNEW 9.0.7) date 2026-03-05 14:08:13*
%MOMM*%
%LPD*%
G01*
G04 APERTURE LIST*
G04 Aperture macros list*
%AMRoundRect*
0 Rectangle with rounded corners*
0 $1 Rounding radius*
0 $2 $3 $4 $5 $6 $7 $8 $9 X,Y pos of 4 corners*
0 Add a 4 corners polygon primitive as box body*
4,1,4,$2,$3,$4,$5,$6,$7,$8,$9,$2,$3,0*
0 Add four circle primitives for the rounded corners*
1,1,$1+$1,$2,$3*
1,1,$1+$1,$4,$5*
1,1,$1+$1,$6,$7*
1,1,$1+$1,$8,$9*
0 Add four rect primitives between the rounded corners*
20,1,$1+$1,$2,$3,$4,$5,0*
20,1,$1+$1,$4,$5,$6,$7,0*
20,1,$1+$1,$6,$7,$8,$9,0*
20,1,$1+$1,$8,$9,$2,$3,0*%
G04 Aperture macros list end*
%ADD10RoundRect,0.237500X-0.237500X0.250000X-0.237500X-0.250000X0.237500X-0.250000X0.237500X0.250000X0*%
%ADD11RoundRect,0.250000X0.350000X0.450000X-0.350000X0.450000X-0.350000X-0.450000X0.350000X-0.450000X0*%
%ADD12RoundRect,0.237500X0.237500X-0.300000X0.237500X0.300000X-0.237500X0.300000X-0.237500X-0.300000X0*%
%ADD13RoundRect,0.250000X-0.475000X0.337500X-0.475000X-0.337500X0.475000X-0.337500X0.475000X0.337500X0*%
%ADD14RoundRect,0.250000X0.337500X0.475000X-0.337500X0.475000X-0.337500X-0.475000X0.337500X-0.475000X0*%
%ADD15RoundRect,0.250000X-0.350000X-0.450000X0.350000X-0.450000X0.350000X0.450000X-0.350000X0.450000X0*%
%ADD16RoundRect,0.250000X0.650000X-0.412500X0.650000X0.412500X-0.650000X0.412500X-0.650000X-0.412500X0*%
%ADD17R,0.740000X2.400000*%
%ADD18RoundRect,0.250000X0.450000X-0.350000X0.450000X0.350000X-0.450000X0.350000X-0.450000X-0.350000X0*%
%ADD19RoundRect,0.237500X0.300000X0.237500X-0.300000X0.237500X-0.300000X-0.237500X0.300000X-0.237500X0*%
%ADD20RoundRect,0.150000X0.512500X0.150000X-0.512500X0.150000X-0.512500X-0.150000X0.512500X-0.150000X0*%
%ADD21RoundRect,0.098750X0.296250X0.346250X-0.296250X0.346250X-0.296250X-0.346250X0.296250X-0.346250X0*%
%ADD22RoundRect,0.250000X-0.650000X0.412500X-0.650000X-0.412500X0.650000X-0.412500X0.650000X0.412500X0*%
%ADD23RoundRect,0.237500X-0.287500X-0.237500X0.287500X-0.237500X0.287500X0.237500X-0.287500X0.237500X0*%
%ADD24RoundRect,0.237500X0.237500X-0.250000X0.237500X0.250000X-0.237500X0.250000X-0.237500X-0.250000X0*%
%ADD25RoundRect,0.237500X-0.237500X0.300000X-0.237500X-0.300000X0.237500X-0.300000X0.237500X0.300000X0*%
%ADD26RoundRect,0.150000X0.425000X-0.150000X0.425000X0.150000X-0.425000X0.150000X-0.425000X-0.150000X0*%
%ADD27RoundRect,0.075000X0.500000X-0.075000X0.500000X0.075000X-0.500000X0.075000X-0.500000X-0.075000X0*%
%ADD28O,2.100000X1.000000*%
%ADD29O,1.800000X1.000000*%
%ADD30RoundRect,0.075000X-0.700000X-0.075000X0.700000X-0.075000X0.700000X0.075000X-0.700000X0.075000X0*%
%ADD31RoundRect,0.075000X-0.075000X-0.700000X0.075000X-0.700000X0.075000X0.700000X-0.075000X0.700000X0*%
%ADD32RoundRect,0.250000X-0.450000X0.350000X-0.450000X-0.350000X0.450000X-0.350000X0.450000X0.350000X0*%
G04 APERTURE END LIST*
D10*
%TO.C,R3*%
X92800000Y-173130000D03*
X92800000Y-171305000D03*
%TD*%
D11*
%TO.C,R11*%
X94630000Y-171500000D03*
X96630000Y-171500000D03*
%TD*%
D12*
%TO.C,C21*%
X84300000Y-158312500D03*
X84300000Y-156587500D03*
%TD*%
D13*
%TO.C,C19*%
X66800000Y-167362500D03*
X66800000Y-169437500D03*
%TD*%
%TO.C,C16*%
X65700000Y-159362500D03*
X65700000Y-161437500D03*
%TD*%
D14*
%TO.C,C15*%
X66137500Y-163400000D03*
X64062500Y-163400000D03*
%TD*%
D15*
%TO.C,R15*%
X79975000Y-176400000D03*
X81975000Y-176400000D03*
%TD*%
D16*
%TO.C,C27*%
X70750000Y-155500000D03*
X70750000Y-152375000D03*
%TD*%
D13*
%TO.C,C1*%
X77875000Y-174662500D03*
X77875000Y-176737500D03*
%TD*%
D17*
%TO.C,J1*%
X91790000Y-151700000D03*
X91790000Y-155600000D03*
X90520000Y-151700000D03*
X90520000Y-155600000D03*
X89250000Y-151700000D03*
X89250000Y-155600000D03*
X87980000Y-151700000D03*
X87980000Y-155600000D03*
X86710000Y-151700000D03*
X86710000Y-155600000D03*
%TD*%
D18*
%TO.C,R16*%
X74800000Y-154600000D03*
X74800000Y-152600000D03*
%TD*%
D15*
%TO.C,R18*%
X64200000Y-165400000D03*
X66200000Y-165400000D03*
%TD*%
D19*
%TO.C,C26*%
X70300000Y-158100000D03*
X68575000Y-158100000D03*
%TD*%
D20*
%TO.C,U4*%
X90530000Y-163420000D03*
X90530000Y-162470000D03*
X90530000Y-161520000D03*
X88255000Y-161520000D03*
X88255000Y-163420000D03*
%TD*%
D21*
%TO.C,Y1*%
X68745000Y-161540000D03*
X68745000Y-160060000D03*
X67565000Y-160060000D03*
X67565000Y-161540000D03*
%TD*%
D18*
%TO.C,R1*%
X73225000Y-176000000D03*
X73225000Y-174000000D03*
%TD*%
D22*
%TO.C,C17*%
X80175000Y-171012500D03*
X80175000Y-174137500D03*
%TD*%
D23*
%TO.C,D2*%
X94930000Y-163395000D03*
X96680000Y-163395000D03*
%TD*%
D24*
%TO.C,R20*%
X69075000Y-172887500D03*
X69075000Y-171062500D03*
%TD*%
D25*
%TO.C,C23*%
X68500000Y-163137500D03*
X68500000Y-164862500D03*
%TD*%
D18*
%TO.C,R2*%
X75500000Y-176000000D03*
X75500000Y-174000000D03*
%TD*%
D24*
%TO.C,R21*%
X70975000Y-172912500D03*
X70975000Y-171087500D03*
%TD*%
D18*
%TO.C,R14*%
X79050000Y-154400000D03*
X79050000Y-152400000D03*
%TD*%
D26*
%TO.C,J4*%
X99060000Y-170450000D03*
X99060000Y-169650000D03*
D27*
X99060000Y-168500000D03*
X99060000Y-167500000D03*
X99060000Y-167000000D03*
X99060000Y-166000000D03*
D26*
X99060000Y-164850000D03*
X99060000Y-164050000D03*
X99060000Y-164050000D03*
X99060000Y-164850000D03*
D27*
X99060000Y-165500000D03*
X99060000Y-166500000D03*
X99060000Y-168000000D03*
X99060000Y-169000000D03*
D26*
X99060000Y-169650000D03*
X99060000Y-170450000D03*
D28*
X99635000Y-171570000D03*
D29*
X103815000Y-171570000D03*
D28*
X99635000Y-162930000D03*
D29*
X103815000Y-162930000D03*
%TD*%
D12*
%TO.C,C24*%
X73000000Y-151562500D03*
X73000000Y-149837500D03*
%TD*%
D30*
%TO.C,U2*%
X71075000Y-159575000D03*
X71075000Y-160075000D03*
X71075000Y-160575000D03*
X71075000Y-161075000D03*
X71075000Y-161575000D03*
X71075000Y-162075000D03*
X71075000Y-162575000D03*
X71075000Y-163075000D03*
X71075000Y-163575000D03*
X71075000Y-164075000D03*
X71075000Y-164575000D03*
X71075000Y-165075000D03*
X71075000Y-165575000D03*
X71075000Y-166075000D03*
X71075000Y-166575000D03*
X71075000Y-167075000D03*
D31*
X73000000Y-169000000D03*
X73500000Y-169000000D03*
X74000000Y-169000000D03*
X74500000Y-169000000D03*
X75000000Y-169000000D03*
X75500000Y-169000000D03*
X76000000Y-169000000D03*
X76500000Y-169000000D03*
X77000000Y-169000000D03*
X77500000Y-169000000D03*
X78000000Y-169000000D03*
X78500000Y-169000000D03*
X79000000Y-169000000D03*
X79500000Y-169000000D03*
X80000000Y-169000000D03*
X80500000Y-169000000D03*
D30*
X82425000Y-167075000D03*
X82425000Y-166575000D03*
X82425000Y-166075000D03*
X82425000Y-165575000D03*
X82425000Y-165075000D03*
X82425000Y-164575000D03*
X82425000Y-164075000D03*
X82425000Y-163575000D03*
X82425000Y-163075000D03*
X82425000Y-162575000D03*
X82425000Y-162075000D03*
X82425000Y-161575000D03*
X82425000Y-161075000D03*
X82425000Y-160575000D03*
X82425000Y-160075000D03*
X82425000Y-159575000D03*
D31*
X80500000Y-157650000D03*
X80000000Y-157650000D03*
X79500000Y-157650000D03*
X79000000Y-157650000D03*
X78500000Y-157650000D03*
X78000000Y-157650000D03*
X77500000Y-157650000D03*
X77000000Y-157650000D03*
X76500000Y-157650000D03*
X76000000Y-157650000D03*
X75500000Y-157650000D03*
X75000000Y-157650000D03*
X74500000Y-157650000D03*
X74000000Y-157650000D03*
X73500000Y-157650000D03*
X73000000Y-157650000D03*
%TD*%
D24*
%TO.C,R17*%
X77000000Y-154000000D03*
X77000000Y-152175000D03*
%TD*%
D13*
%TO.C,C18*%
X68900000Y-166962500D03*
X68900000Y-169037500D03*
%TD*%
D25*
%TO.C,C22*%
X82175000Y-169462500D03*
X82175000Y-171187500D03*
%TD*%
D16*
%TO.C,C5*%
X92747500Y-163422500D03*
X92747500Y-160297500D03*
%TD*%
D20*
%TO.C,U3*%
X88537500Y-169787500D03*
X88537500Y-168837500D03*
X88537500Y-167887500D03*
X86262500Y-167887500D03*
X86262500Y-168837500D03*
X86262500Y-169787500D03*
%TD*%
D16*
%TO.C,C9*%
X85997500Y-163472500D03*
X85997500Y-160347500D03*
%TD*%
D11*
%TO.C,R10*%
X96630000Y-165470000D03*
X94630000Y-165470000D03*
%TD*%
D12*
%TO.C,C20*%
X73000000Y-155500000D03*
X73000000Y-153775000D03*
%TD*%
D19*
%TO.C,C25*%
X74387500Y-170975000D03*
X72662500Y-170975000D03*
%TD*%
D32*
%TO.C,R13*%
X81150000Y-152400000D03*
X81150000Y-154400000D03*
%TD*%
M02*
