%TF.GenerationSoftware,KiCad,Pcbnew,9.0.7*%
%TF.CreationDate,2026-03-05T14:08:13-06:00*%
%TF.ProjectId,ece445_mirror,65636534-3435-45f6-9d69-72726f722e6b,rev?*%
%TF.SameCoordinates,Original*%
%TF.FileFunction,Copper,L2,Bot*%
%TF.FilePolarity,Positive*%
%FSLAX46Y46*%
G04 Gerber Fmt 4.6, Leading zero omitted, Abs format (unit mm)*
G04 Created by KiCad (PCBNEW 9.0.7) date 2026-03-05 14:08:13*
%MOMM*%
%LPD*%
G01*
G04 APERTURE LIST*
G04 Aperture macros list*
%AMRoundRect*
0 Rectangle with rounded corners*
0 $1 Rounding radius*
0 $2 $3 $4 $5 $6 $7 $8 $9 X,Y pos of 4 corners*
0 Add a 4 corners polygon primitive as box body*
4,1,4,$2,$3,$4,$5,$6,$7,$8,$9,$2,$3,0*
0 Add four circle primitives for the rounded corners*
1,1,$1+$1,$2,$3*
1,1,$1+$1,$4,$5*
1,1,$1+$1,$6,$7*
1,1,$1+$1,$8,$9*
0 Add four rect primitives between the rounded corners*
20,1,$1+$1,$2,$3,$4,$5,0*
20,1,$1+$1,$4,$5,$6,$7,0*
20,1,$1+$1,$6,$7,$8,$9,0*
20,1,$1+$1,$8,$9,$2,$3,0*%
G04 Aperture macros list end*
%TA.AperFunction,ComponentPad*%
%ADD10RoundRect,0.250000X-0.620000X-0.845000X0.620000X-0.845000X0.620000X0.845000X-0.620000X0.845000X0*%
%TD*%
%TA.AperFunction,ComponentPad*%
%ADD11O,1.740000X2.190000*%
%TD*%
%TA.AperFunction,ComponentPad*%
%ADD12RoundRect,0.250000X0.620000X0.845000X-0.620000X0.845000X-0.620000X-0.845000X0.620000X-0.845000X0*%
%TD*%
%TA.AperFunction,ComponentPad*%
%ADD13O,2.100000X1.000000*%
%TD*%
%TA.AperFunction,ComponentPad*%
%ADD14O,1.800000X1.000000*%
%TD*%
%TA.AperFunction,ComponentPad*%
%ADD15RoundRect,0.250000X0.845000X-0.620000X0.845000X0.620000X-0.845000X0.620000X-0.845000X-0.620000X0*%
%TD*%
%TA.AperFunction,ComponentPad*%
%ADD16O,2.190000X1.740000*%
%TD*%
%TA.AperFunction,ViaPad*%
%ADD17C,0.700000*%
%TD*%
%TA.AperFunction,Conductor*%
%ADD18C,0.635000*%
%TD*%
%TA.AperFunction,Conductor*%
%ADD19C,0.254000*%
%TD*%
G04 APERTURE END LIST*
D10*
%TO.P,J9,1,Pin_1*%
%TO.N,GND*%
X87110000Y-174150000D03*
D11*
%TO.P,J9,2,Pin_2*%
%TO.N,+5V*%
X89650000Y-174150000D03*
%TD*%
D10*
%TO.P,J7,1,Pin_1*%
%TO.N,+3.3V*%
X67160000Y-146200000D03*
D11*
%TO.P,J7,2,Pin_2*%
%TO.N,Net-(J7-Pin_2)*%
X69700000Y-146200000D03*
%TD*%
D12*
%TO.P,J3,1,Pin_1*%
%TO.N,+3.3V*%
X86440000Y-143600000D03*
D11*
%TO.P,J3,2,Pin_2*%
%TO.N,GND*%
X83900000Y-143600000D03*
%TO.P,J3,3,Pin_3*%
%TO.N,/I2C_SCL*%
X81360000Y-143600000D03*
%TO.P,J3,4,Pin_4*%
%TO.N,/I2C_SDA*%
X78820000Y-143600000D03*
%TO.P,J3,5,Pin_5*%
%TO.N,/TOF_XSHUT*%
X76280000Y-143600000D03*
%TO.P,J3,6,Pin_6*%
%TO.N,/TOF_GPIO*%
X73740000Y-143600000D03*
%TD*%
D13*
%TO.P,J4,S1,SHIELD*%
%TO.N,GND*%
X99635000Y-171570000D03*
D14*
X103815000Y-171570000D03*
D13*
X99635000Y-162930000D03*
D14*
X103815000Y-162930000D03*
%TD*%
D15*
%TO.P,J8,1,Pin_1*%
%TO.N,GND*%
X78475000Y-181940000D03*
D16*
%TO.P,J8,2,Pin_2*%
%TO.N,Net-(J8-Pin_2)*%
X78475000Y-179400000D03*
%TD*%
D10*
%TO.P,J5,1,Pin_1*%
%TO.N,+3.3V*%
X62505000Y-177350000D03*
D11*
%TO.P,J5,2,Pin_2*%
%TO.N,/UART_TXC*%
X65045000Y-177350000D03*
%TO.P,J5,3,Pin_3*%
%TO.N,/UART_RXC*%
X67585000Y-177350000D03*
%TO.P,J5,4,Pin_4*%
%TO.N,GND*%
X70125000Y-177350000D03*
%TD*%
D12*
%TO.P,J6,1,Pin_1*%
%TO.N,+3.3V*%
X86325000Y-181000000D03*
D11*
%TO.P,J6,2,Pin_2*%
%TO.N,Net-(J6-Pin_2)*%
X83785000Y-181000000D03*
%TD*%
D10*
%TO.P,J2,1,Pin_1*%
%TO.N,GND*%
X70550000Y-184300000D03*
D11*
%TO.P,J2,2,Pin_2*%
%TO.N,Net-(J2-Pin_2)*%
X73090000Y-184300000D03*
%TD*%
D17*
%TO.N,GND*%
X83000000Y-158000000D03*
X72000000Y-157500000D03*
X67500000Y-165500000D03*
X75000000Y-165500000D03*
X104000000Y-174000000D03*
X104000000Y-160500000D03*
X94500000Y-174000000D03*
X86000000Y-166000000D03*
X95000000Y-169500000D03*
X90000000Y-166500000D03*
X97500000Y-160500000D03*
X88000000Y-160000000D03*
X85000000Y-152000000D03*
X89000000Y-148500000D03*
X84000000Y-146500000D03*
X70000000Y-149000000D03*
X65500000Y-155000000D03*
X79500000Y-163000000D03*
X80000000Y-167500000D03*
X66500000Y-173500000D03*
X67000000Y-172000000D03*
X67000000Y-181000000D03*
X69500000Y-181000000D03*
X76500000Y-185000000D03*
X81000000Y-184500000D03*
X83500000Y-174000000D03*
X88500000Y-178000000D03*
%TO.N,/LED_A*%
X73000000Y-172500000D03*
%TO.N,+3.3V*%
X76000000Y-173000000D03*
%TO.N,/LED_A*%
X75500000Y-172000000D03*
%TO.N,+5V*%
X92500000Y-169500000D03*
%TO.N,/SWD_TRC*%
X85000000Y-154500000D03*
%TO.N,/I2C_SCL*%
X82500000Y-154000000D03*
X82000000Y-151000000D03*
%TO.N,/SWD_TRC*%
X81000000Y-156000000D03*
%TO.N,/TOF_XSHUT*%
X75000000Y-159500000D03*
%TO.N,/TOF_GPIO*%
X73500000Y-159500000D03*
%TO.N,+5V*%
X95000000Y-161000000D03*
%TD*%
D18*
%TO.N,+5V*%
X92500000Y-163500000D02*
X95000000Y-161000000D01*
X92500000Y-169500000D02*
X92500000Y-163500000D01*
%TO.N,+3.3V*%
X76000000Y-173000000D02*
X78325000Y-173000000D01*
X78325000Y-173000000D02*
X86325000Y-181000000D01*
D19*
%TO.N,/I2C_SCL*%
X82000000Y-153500000D02*
X82500000Y-154000000D01*
X82000000Y-151000000D02*
X82000000Y-153500000D01*
%TO.N,/LED_A*%
X75000000Y-172500000D02*
X73000000Y-172500000D01*
X75500000Y-172000000D02*
X75000000Y-172500000D01*
%TO.N,/TOF_XSHUT*%
X75000000Y-159500000D02*
X75000000Y-144880000D01*
X75000000Y-144880000D02*
X76280000Y-143600000D01*
%TO.N,/TOF_GPIO*%
X73500000Y-159500000D02*
X73740000Y-159260000D01*
X73740000Y-159260000D02*
X73740000Y-143600000D01*
%TO.N,/SWD_TRC*%
X83500000Y-156000000D02*
X81000000Y-156000000D01*
X85000000Y-154500000D02*
X83500000Y-156000000D01*
%TD*%
%TA.AperFunction,Conductor*%
%TO.N,GND*%
G36*
X108642539Y-138320185D02*
G01*
X108688294Y-138372989D01*
X108699500Y-138424500D01*
X108699500Y-188575500D01*
X108679815Y-188642539D01*
X108627011Y-188688294D01*
X108575500Y-188699500D01*
X59424500Y-188699500D01*
X59357461Y-188679815D01*
X59311706Y-188627011D01*
X59300500Y-188575500D01*
X59300500Y-183405013D01*
X69180000Y-183405013D01*
X69180000Y-184050000D01*
X70007291Y-184050000D01*
X69995548Y-184070339D01*
X69955000Y-184221667D01*
X69955000Y-184378333D01*
X69995548Y-184529661D01*
X70007291Y-184550000D01*
X69180001Y-184550000D01*
X69180001Y-185194986D01*
X69190494Y-185297697D01*
X69245641Y-185464119D01*
X69245643Y-185464124D01*
X69337684Y-185613345D01*
X69461654Y-185737315D01*
X69610875Y-185829356D01*
X69610880Y-185829358D01*
X69777302Y-185884505D01*
X69777309Y-185884506D01*
X69880019Y-185894999D01*
X70299999Y-185894999D01*
X70300000Y-185894998D01*
X70300000Y-184842709D01*
X70320339Y-184854452D01*
X70471667Y-184895000D01*
X70628333Y-184895000D01*
X70779661Y-184854452D01*
X70800000Y-184842709D01*
X70800000Y-185894999D01*
X71219972Y-185894999D01*
X71219986Y-185894998D01*
X71322697Y-185884505D01*
X71489119Y-185829358D01*
X71489124Y-185829356D01*
X71638345Y-185737315D01*
X71762315Y-185613345D01*
X71854354Y-185464127D01*
X71854745Y-185463289D01*
X71855167Y-185462809D01*
X71858149Y-185457975D01*
X71858974Y-185458484D01*
X71900910Y-185410843D01*
X71968100Y-185391681D01*
X72034984Y-185411887D01*
X72054816Y-185427996D01*
X72197179Y-185570359D01*
X72371701Y-185697157D01*
X72563911Y-185795092D01*
X72769074Y-185861754D01*
X72848973Y-185874408D01*
X72982134Y-185895500D01*
X72982139Y-185895500D01*
X73197866Y-185895500D01*
X73316230Y-185876752D01*
X73410926Y-185861754D01*
X73616089Y-185795092D01*
X73808299Y-185697157D01*
X73982821Y-185570359D01*
X74135359Y-185417821D01*
X74262157Y-185243299D01*
X74360092Y-185051089D01*
X74426754Y-184845926D01*
X74441752Y-184751230D01*
X74460500Y-184632866D01*
X74460500Y-183967133D01*
X74426754Y-183754077D01*
X74426754Y-183754074D01*
X74360092Y-183548911D01*
X74262157Y-183356701D01*
X74135359Y-183182179D01*
X73982821Y-183029641D01*
X73808299Y-182902843D01*
X73616089Y-182804908D01*
X73410926Y-182738246D01*
X73410924Y-182738245D01*
X73410922Y-182738245D01*
X73197866Y-182704500D01*
X73197861Y-182704500D01*
X72982139Y-182704500D01*
X72982134Y-182704500D01*
X72769077Y-182738245D01*
X72563908Y-182804909D01*
X72371700Y-182902843D01*
X72197180Y-183029640D01*
X72054816Y-183172004D01*
X71993493Y-183205488D01*
X71923801Y-183200504D01*
X71867868Y-183158632D01*
X71854748Y-183136716D01*
X71854356Y-183135876D01*
X71762315Y-182986654D01*
X71638345Y-182862684D01*
X71489124Y-182770643D01*
X71489119Y-182770641D01*
X71322697Y-182715494D01*
X71322690Y-182715493D01*
X71219986Y-182705000D01*
X70800000Y-182705000D01*
X70800000Y-183757290D01*
X70779661Y-183745548D01*
X70628333Y-183705000D01*
X70471667Y-183705000D01*
X70320339Y-183745548D01*
X70300000Y-183757290D01*
X70300000Y-182705000D01*
X69880028Y-182705000D01*
X69880012Y-182705001D01*
X69777302Y-182715494D01*
X69610880Y-182770641D01*
X69610875Y-182770643D01*
X69461654Y-182862684D01*
X69337684Y-182986654D01*
X69245643Y-183135875D01*
X69245641Y-183135880D01*
X69190494Y-183302302D01*
X69190493Y-183302309D01*
X69180000Y-183405013D01*
X59300500Y-183405013D01*
X59300500Y-179292133D01*
X76879500Y-179292133D01*
X76879500Y-179507866D01*
X76913245Y-179720922D01*
X76913246Y-179720926D01*
X76979908Y-179926089D01*
X77077843Y-180118299D01*
X77204641Y-180292821D01*
X77204643Y-180292823D01*
X77347003Y-180435183D01*
X77380488Y-180496506D01*
X77375504Y-180566198D01*
X77333632Y-180622131D01*
X77311728Y-180635245D01*
X77310885Y-180635637D01*
X77161654Y-180727684D01*
X77037684Y-180851654D01*
X76945643Y-181000875D01*
X76945641Y-181000880D01*
X76890494Y-181167302D01*
X76890493Y-181167309D01*
X76880000Y-181270013D01*
X76880000Y-181690000D01*
X77932291Y-181690000D01*
X77920548Y-181710339D01*
X77880000Y-181861667D01*
X77880000Y-182018333D01*
X77920548Y-182169661D01*
X77932291Y-182190000D01*
X76880001Y-182190000D01*
X76880001Y-182609986D01*
X76890494Y-182712697D01*
X76945641Y-182879119D01*
X76945643Y-182879124D01*
X77037684Y-183028345D01*
X77161654Y-183152315D01*
X77310875Y-183244356D01*
X77310880Y-183244358D01*
X77477302Y-183299505D01*
X77477309Y-183299506D01*
X77580019Y-183309999D01*
X78224999Y-183309999D01*
X78225000Y-183309998D01*
X78225000Y-182482709D01*
X78245339Y-182494452D01*
X78396667Y-182535000D01*
X78553333Y-182535000D01*
X78704661Y-182494452D01*
X78725000Y-182482709D01*
X78725000Y-183309999D01*
X79369972Y-183309999D01*
X79369986Y-183309998D01*
X79472697Y-183299505D01*
X79639119Y-183244358D01*
X79639124Y-183244356D01*
X79788345Y-183152315D01*
X79912315Y-183028345D01*
X80004356Y-182879124D01*
X80004358Y-182879119D01*
X80059505Y-182712697D01*
X80059506Y-182712690D01*
X80069999Y-182609986D01*
X80070000Y-182609973D01*
X80070000Y-182190000D01*
X79017709Y-182190000D01*
X79029452Y-182169661D01*
X79070000Y-182018333D01*
X79070000Y-181861667D01*
X79029452Y-181710339D01*
X79017709Y-181690000D01*
X80069999Y-181690000D01*
X80069999Y-181270028D01*
X80069998Y-181270013D01*
X80059505Y-181167302D01*
X80004358Y-181000880D01*
X80004356Y-181000875D01*
X79912315Y-180851654D01*
X79788345Y-180727684D01*
X79639118Y-180635640D01*
X79638277Y-180635248D01*
X79637796Y-180634824D01*
X79632975Y-180631851D01*
X79633483Y-180631027D01*
X79585836Y-180589078D01*
X79566681Y-180521885D01*
X79586894Y-180455003D01*
X79602987Y-180435192D01*
X79745359Y-180292821D01*
X79872157Y-180118299D01*
X79970092Y-179926089D01*
X80036754Y-179720926D01*
X80051752Y-179626230D01*
X80070500Y-179507866D01*
X80070500Y-179292133D01*
X80036754Y-179079077D01*
X80036754Y-179079074D01*
X79970092Y-178873911D01*
X79872157Y-178681701D01*
X79745359Y-178507179D01*
X79592821Y-178354641D01*
X79418299Y-178227843D01*
X79226089Y-178129908D01*
X79020926Y-178063246D01*
X79020924Y-178063245D01*
X79020922Y-178063245D01*
X78807866Y-178029500D01*
X78807861Y-178029500D01*
X78142139Y-178029500D01*
X78142134Y-178029500D01*
X77929077Y-178063245D01*
X77723908Y-178129909D01*
X77531700Y-178227843D01*
X77458995Y-178280667D01*
X77357179Y-178354641D01*
X77357177Y-178354643D01*
X77357176Y-178354643D01*
X77204643Y-178507176D01*
X77204643Y-178507177D01*
X77204641Y-178507179D01*
X77150186Y-178582129D01*
X77077843Y-178681700D01*
X76979909Y-178873908D01*
X76913245Y-179079077D01*
X76879500Y-179292133D01*
X59300500Y-179292133D01*
X59300500Y-176454983D01*
X61134500Y-176454983D01*
X61134500Y-178245001D01*
X61134501Y-178245018D01*
X61145000Y-178347796D01*
X61145001Y-178347799D01*
X61182584Y-178461216D01*
X61200186Y-178514334D01*
X61292288Y-178663656D01*
X61416344Y-178787712D01*
X61565666Y-178879814D01*
X61732203Y-178934999D01*
X61834991Y-178945500D01*
X63175008Y-178945499D01*
X63277797Y-178934999D01*
X63444334Y-178879814D01*
X63593656Y-178787712D01*
X63717712Y-178663656D01*
X63809814Y-178514334D01*
X63809817Y-178514322D01*
X63810129Y-178513657D01*
X63810469Y-178513269D01*
X63813605Y-178508187D01*
X63814473Y-178508722D01*
X63856299Y-178461216D01*
X63923491Y-178442060D01*
X63990373Y-178462272D01*
X64010195Y-178478375D01*
X64152179Y-178620359D01*
X64326701Y-178747157D01*
X64518911Y-178845092D01*
X64724074Y-178911754D01*
X64791796Y-178922480D01*
X64937134Y-178945500D01*
X64937139Y-178945500D01*
X65152866Y-178945500D01*
X65271230Y-178926752D01*
X65365926Y-178911754D01*
X65571089Y-178845092D01*
X65763299Y-178747157D01*
X65937821Y-178620359D01*
X66090359Y-178467821D01*
X66214682Y-178296704D01*
X66270012Y-178254040D01*
X66339626Y-178248061D01*
X66401420Y-178280667D01*
X66415315Y-178296702D01*
X66539641Y-178467821D01*
X66692179Y-178620359D01*
X66866701Y-178747157D01*
X67058911Y-178845092D01*
X67264074Y-178911754D01*
X67331796Y-178922480D01*
X67477134Y-178945500D01*
X67477139Y-178945500D01*
X67692866Y-178945500D01*
X67811230Y-178926752D01*
X67905926Y-178911754D01*
X68111089Y-178845092D01*
X68303299Y-178747157D01*
X68477821Y-178620359D01*
X68630359Y-178467821D01*
X68754991Y-178296279D01*
X68810321Y-178253614D01*
X68879934Y-178247635D01*
X68941729Y-178280241D01*
X68955627Y-178296279D01*
X69080025Y-178467496D01*
X69080025Y-178467497D01*
X69232502Y-178619974D01*
X69406963Y-178746728D01*
X69599098Y-178844627D01*
X69804190Y-178911266D01*
X69875000Y-178922481D01*
X69875000Y-177892709D01*
X69895339Y-177904452D01*
X70046667Y-177945000D01*
X70203333Y-177945000D01*
X70354661Y-177904452D01*
X70375000Y-177892709D01*
X70375000Y-178922480D01*
X70445809Y-178911266D01*
X70650901Y-178844627D01*
X70843036Y-178746728D01*
X71017496Y-178619974D01*
X71017497Y-178619974D01*
X71169974Y-178467497D01*
X71169974Y-178467496D01*
X71296728Y-178293036D01*
X71394627Y-178100901D01*
X71461265Y-177895809D01*
X71495000Y-177682820D01*
X71495000Y-177600000D01*
X70667709Y-177600000D01*
X70679452Y-177579661D01*
X70720000Y-177428333D01*
X70720000Y-177271667D01*
X70679452Y-177120339D01*
X70667709Y-177100000D01*
X71495000Y-177100000D01*
X71495000Y-177017179D01*
X71461265Y-176804190D01*
X71394627Y-176599098D01*
X71296728Y-176406963D01*
X71169974Y-176232503D01*
X71169974Y-176232502D01*
X71017497Y-176080025D01*
X70843036Y-175953271D01*
X70650899Y-175855372D01*
X70445805Y-175788733D01*
X70375000Y-175777518D01*
X70375000Y-176807290D01*
X70354661Y-176795548D01*
X70203333Y-176755000D01*
X70046667Y-176755000D01*
X69895339Y-176795548D01*
X69875000Y-176807290D01*
X69875000Y-175777518D01*
X69874999Y-175777518D01*
X69804194Y-175788733D01*
X69599100Y-175855372D01*
X69406963Y-175953271D01*
X69232503Y-176080025D01*
X69232502Y-176080025D01*
X69080024Y-176232503D01*
X68955627Y-176403720D01*
X68900296Y-176446385D01*
X68830683Y-176452364D01*
X68768888Y-176419758D01*
X68754991Y-176403720D01*
X68630359Y-176232179D01*
X68477821Y-176079641D01*
X68303299Y-175952843D01*
X68111089Y-175854908D01*
X67905926Y-175788246D01*
X67905924Y-175788245D01*
X67905922Y-175788245D01*
X67692866Y-175754500D01*
X67692861Y-175754500D01*
X67477139Y-175754500D01*
X67477134Y-175754500D01*
X67264077Y-175788245D01*
X67058908Y-175854909D01*
X66866700Y-175952843D01*
X66767129Y-176025186D01*
X66692179Y-176079641D01*
X66692177Y-176079643D01*
X66692176Y-176079643D01*
X66539643Y-176232176D01*
X66539643Y-176232177D01*
X66539641Y-176232179D01*
X66462729Y-176338038D01*
X66415318Y-176403294D01*
X66359988Y-176445959D01*
X66290374Y-176451938D01*
X66228579Y-176419332D01*
X66214682Y-176403294D01*
X66192435Y-176372674D01*
X66090359Y-176232179D01*
X65937821Y-176079641D01*
X65763299Y-175952843D01*
X65571089Y-175854908D01*
X65365926Y-175788246D01*
X65365924Y-175788245D01*
X65365922Y-175788245D01*
X65152866Y-175754500D01*
X65152861Y-175754500D01*
X64937139Y-175754500D01*
X64937134Y-175754500D01*
X64724077Y-175788245D01*
X64518908Y-175854909D01*
X64326700Y-175952843D01*
X64152180Y-176079640D01*
X64010195Y-176221625D01*
X63948872Y-176255109D01*
X63879180Y-176250125D01*
X63823247Y-176208253D01*
X63810132Y-176186348D01*
X63809815Y-176185669D01*
X63809814Y-176185668D01*
X63809814Y-176185666D01*
X63717712Y-176036344D01*
X63593656Y-175912288D01*
X63444334Y-175820186D01*
X63277797Y-175765001D01*
X63277795Y-175765000D01*
X63175010Y-175754500D01*
X61834998Y-175754500D01*
X61834981Y-175754501D01*
X61732203Y-175765000D01*
X61732200Y-175765001D01*
X61565668Y-175820185D01*
X61565663Y-175820187D01*
X61416342Y-175912289D01*
X61292289Y-176036342D01*
X61200187Y-176185663D01*
X61200186Y-176185666D01*
X61145001Y-176352203D01*
X61145001Y-176352204D01*
X61145000Y-176352204D01*
X61134500Y-176454983D01*
X59300500Y-176454983D01*
X59300500Y-172416228D01*
X72149500Y-172416228D01*
X72149500Y-172583771D01*
X72182182Y-172748074D01*
X72182184Y-172748082D01*
X72246295Y-172902860D01*
X72339373Y-173042162D01*
X72457837Y-173160626D01*
X72526792Y-173206700D01*
X72597137Y-173253703D01*
X72597138Y-173253703D01*
X72597139Y-173253704D01*
X72632201Y-173268227D01*
X72751918Y-173317816D01*
X72916228Y-173350499D01*
X72916232Y-173350500D01*
X72916233Y-173350500D01*
X73083768Y-173350500D01*
X73083769Y-173350499D01*
X73248082Y-173317816D01*
X73402863Y-173253703D01*
X73542162Y-173160626D01*
X73546872Y-173156761D01*
X73548426Y-173158655D01*
X73600293Y-173130334D01*
X73626651Y-173127500D01*
X75056435Y-173127500D01*
X75123474Y-173147185D01*
X75169229Y-173199989D01*
X75178051Y-173227306D01*
X75182184Y-173248081D01*
X75182184Y-173248082D01*
X75246295Y-173402860D01*
X75339373Y-173542162D01*
X75457837Y-173660626D01*
X75550494Y-173722537D01*
X75597137Y-173753703D01*
X75751918Y-173817816D01*
X75916228Y-173850499D01*
X75916232Y-173850500D01*
X75916233Y-173850500D01*
X76083768Y-173850500D01*
X76083768Y-173850499D01*
X76235177Y-173820383D01*
X76259368Y-173818000D01*
X77934811Y-173818000D01*
X78001850Y-173837685D01*
X78022492Y-173854319D01*
X83428428Y-179260255D01*
X83461913Y-179321578D01*
X83456929Y-179391270D01*
X83415057Y-179447203D01*
X83379066Y-179465867D01*
X83258906Y-179504909D01*
X83066700Y-179602843D01*
X82967129Y-179675186D01*
X82892179Y-179729641D01*
X82892177Y-179729643D01*
X82892176Y-179729643D01*
X82739643Y-179882176D01*
X82739643Y-179882177D01*
X82739641Y-179882179D01*
X82707737Y-179926091D01*
X82612843Y-180056700D01*
X82514909Y-180248908D01*
X82448245Y-180454077D01*
X82414500Y-180667133D01*
X82414500Y-181332866D01*
X82448245Y-181545922D01*
X82448246Y-181545926D01*
X82514908Y-181751089D01*
X82612843Y-181943299D01*
X82739641Y-182117821D01*
X82892179Y-182270359D01*
X83066701Y-182397157D01*
X83258911Y-182495092D01*
X83464074Y-182561754D01*
X83543973Y-182574408D01*
X83677134Y-182595500D01*
X83677139Y-182595500D01*
X83892866Y-182595500D01*
X84011230Y-182576752D01*
X84105926Y-182561754D01*
X84311089Y-182495092D01*
X84503299Y-182397157D01*
X84677821Y-182270359D01*
X84819807Y-182128372D01*
X84881126Y-182094890D01*
X84950818Y-182099874D01*
X85006752Y-182141745D01*
X85019864Y-182163645D01*
X85020181Y-182164326D01*
X85020186Y-182164334D01*
X85112288Y-182313656D01*
X85236344Y-182437712D01*
X85385666Y-182529814D01*
X85552203Y-182584999D01*
X85654991Y-182595500D01*
X86995008Y-182595499D01*
X87097797Y-182584999D01*
X87264334Y-182529814D01*
X87413656Y-182437712D01*
X87537712Y-182313656D01*
X87629814Y-182164334D01*
X87684999Y-181997797D01*
X87695500Y-181895009D01*
X87695499Y-180104992D01*
X87684999Y-180002203D01*
X87629814Y-179835666D01*
X87537712Y-179686344D01*
X87413656Y-179562288D01*
X87264334Y-179470186D01*
X87097797Y-179415001D01*
X87097795Y-179415000D01*
X86995016Y-179404500D01*
X86995009Y-179404500D01*
X85937689Y-179404500D01*
X85870650Y-179384815D01*
X85850008Y-179368181D01*
X80918147Y-174436319D01*
X79736841Y-173255013D01*
X85740000Y-173255013D01*
X85740000Y-173900000D01*
X86567291Y-173900000D01*
X86555548Y-173920339D01*
X86515000Y-174071667D01*
X86515000Y-174228333D01*
X86555548Y-174379661D01*
X86567291Y-174400000D01*
X85740001Y-174400000D01*
X85740001Y-175044986D01*
X85750494Y-175147697D01*
X85805641Y-175314119D01*
X85805643Y-175314124D01*
X85897684Y-175463345D01*
X86021654Y-175587315D01*
X86170875Y-175679356D01*
X86170880Y-175679358D01*
X86337302Y-175734505D01*
X86337309Y-175734506D01*
X86440019Y-175744999D01*
X86859999Y-175744999D01*
X86860000Y-175744998D01*
X86860000Y-174692709D01*
X86880339Y-174704452D01*
X87031667Y-174745000D01*
X87188333Y-174745000D01*
X87339661Y-174704452D01*
X87360000Y-174692709D01*
X87360000Y-175744999D01*
X87779972Y-175744999D01*
X87779986Y-175744998D01*
X87882697Y-175734505D01*
X88049119Y-175679358D01*
X88049124Y-175679356D01*
X88198345Y-175587315D01*
X88322315Y-175463345D01*
X88414354Y-175314127D01*
X88414745Y-175313289D01*
X88415167Y-175312809D01*
X88418149Y-175307975D01*
X88418974Y-175308484D01*
X88460910Y-175260843D01*
X88528100Y-175241681D01*
X88594984Y-175261887D01*
X88614816Y-175277996D01*
X88757179Y-175420359D01*
X88931701Y-175547157D01*
X89123911Y-175645092D01*
X89329074Y-175711754D01*
X89408973Y-175724408D01*
X89542134Y-175745500D01*
X89542139Y-175745500D01*
X89757866Y-175745500D01*
X89876230Y-175726752D01*
X89970926Y-175711754D01*
X90176089Y-175645092D01*
X90368299Y-175547157D01*
X90542821Y-175420359D01*
X90695359Y-175267821D01*
X90822157Y-175093299D01*
X90920092Y-174901089D01*
X90986754Y-174695926D01*
X91001752Y-174601230D01*
X91020500Y-174482866D01*
X91020500Y-173817133D01*
X90986754Y-173604077D01*
X90986754Y-173604074D01*
X90920092Y-173398911D01*
X90822157Y-173206701D01*
X90695359Y-173032179D01*
X90542821Y-172879641D01*
X90368299Y-172752843D01*
X90176089Y-172654908D01*
X89970926Y-172588246D01*
X89970924Y-172588245D01*
X89970922Y-172588245D01*
X89757866Y-172554500D01*
X89757861Y-172554500D01*
X89542139Y-172554500D01*
X89542134Y-172554500D01*
X89329077Y-172588245D01*
X89123908Y-172654909D01*
X88931700Y-172752843D01*
X88757180Y-172879640D01*
X88614816Y-173022004D01*
X88553493Y-173055488D01*
X88483801Y-173050504D01*
X88427868Y-173008632D01*
X88414748Y-172986716D01*
X88414356Y-172985876D01*
X88322315Y-172836654D01*
X88198345Y-172712684D01*
X88049124Y-172620643D01*
X88049119Y-172620641D01*
X87882697Y-172565494D01*
X87882690Y-172565493D01*
X87779986Y-172555000D01*
X87360000Y-172555000D01*
X87360000Y-173607290D01*
X87339661Y-173595548D01*
X87188333Y-173555000D01*
X87031667Y-173555000D01*
X86880339Y-173595548D01*
X86860000Y-173607290D01*
X86860000Y-172555000D01*
X86440028Y-172555000D01*
X86440012Y-172555001D01*
X86337302Y-172565494D01*
X86170880Y-172620641D01*
X86170875Y-172620643D01*
X86021654Y-172712684D01*
X85897684Y-172836654D01*
X85805643Y-172985875D01*
X85805641Y-172985880D01*
X85750494Y-173152302D01*
X85750493Y-173152309D01*
X85740000Y-173255013D01*
X79736841Y-173255013D01*
X78846448Y-172364620D01*
X78846444Y-172364617D01*
X78712474Y-172275100D01*
X78712461Y-172275093D01*
X78563606Y-172213436D01*
X78563594Y-172213433D01*
X78405570Y-172182000D01*
X78405566Y-172182000D01*
X76474500Y-172182000D01*
X76407461Y-172162315D01*
X76361706Y-172109511D01*
X76350500Y-172058000D01*
X76350500Y-171916232D01*
X76350499Y-171916228D01*
X76329541Y-171810860D01*
X76317817Y-171751923D01*
X76317816Y-171751922D01*
X76317816Y-171751918D01*
X76253703Y-171597137D01*
X76209180Y-171530504D01*
X76160626Y-171457837D01*
X76042162Y-171339373D01*
X76013168Y-171320000D01*
X98115138Y-171320000D01*
X98918012Y-171320000D01*
X98900795Y-171329940D01*
X98844940Y-171385795D01*
X98805444Y-171454204D01*
X98785000Y-171530504D01*
X98785000Y-171609496D01*
X98805444Y-171685796D01*
X98844940Y-171754205D01*
X98900795Y-171810060D01*
X98918012Y-171820000D01*
X98115138Y-171820000D01*
X98123430Y-171861690D01*
X98123430Y-171861692D01*
X98198807Y-172043671D01*
X98198814Y-172043684D01*
X98308248Y-172207462D01*
X98308251Y-172207466D01*
X98447533Y-172346748D01*
X98447537Y-172346751D01*
X98611315Y-172456185D01*
X98611328Y-172456192D01*
X98793306Y-172531569D01*
X98793318Y-172531572D01*
X98986504Y-172569999D01*
X98986508Y-172570000D01*
X99385000Y-172570000D01*
X99385000Y-171870000D01*
X99885000Y-171870000D01*
X99885000Y-172570000D01*
X100283492Y-172570000D01*
X100283495Y-172569999D01*
X100476681Y-172531572D01*
X100476693Y-172531569D01*
X100658671Y-172456192D01*
X100658684Y-172456185D01*
X100822462Y-172346751D01*
X100822466Y-172346748D01*
X100961748Y-172207466D01*
X100961751Y-172207462D01*
X101071185Y-172043684D01*
X101071192Y-172043671D01*
X101146569Y-171861692D01*
X101146569Y-171861690D01*
X101154862Y-171820000D01*
X100351988Y-171820000D01*
X100369205Y-171810060D01*
X100425060Y-171754205D01*
X100464556Y-171685796D01*
X100485000Y-171609496D01*
X100485000Y-171530504D01*
X100464556Y-171454204D01*
X100425060Y-171385795D01*
X100369205Y-171329940D01*
X100351988Y-171320000D01*
X101154862Y-171320000D01*
X102445138Y-171320000D01*
X103248012Y-171320000D01*
X103230795Y-171329940D01*
X103174940Y-171385795D01*
X103135444Y-171454204D01*
X103115000Y-171530504D01*
X103115000Y-171609496D01*
X103135444Y-171685796D01*
X103174940Y-171754205D01*
X103230795Y-171810060D01*
X103248012Y-171820000D01*
X102445138Y-171820000D01*
X102453430Y-171861690D01*
X102453430Y-171861692D01*
X102528807Y-172043671D01*
X102528814Y-172043684D01*
X102638248Y-172207462D01*
X102638251Y-172207466D01*
X102777533Y-172346748D01*
X102777537Y-172346751D01*
X102941315Y-172456185D01*
X102941328Y-172456192D01*
X103123306Y-172531569D01*
X103123318Y-172531572D01*
X103316504Y-172569999D01*
X103316508Y-172570000D01*
X103565000Y-172570000D01*
X103565000Y-171870000D01*
X104065000Y-171870000D01*
X104065000Y-172570000D01*
X104313492Y-172570000D01*
X104313495Y-172569999D01*
X104506681Y-172531572D01*
X104506693Y-172531569D01*
X104688671Y-172456192D01*
X104688684Y-172456185D01*
X104852462Y-172346751D01*
X104852466Y-172346748D01*
X104991748Y-172207466D01*
X104991751Y-172207462D01*
X105101185Y-172043684D01*
X105101192Y-172043671D01*
X105176569Y-171861692D01*
X105176569Y-171861690D01*
X105184862Y-171820000D01*
X104381988Y-171820000D01*
X104399205Y-171810060D01*
X104455060Y-171754205D01*
X104494556Y-171685796D01*
X104515000Y-171609496D01*
X104515000Y-171530504D01*
X104494556Y-171454204D01*
X104455060Y-171385795D01*
X104399205Y-171329940D01*
X104381988Y-171320000D01*
X105184862Y-171320000D01*
X105176569Y-171278309D01*
X105176569Y-171278307D01*
X105101192Y-171096328D01*
X105101185Y-171096315D01*
X104991751Y-170932537D01*
X104991748Y-170932533D01*
X104852466Y-170793251D01*
X104852462Y-170793248D01*
X104688684Y-170683814D01*
X104688671Y-170683807D01*
X104506693Y-170608430D01*
X104506681Y-170608427D01*
X104313495Y-170570000D01*
X104065000Y-170570000D01*
X104065000Y-171270000D01*
X103565000Y-171270000D01*
X103565000Y-170570000D01*
X103316504Y-170570000D01*
X103123318Y-170608427D01*
X103123306Y-170608430D01*
X102941328Y-170683807D01*
X102941315Y-170683814D01*
X102777537Y-170793248D01*
X102777533Y-170793251D01*
X102638251Y-170932533D01*
X102638248Y-170932537D01*
X102528814Y-171096315D01*
X102528807Y-171096328D01*
X102453430Y-171278307D01*
X102453430Y-171278309D01*
X102445138Y-171320000D01*
X101154862Y-171320000D01*
X101146569Y-171278309D01*
X101146569Y-171278307D01*
X101071192Y-171096328D01*
X101071185Y-171096315D01*
X100961751Y-170932537D01*
X100961748Y-170932533D01*
X100822466Y-170793251D01*
X100822462Y-170793248D01*
X100668616Y-170690451D01*
X100623811Y-170636839D01*
X100615104Y-170567514D01*
X100634403Y-170518460D01*
X100689311Y-170436286D01*
X100736463Y-170322452D01*
X100760500Y-170201606D01*
X100760500Y-170078394D01*
X100736463Y-169957548D01*
X100689311Y-169843714D01*
X100689310Y-169843713D01*
X100689307Y-169843707D01*
X100620858Y-169741267D01*
X100620855Y-169741263D01*
X100533736Y-169654144D01*
X100533732Y-169654141D01*
X100431292Y-169585692D01*
X100431283Y-169585687D01*
X100317454Y-169538538D01*
X100317455Y-169538538D01*
X100317452Y-169538537D01*
X100317448Y-169538536D01*
X100317444Y-169538535D01*
X100196610Y-169514500D01*
X100196606Y-169514500D01*
X100073394Y-169514500D01*
X100073389Y-169514500D01*
X99952555Y-169538535D01*
X99952545Y-169538538D01*
X99838716Y-169585687D01*
X99838707Y-169585692D01*
X99736267Y-169654141D01*
X99736263Y-169654144D01*
X99649144Y-169741263D01*
X99649141Y-169741267D01*
X99580692Y-169843707D01*
X99580687Y-169843716D01*
X99533538Y-169957545D01*
X99533535Y-169957555D01*
X99509500Y-170078389D01*
X99509500Y-170201610D01*
X99533535Y-170322444D01*
X99533538Y-170322454D01*
X99565057Y-170398547D01*
X99572526Y-170468016D01*
X99541251Y-170530496D01*
X99481162Y-170566148D01*
X99450496Y-170570000D01*
X98986504Y-170570000D01*
X98793318Y-170608427D01*
X98793306Y-170608430D01*
X98611328Y-170683807D01*
X98611315Y-170683814D01*
X98447537Y-170793248D01*
X98447533Y-170793251D01*
X98308251Y-170932533D01*
X98308248Y-170932537D01*
X98198814Y-171096315D01*
X98198807Y-171096328D01*
X98123430Y-171278307D01*
X98123430Y-171278309D01*
X98115138Y-171320000D01*
X76013168Y-171320000D01*
X75902860Y-171246295D01*
X75748082Y-171182184D01*
X75748074Y-171182182D01*
X75583771Y-171149500D01*
X75583767Y-171149500D01*
X75416233Y-171149500D01*
X75416228Y-171149500D01*
X75251925Y-171182182D01*
X75251917Y-171182184D01*
X75097139Y-171246295D01*
X74957837Y-171339373D01*
X74839373Y-171457837D01*
X74746295Y-171597139D01*
X74684513Y-171746295D01*
X74682184Y-171751918D01*
X74678052Y-171772690D01*
X74645669Y-171834601D01*
X74584954Y-171869176D01*
X74556435Y-171872500D01*
X73626651Y-171872500D01*
X73559612Y-171852815D01*
X73547213Y-171842823D01*
X73546872Y-171843239D01*
X73542162Y-171839373D01*
X73402860Y-171746295D01*
X73248082Y-171682184D01*
X73248074Y-171682182D01*
X73083771Y-171649500D01*
X73083767Y-171649500D01*
X72916233Y-171649500D01*
X72916228Y-171649500D01*
X72751925Y-171682182D01*
X72751917Y-171682184D01*
X72597139Y-171746295D01*
X72457837Y-171839373D01*
X72339373Y-171957837D01*
X72246295Y-172097139D01*
X72182184Y-172251917D01*
X72182182Y-172251925D01*
X72149500Y-172416228D01*
X59300500Y-172416228D01*
X59300500Y-169416233D01*
X91649500Y-169416233D01*
X91649500Y-169421921D01*
X91649500Y-169583771D01*
X91682182Y-169748074D01*
X91682184Y-169748082D01*
X91746295Y-169902860D01*
X91839373Y-170042162D01*
X91957837Y-170160626D01*
X92050494Y-170222537D01*
X92097137Y-170253703D01*
X92251918Y-170317816D01*
X92416228Y-170350499D01*
X92416232Y-170350500D01*
X92416233Y-170350500D01*
X92583768Y-170350500D01*
X92583769Y-170350499D01*
X92748082Y-170317816D01*
X92902863Y-170253703D01*
X93042162Y-170160626D01*
X93160626Y-170042162D01*
X93253703Y-169902863D01*
X93317816Y-169748082D01*
X93350500Y-169583767D01*
X93350500Y-169416233D01*
X93320383Y-169264823D01*
X93318000Y-169240632D01*
X93318000Y-163890188D01*
X93337685Y-163823149D01*
X93354314Y-163802512D01*
X94476825Y-162680000D01*
X98115138Y-162680000D01*
X98918012Y-162680000D01*
X98900795Y-162689940D01*
X98844940Y-162745795D01*
X98805444Y-162814204D01*
X98785000Y-162890504D01*
X98785000Y-162969496D01*
X98805444Y-163045796D01*
X98844940Y-163114205D01*
X98900795Y-163170060D01*
X98918012Y-163180000D01*
X98115138Y-163180000D01*
X98123430Y-163221690D01*
X98123430Y-163221692D01*
X98198807Y-163403671D01*
X98198814Y-163403684D01*
X98308248Y-163567462D01*
X98308251Y-163567466D01*
X98447533Y-163706748D01*
X98447537Y-163706751D01*
X98611315Y-163816185D01*
X98611328Y-163816192D01*
X98793306Y-163891569D01*
X98793318Y-163891572D01*
X98986504Y-163929999D01*
X98986508Y-163930000D01*
X99450496Y-163930000D01*
X99517535Y-163949685D01*
X99563290Y-164002489D01*
X99573234Y-164071647D01*
X99565057Y-164101453D01*
X99533538Y-164177545D01*
X99533535Y-164177555D01*
X99509500Y-164298389D01*
X99509500Y-164421610D01*
X99533535Y-164542444D01*
X99533538Y-164542454D01*
X99580687Y-164656283D01*
X99580692Y-164656292D01*
X99649141Y-164758732D01*
X99649144Y-164758736D01*
X99736263Y-164845855D01*
X99736267Y-164845858D01*
X99838707Y-164914307D01*
X99838713Y-164914310D01*
X99838714Y-164914311D01*
X99952548Y-164961463D01*
X100073389Y-164985499D01*
X100073393Y-164985500D01*
X100073394Y-164985500D01*
X100196607Y-164985500D01*
X100196608Y-164985499D01*
X100317452Y-164961463D01*
X100431286Y-164914311D01*
X100533733Y-164845858D01*
X100620858Y-164758733D01*
X100689311Y-164656286D01*
X100736463Y-164542452D01*
X100760500Y-164421606D01*
X100760500Y-164298394D01*
X100736463Y-164177548D01*
X100689311Y-164063714D01*
X100689310Y-164063713D01*
X100689307Y-164063707D01*
X100634405Y-163981541D01*
X100613527Y-163914864D01*
X100632011Y-163847484D01*
X100668617Y-163809548D01*
X100822458Y-163706754D01*
X100822466Y-163706748D01*
X100961748Y-163567466D01*
X100961751Y-163567462D01*
X101071185Y-163403684D01*
X101071192Y-163403671D01*
X101146569Y-163221692D01*
X101146569Y-163221690D01*
X101154862Y-163180000D01*
X100351988Y-163180000D01*
X100369205Y-163170060D01*
X100425060Y-163114205D01*
X100464556Y-163045796D01*
X100485000Y-162969496D01*
X100485000Y-162890504D01*
X100464556Y-162814204D01*
X100425060Y-162745795D01*
X100369205Y-162689940D01*
X100351988Y-162680000D01*
X101154862Y-162680000D01*
X102445138Y-162680000D01*
X103248012Y-162680000D01*
X103230795Y-162689940D01*
X103174940Y-162745795D01*
X103135444Y-162814204D01*
X103115000Y-162890504D01*
X103115000Y-162969496D01*
X103135444Y-163045796D01*
X103174940Y-163114205D01*
X103230795Y-163170060D01*
X103248012Y-163180000D01*
X102445138Y-163180000D01*
X102453430Y-163221690D01*
X102453430Y-163221692D01*
X102528807Y-163403671D01*
X102528814Y-163403684D01*
X102638248Y-163567462D01*
X102638251Y-163567466D01*
X102777533Y-163706748D01*
X102777537Y-163706751D01*
X102941315Y-163816185D01*
X102941328Y-163816192D01*
X103123306Y-163891569D01*
X103123318Y-163891572D01*
X103316504Y-163929999D01*
X103316508Y-163930000D01*
X103565000Y-163930000D01*
X103565000Y-163230000D01*
X104065000Y-163230000D01*
X104065000Y-163930000D01*
X104313492Y-163930000D01*
X104313495Y-163929999D01*
X104506681Y-163891572D01*
X104506693Y-163891569D01*
X104688671Y-163816192D01*
X104688684Y-163816185D01*
X104852462Y-163706751D01*
X104852466Y-163706748D01*
X104991748Y-163567466D01*
X104991751Y-163567462D01*
X105101185Y-163403684D01*
X105101192Y-163403671D01*
X105176569Y-163221692D01*
X105176569Y-163221690D01*
X105184862Y-163180000D01*
X104381988Y-163180000D01*
X104399205Y-163170060D01*
X104455060Y-163114205D01*
X104494556Y-163045796D01*
X104515000Y-162969496D01*
X104515000Y-162890504D01*
X104494556Y-162814204D01*
X104455060Y-162745795D01*
X104399205Y-162689940D01*
X104381988Y-162680000D01*
X105184862Y-162680000D01*
X105176569Y-162638309D01*
X105176569Y-162638307D01*
X105101192Y-162456328D01*
X105101185Y-162456315D01*
X104991751Y-162292537D01*
X104991748Y-162292533D01*
X104852466Y-162153251D01*
X104852462Y-162153248D01*
X104688684Y-162043814D01*
X104688671Y-162043807D01*
X104506693Y-161968430D01*
X104506681Y-161968427D01*
X104313495Y-161930000D01*
X104065000Y-161930000D01*
X104065000Y-162630000D01*
X103565000Y-162630000D01*
X103565000Y-161930000D01*
X103316504Y-161930000D01*
X103123318Y-161968427D01*
X103123306Y-161968430D01*
X102941328Y-162043807D01*
X102941315Y-162043814D01*
X102777537Y-162153248D01*
X102777533Y-162153251D01*
X102638251Y-162292533D01*
X102638248Y-162292537D01*
X102528814Y-162456315D01*
X102528807Y-162456328D01*
X102453430Y-162638307D01*
X102453430Y-162638309D01*
X102445138Y-162680000D01*
X101154862Y-162680000D01*
X101146569Y-162638309D01*
X101146569Y-162638307D01*
X101071192Y-162456328D01*
X101071185Y-162456315D01*
X100961751Y-162292537D01*
X100961748Y-162292533D01*
X100822466Y-162153251D01*
X100822462Y-162153248D01*
X100658684Y-162043814D01*
X100658671Y-162043807D01*
X100476693Y-161968430D01*
X100476681Y-161968427D01*
X100283495Y-161930000D01*
X99885000Y-161930000D01*
X99885000Y-162630000D01*
X99385000Y-162630000D01*
X99385000Y-161930000D01*
X98986504Y-161930000D01*
X98793318Y-161968427D01*
X98793306Y-161968430D01*
X98611328Y-162043807D01*
X98611315Y-162043814D01*
X98447537Y-162153248D01*
X98447533Y-162153251D01*
X98308251Y-162292533D01*
X98308248Y-162292537D01*
X98198814Y-162456315D01*
X98198807Y-162456328D01*
X98123430Y-162638307D01*
X98123430Y-162638309D01*
X98115138Y-162680000D01*
X94476825Y-162680000D01*
X95395018Y-161761807D01*
X95413793Y-161746399D01*
X95542162Y-161660626D01*
X95660626Y-161542162D01*
X95753703Y-161402863D01*
X95817816Y-161248082D01*
X95850500Y-161083767D01*
X95850500Y-160916233D01*
X95817816Y-160751918D01*
X95753703Y-160597137D01*
X95722537Y-160550494D01*
X95660626Y-160457837D01*
X95542162Y-160339373D01*
X95402860Y-160246295D01*
X95248082Y-160182184D01*
X95248074Y-160182182D01*
X95083771Y-160149500D01*
X95083767Y-160149500D01*
X94916233Y-160149500D01*
X94916228Y-160149500D01*
X94751925Y-160182182D01*
X94751917Y-160182184D01*
X94597139Y-160246295D01*
X94457837Y-160339373D01*
X94457834Y-160339376D01*
X94339380Y-160457831D01*
X94339374Y-160457838D01*
X94253605Y-160586197D01*
X94238185Y-160604986D01*
X91864620Y-162978551D01*
X91864617Y-162978555D01*
X91775100Y-163112525D01*
X91775093Y-163112538D01*
X91713436Y-163261393D01*
X91713433Y-163261405D01*
X91682000Y-163419429D01*
X91682000Y-169240632D01*
X91679855Y-169262398D01*
X91679782Y-169263981D01*
X91679714Y-169264333D01*
X91649500Y-169416233D01*
X59300500Y-169416233D01*
X59300500Y-145304983D01*
X65789500Y-145304983D01*
X65789500Y-147095001D01*
X65789501Y-147095018D01*
X65800000Y-147197796D01*
X65800001Y-147197799D01*
X65837584Y-147311216D01*
X65855186Y-147364334D01*
X65947288Y-147513656D01*
X66071344Y-147637712D01*
X66220666Y-147729814D01*
X66387203Y-147784999D01*
X66489991Y-147795500D01*
X67830008Y-147795499D01*
X67932797Y-147784999D01*
X68099334Y-147729814D01*
X68248656Y-147637712D01*
X68372712Y-147513656D01*
X68464814Y-147364334D01*
X68464817Y-147364322D01*
X68465129Y-147363657D01*
X68465469Y-147363269D01*
X68468605Y-147358187D01*
X68469473Y-147358722D01*
X68511299Y-147311216D01*
X68578491Y-147292060D01*
X68645373Y-147312272D01*
X68665195Y-147328375D01*
X68807179Y-147470359D01*
X68981701Y-147597157D01*
X69173911Y-147695092D01*
X69379074Y-147761754D01*
X69458973Y-147774408D01*
X69592134Y-147795500D01*
X69592139Y-147795500D01*
X69807866Y-147795500D01*
X69926230Y-147776752D01*
X70020926Y-147761754D01*
X70226089Y-147695092D01*
X70418299Y-147597157D01*
X70592821Y-147470359D01*
X70745359Y-147317821D01*
X70872157Y-147143299D01*
X70970092Y-146951089D01*
X71036754Y-146745926D01*
X71051752Y-146651230D01*
X71070500Y-146532866D01*
X71070500Y-145867133D01*
X71036754Y-145654077D01*
X71036754Y-145654074D01*
X70970092Y-145448911D01*
X70872157Y-145256701D01*
X70745359Y-145082179D01*
X70592821Y-144929641D01*
X70418299Y-144802843D01*
X70226089Y-144704908D01*
X70020926Y-144638246D01*
X70020924Y-144638245D01*
X70020922Y-144638245D01*
X69807866Y-144604500D01*
X69807861Y-144604500D01*
X69592139Y-144604500D01*
X69592134Y-144604500D01*
X69379077Y-144638245D01*
X69379074Y-144638246D01*
X69190891Y-144699391D01*
X69173908Y-144704909D01*
X68981700Y-144802843D01*
X68807180Y-144929640D01*
X68665195Y-145071625D01*
X68603872Y-145105109D01*
X68534180Y-145100125D01*
X68478247Y-145058253D01*
X68465132Y-145036348D01*
X68464815Y-145035669D01*
X68464814Y-145035668D01*
X68464814Y-145035666D01*
X68372712Y-144886344D01*
X68248656Y-144762288D01*
X68099334Y-144670186D01*
X67932797Y-144615001D01*
X67932795Y-144615000D01*
X67830010Y-144604500D01*
X66489998Y-144604500D01*
X66489981Y-144604501D01*
X66387203Y-144615000D01*
X66387200Y-144615001D01*
X66220668Y-144670185D01*
X66220663Y-144670187D01*
X66071342Y-144762289D01*
X65947289Y-144886342D01*
X65855187Y-145035663D01*
X65855185Y-145035668D01*
X65848152Y-145056893D01*
X65800001Y-145202203D01*
X65800001Y-145202204D01*
X65800000Y-145202204D01*
X65789500Y-145304983D01*
X59300500Y-145304983D01*
X59300500Y-143267133D01*
X72369500Y-143267133D01*
X72369500Y-143932866D01*
X72403245Y-144145922D01*
X72403246Y-144145926D01*
X72469908Y-144351089D01*
X72567843Y-144543299D01*
X72694641Y-144717821D01*
X72847179Y-144870359D01*
X73021701Y-144997157D01*
X73044792Y-145008922D01*
X73095588Y-145056893D01*
X73112500Y-145119408D01*
X73112500Y-158669752D01*
X73092815Y-158736791D01*
X73057391Y-158772854D01*
X72957838Y-158839373D01*
X72957834Y-158839376D01*
X72839373Y-158957837D01*
X72746295Y-159097139D01*
X72682184Y-159251917D01*
X72682182Y-159251925D01*
X72649500Y-159416228D01*
X72649500Y-159583771D01*
X72682182Y-159748074D01*
X72682184Y-159748082D01*
X72746295Y-159902860D01*
X72839373Y-160042162D01*
X72957837Y-160160626D01*
X73050494Y-160222537D01*
X73097137Y-160253703D01*
X73251918Y-160317816D01*
X73416228Y-160350499D01*
X73416232Y-160350500D01*
X73416233Y-160350500D01*
X73583768Y-160350500D01*
X73583769Y-160350499D01*
X73748082Y-160317816D01*
X73902863Y-160253703D01*
X74042162Y-160160626D01*
X74053288Y-160149500D01*
X74162319Y-160040470D01*
X74223642Y-160006985D01*
X74293334Y-160011969D01*
X74337681Y-160040470D01*
X74457837Y-160160626D01*
X74550494Y-160222537D01*
X74597137Y-160253703D01*
X74751918Y-160317816D01*
X74916228Y-160350499D01*
X74916232Y-160350500D01*
X74916233Y-160350500D01*
X75083768Y-160350500D01*
X75083769Y-160350499D01*
X75248082Y-160317816D01*
X75402863Y-160253703D01*
X75542162Y-160160626D01*
X75660626Y-160042162D01*
X75753703Y-159902863D01*
X75817816Y-159748082D01*
X75850500Y-159583767D01*
X75850500Y-159416233D01*
X75817816Y-159251918D01*
X75753703Y-159097137D01*
X75722537Y-159050494D01*
X75660626Y-158957837D01*
X75656761Y-158953128D01*
X75658655Y-158951573D01*
X75630334Y-158899707D01*
X75627500Y-158873349D01*
X75627500Y-155916228D01*
X80149500Y-155916228D01*
X80149500Y-156083771D01*
X80182182Y-156248074D01*
X80182184Y-156248082D01*
X80246295Y-156402860D01*
X80339373Y-156542162D01*
X80457837Y-156660626D01*
X80550494Y-156722537D01*
X80597137Y-156753703D01*
X80751918Y-156817816D01*
X80916228Y-156850499D01*
X80916232Y-156850500D01*
X80916233Y-156850500D01*
X81083768Y-156850500D01*
X81083769Y-156850499D01*
X81248082Y-156817816D01*
X81402863Y-156753703D01*
X81542162Y-156660626D01*
X81546872Y-156656761D01*
X81548426Y-156658655D01*
X81600293Y-156630334D01*
X81626651Y-156627500D01*
X83561804Y-156627500D01*
X83561805Y-156627499D01*
X83683035Y-156603386D01*
X83763784Y-156569937D01*
X83797233Y-156556083D01*
X83900008Y-156487411D01*
X83987411Y-156400008D01*
X85000600Y-155386819D01*
X85061923Y-155353334D01*
X85077758Y-155351631D01*
X85077706Y-155351097D01*
X85083761Y-155350500D01*
X85083767Y-155350500D01*
X85248082Y-155317816D01*
X85402863Y-155253703D01*
X85542162Y-155160626D01*
X85660626Y-155042162D01*
X85753703Y-154902863D01*
X85817816Y-154748082D01*
X85850500Y-154583767D01*
X85850500Y-154416233D01*
X85817816Y-154251918D01*
X85753703Y-154097137D01*
X85722537Y-154050494D01*
X85660626Y-153957837D01*
X85542162Y-153839373D01*
X85402860Y-153746295D01*
X85248082Y-153682184D01*
X85248074Y-153682182D01*
X85083771Y-153649500D01*
X85083767Y-153649500D01*
X84916233Y-153649500D01*
X84916228Y-153649500D01*
X84751925Y-153682182D01*
X84751917Y-153682184D01*
X84597139Y-153746295D01*
X84457837Y-153839373D01*
X84339373Y-153957837D01*
X84246295Y-154097139D01*
X84182184Y-154251917D01*
X84182182Y-154251925D01*
X84149500Y-154416228D01*
X84148903Y-154422294D01*
X84146465Y-154422053D01*
X84129815Y-154478758D01*
X84113181Y-154499400D01*
X83276400Y-155336181D01*
X83215077Y-155369666D01*
X83188719Y-155372500D01*
X81626651Y-155372500D01*
X81559612Y-155352815D01*
X81547213Y-155342823D01*
X81546872Y-155343239D01*
X81542162Y-155339373D01*
X81402860Y-155246295D01*
X81248082Y-155182184D01*
X81248074Y-155182182D01*
X81083771Y-155149500D01*
X81083767Y-155149500D01*
X80916233Y-155149500D01*
X80916228Y-155149500D01*
X80751925Y-155182182D01*
X80751917Y-155182184D01*
X80597139Y-155246295D01*
X80457837Y-155339373D01*
X80339373Y-155457837D01*
X80246295Y-155597139D01*
X80182184Y-155751917D01*
X80182182Y-155751925D01*
X80149500Y-155916228D01*
X75627500Y-155916228D01*
X75627500Y-150916228D01*
X81149500Y-150916228D01*
X81149500Y-151083771D01*
X81182182Y-151248074D01*
X81182184Y-151248082D01*
X81246295Y-151402860D01*
X81339373Y-151542162D01*
X81343239Y-151546872D01*
X81341336Y-151548432D01*
X81369654Y-151600238D01*
X81372500Y-151626650D01*
X81372500Y-153561807D01*
X81396612Y-153683028D01*
X81396614Y-153683035D01*
X81422819Y-153746297D01*
X81443917Y-153797233D01*
X81510322Y-153896615D01*
X81512589Y-153900008D01*
X81512595Y-153900014D01*
X81613181Y-154000600D01*
X81646666Y-154061923D01*
X81648368Y-154077758D01*
X81648903Y-154077706D01*
X81649500Y-154083771D01*
X81682182Y-154248074D01*
X81682184Y-154248082D01*
X81746295Y-154402860D01*
X81839373Y-154542162D01*
X81957837Y-154660626D01*
X82050494Y-154722537D01*
X82097137Y-154753703D01*
X82251918Y-154817816D01*
X82416228Y-154850499D01*
X82416232Y-154850500D01*
X82416233Y-154850500D01*
X82583768Y-154850500D01*
X82583769Y-154850499D01*
X82748082Y-154817816D01*
X82902863Y-154753703D01*
X83042162Y-154660626D01*
X83160626Y-154542162D01*
X83253703Y-154402863D01*
X83317816Y-154248082D01*
X83350500Y-154083767D01*
X83350500Y-153916233D01*
X83317816Y-153751918D01*
X83253703Y-153597137D01*
X83222537Y-153550494D01*
X83160626Y-153457837D01*
X83042162Y-153339373D01*
X82902860Y-153246295D01*
X82748080Y-153182183D01*
X82748076Y-153182182D01*
X82727308Y-153178051D01*
X82665397Y-153145665D01*
X82630823Y-153084949D01*
X82627500Y-153056434D01*
X82627500Y-151626650D01*
X82647185Y-151559611D01*
X82657178Y-151547214D01*
X82656761Y-151546872D01*
X82660626Y-151542162D01*
X82753703Y-151402863D01*
X82817816Y-151248082D01*
X82850500Y-151083767D01*
X82850500Y-150916233D01*
X82817816Y-150751918D01*
X82753703Y-150597137D01*
X82722537Y-150550494D01*
X82660626Y-150457837D01*
X82542162Y-150339373D01*
X82402860Y-150246295D01*
X82248082Y-150182184D01*
X82248074Y-150182182D01*
X82083771Y-150149500D01*
X82083767Y-150149500D01*
X81916233Y-150149500D01*
X81916228Y-150149500D01*
X81751925Y-150182182D01*
X81751917Y-150182184D01*
X81597139Y-150246295D01*
X81457837Y-150339373D01*
X81339373Y-150457837D01*
X81246295Y-150597139D01*
X81182184Y-150751917D01*
X81182182Y-150751925D01*
X81149500Y-150916228D01*
X75627500Y-150916228D01*
X75627500Y-145224689D01*
X75647185Y-145157650D01*
X75699989Y-145111895D01*
X75769147Y-145101951D01*
X75789804Y-145106754D01*
X75959074Y-145161754D01*
X76065606Y-145178627D01*
X76172134Y-145195500D01*
X76172139Y-145195500D01*
X76387866Y-145195500D01*
X76506230Y-145176752D01*
X76600926Y-145161754D01*
X76806089Y-145095092D01*
X76998299Y-144997157D01*
X77172821Y-144870359D01*
X77325359Y-144717821D01*
X77449682Y-144546704D01*
X77505012Y-144504040D01*
X77574626Y-144498061D01*
X77636420Y-144530667D01*
X77650315Y-144546702D01*
X77774641Y-144717821D01*
X77927179Y-144870359D01*
X78101701Y-144997157D01*
X78293911Y-145095092D01*
X78499074Y-145161754D01*
X78566796Y-145172480D01*
X78712134Y-145195500D01*
X78712139Y-145195500D01*
X78927866Y-145195500D01*
X79046230Y-145176752D01*
X79140926Y-145161754D01*
X79346089Y-145095092D01*
X79538299Y-144997157D01*
X79712821Y-144870359D01*
X79865359Y-144717821D01*
X79989682Y-144546704D01*
X80045012Y-144504040D01*
X80114626Y-144498061D01*
X80176420Y-144530667D01*
X80190315Y-144546702D01*
X80314641Y-144717821D01*
X80467179Y-144870359D01*
X80641701Y-144997157D01*
X80833911Y-145095092D01*
X81039074Y-145161754D01*
X81106796Y-145172480D01*
X81252134Y-145195500D01*
X81252139Y-145195500D01*
X81467866Y-145195500D01*
X81586230Y-145176752D01*
X81680926Y-145161754D01*
X81886089Y-145095092D01*
X82078299Y-144997157D01*
X82252821Y-144870359D01*
X82405359Y-144717821D01*
X82529991Y-144546279D01*
X82585321Y-144503614D01*
X82654934Y-144497635D01*
X82716729Y-144530241D01*
X82730627Y-144546279D01*
X82855025Y-144717496D01*
X82855025Y-144717497D01*
X83007502Y-144869974D01*
X83181963Y-144996728D01*
X83374098Y-145094627D01*
X83579190Y-145161266D01*
X83650000Y-145172481D01*
X83650000Y-144142709D01*
X83670339Y-144154452D01*
X83821667Y-144195000D01*
X83978333Y-144195000D01*
X84129661Y-144154452D01*
X84150000Y-144142709D01*
X84150000Y-145172480D01*
X84220809Y-145161266D01*
X84425901Y-145094627D01*
X84618036Y-144996728D01*
X84792493Y-144869977D01*
X84934578Y-144727892D01*
X84995901Y-144694407D01*
X85065593Y-144699391D01*
X85121527Y-144741262D01*
X85134640Y-144763165D01*
X85135181Y-144764325D01*
X85135185Y-144764331D01*
X85135186Y-144764334D01*
X85227288Y-144913656D01*
X85351344Y-145037712D01*
X85500666Y-145129814D01*
X85667203Y-145184999D01*
X85769991Y-145195500D01*
X87110008Y-145195499D01*
X87212797Y-145184999D01*
X87379334Y-145129814D01*
X87528656Y-145037712D01*
X87652712Y-144913656D01*
X87744814Y-144764334D01*
X87799999Y-144597797D01*
X87810500Y-144495009D01*
X87810499Y-142704992D01*
X87799999Y-142602203D01*
X87744814Y-142435666D01*
X87652712Y-142286344D01*
X87528656Y-142162288D01*
X87379334Y-142070186D01*
X87212797Y-142015001D01*
X87212795Y-142015000D01*
X87110010Y-142004500D01*
X85769998Y-142004500D01*
X85769981Y-142004501D01*
X85667203Y-142015000D01*
X85667200Y-142015001D01*
X85500668Y-142070185D01*
X85500663Y-142070187D01*
X85351342Y-142162289D01*
X85227289Y-142286342D01*
X85135182Y-142435672D01*
X85134638Y-142436840D01*
X85134051Y-142437505D01*
X85131395Y-142441813D01*
X85130658Y-142441358D01*
X85088461Y-142489275D01*
X85021266Y-142508422D01*
X84954387Y-142488201D01*
X84934579Y-142472107D01*
X84792497Y-142330025D01*
X84618036Y-142203271D01*
X84425899Y-142105372D01*
X84220805Y-142038733D01*
X84150000Y-142027518D01*
X84150000Y-143057290D01*
X84129661Y-143045548D01*
X83978333Y-143005000D01*
X83821667Y-143005000D01*
X83670339Y-143045548D01*
X83650000Y-143057290D01*
X83650000Y-142027518D01*
X83649999Y-142027518D01*
X83579194Y-142038733D01*
X83374100Y-142105372D01*
X83181963Y-142203271D01*
X83007503Y-142330025D01*
X83007502Y-142330025D01*
X82855024Y-142482503D01*
X82730627Y-142653720D01*
X82675296Y-142696385D01*
X82605683Y-142702364D01*
X82543888Y-142669758D01*
X82529991Y-142653720D01*
X82405359Y-142482179D01*
X82252821Y-142329641D01*
X82078299Y-142202843D01*
X81886089Y-142104908D01*
X81680926Y-142038246D01*
X81680924Y-142038245D01*
X81680922Y-142038245D01*
X81467866Y-142004500D01*
X81467861Y-142004500D01*
X81252139Y-142004500D01*
X81252134Y-142004500D01*
X81039077Y-142038245D01*
X80833908Y-142104909D01*
X80641700Y-142202843D01*
X80542129Y-142275186D01*
X80467179Y-142329641D01*
X80467177Y-142329643D01*
X80467176Y-142329643D01*
X80314643Y-142482176D01*
X80314643Y-142482177D01*
X80314641Y-142482179D01*
X80237729Y-142588038D01*
X80190318Y-142653294D01*
X80134988Y-142695959D01*
X80065374Y-142701938D01*
X80003579Y-142669332D01*
X79989682Y-142653294D01*
X79952562Y-142602203D01*
X79865359Y-142482179D01*
X79712821Y-142329641D01*
X79538299Y-142202843D01*
X79346089Y-142104908D01*
X79140926Y-142038246D01*
X79140924Y-142038245D01*
X79140922Y-142038245D01*
X78927866Y-142004500D01*
X78927861Y-142004500D01*
X78712139Y-142004500D01*
X78712134Y-142004500D01*
X78499077Y-142038245D01*
X78293908Y-142104909D01*
X78101700Y-142202843D01*
X78002129Y-142275186D01*
X77927179Y-142329641D01*
X77927177Y-142329643D01*
X77927176Y-142329643D01*
X77774643Y-142482176D01*
X77774643Y-142482177D01*
X77774641Y-142482179D01*
X77697729Y-142588038D01*
X77650318Y-142653294D01*
X77594988Y-142695959D01*
X77525374Y-142701938D01*
X77463579Y-142669332D01*
X77449682Y-142653294D01*
X77412562Y-142602203D01*
X77325359Y-142482179D01*
X77172821Y-142329641D01*
X76998299Y-142202843D01*
X76806089Y-142104908D01*
X76600926Y-142038246D01*
X76600924Y-142038245D01*
X76600922Y-142038245D01*
X76387866Y-142004500D01*
X76387861Y-142004500D01*
X76172139Y-142004500D01*
X76172134Y-142004500D01*
X75959077Y-142038245D01*
X75753908Y-142104909D01*
X75561700Y-142202843D01*
X75462129Y-142275186D01*
X75387179Y-142329641D01*
X75387177Y-142329643D01*
X75387176Y-142329643D01*
X75234643Y-142482176D01*
X75234643Y-142482177D01*
X75234641Y-142482179D01*
X75157729Y-142588038D01*
X75110318Y-142653294D01*
X75054988Y-142695959D01*
X74985374Y-142701938D01*
X74923579Y-142669332D01*
X74909682Y-142653294D01*
X74872562Y-142602203D01*
X74785359Y-142482179D01*
X74632821Y-142329641D01*
X74458299Y-142202843D01*
X74266089Y-142104908D01*
X74060926Y-142038246D01*
X74060924Y-142038245D01*
X74060922Y-142038245D01*
X73847866Y-142004500D01*
X73847861Y-142004500D01*
X73632139Y-142004500D01*
X73632134Y-142004500D01*
X73419077Y-142038245D01*
X73213908Y-142104909D01*
X73021700Y-142202843D01*
X72922129Y-142275186D01*
X72847179Y-142329641D01*
X72847177Y-142329643D01*
X72847176Y-142329643D01*
X72694643Y-142482176D01*
X72694643Y-142482177D01*
X72694641Y-142482179D01*
X72640186Y-142557129D01*
X72567843Y-142656700D01*
X72469909Y-142848908D01*
X72403245Y-143054077D01*
X72369500Y-143267133D01*
X59300500Y-143267133D01*
X59300500Y-138424500D01*
X59320185Y-138357461D01*
X59372989Y-138311706D01*
X59424500Y-138300500D01*
X108575500Y-138300500D01*
X108642539Y-138320185D01*
G37*
%TD.AperFunction*%
%TD*%
M02*
